<svg xmlns="http://www.w3.org/2000/svg" xmlns:xlink="http://www.w3.org/1999/xlink" width="410" zoomAndPan="magnify" viewBox="0 0 307.5 35.25" height="47" preserveAspectRatio="xMidYMid meet" version="1.0"><defs><clipPath id="361b7f1a3e"><path d="M 272 0 L 303 0 L 303 33.78125 L 272 33.78125 Z M 272 0 " clip-rule="nonzero"/></clipPath></defs><path fill="#231815" d="M 34.953125 13.269531 C 33.707031 13.285156 32.441406 13.304688 31.199219 13.324219 C 28.6875 13.363281 26.195312 13.398438 23.6875 13.457031 C 21.253906 13.492188 18.800781 13.550781 16.367188 13.605469 C 13.6875 13.664062 10.894531 13.550781 8.25 14.039062 C 5.4375 14.546875 3.609375 19.554688 7.308594 20.136719 C 9.722656 20.53125 12.308594 20.304688 14.742188 20.289062 C 17.234375 20.269531 19.742188 20.25 22.234375 20.230469 C 24.667969 20.195312 27.101562 20.175781 29.535156 20.136719 C 30.78125 20.117188 32.027344 20.097656 33.292969 20.097656 C 33.988281 20.097656 34.6875 20.097656 35.386719 20.042969 C 36.519531 19.949219 37.425781 19.535156 38.3125 18.820312 C 39.613281 17.804688 40.59375 15.449219 39.105469 14.152344 C 37.894531 13.097656 36.480469 13.230469 34.953125 13.269531 Z M 34.953125 13.269531 " fill-opacity="1" fill-rule="nonzero"/><path fill="#231815" d="M 46.351562 13.890625 C 44.613281 14.679688 43.480469 17.539062 45.539062 18.574219 C 45.765625 18.6875 46.066406 18.933594 46.425781 19.027344 C 46.785156 19.121094 47.144531 19.140625 47.5 19.160156 C 48.125 19.195312 48.746094 19.195312 49.371094 19.214844 C 50.613281 19.253906 51.859375 19.289062 53.105469 19.308594 C 55.617188 19.328125 58.105469 19.347656 60.617188 19.367188 C 65.617188 19.402344 70.636719 19.347656 75.617188 19.535156 C 77.449219 19.609375 79.296875 18.085938 79.714844 16.316406 C 80.050781 14.828125 79.410156 12.628906 77.484375 12.703125 C 77.164062 12.683594 76.84375 12.722656 76.542969 12.742188 C 75.921875 12.757812 75.277344 12.777344 74.65625 12.777344 C 73.335938 12.796875 72.015625 12.796875 70.691406 12.816406 C 68.050781 12.835938 65.410156 12.871094 62.785156 12.890625 C 60.21875 12.910156 57.632812 12.949219 55.066406 12.964844 C 53.746094 12.984375 52.425781 13.023438 51.105469 13.078125 C 50.484375 13.097656 49.839844 13.117188 49.21875 13.136719 C 48.746094 13.15625 48.199219 13.15625 47.746094 13.25 C 47.5 13.324219 47.257812 13.417969 47.03125 13.492188 C 46.292969 13.964844 46.085938 14.097656 46.351562 13.890625 Z M 46.351562 13.890625 " fill-opacity="1" fill-rule="nonzero"/><path fill="#231815" d="M 119.527344 18.894531 C 119.660156 18.875 119.773438 18.855469 119.90625 18.839844 C 120.207031 18.820312 120.53125 18.761719 120.832031 18.707031 C 121.546875 18.613281 122.191406 18.367188 122.871094 18.140625 C 124.265625 17.671875 125.453125 16.636719 125.660156 15.113281 C 125.851562 13.738281 125.210938 12.722656 123.792969 12.496094 C 123.191406 12.402344 122.625 12.289062 122.019531 12.289062 C 121.71875 12.289062 121.398438 12.308594 121.09375 12.308594 C 121.039062 12.308594 120.472656 12.363281 120.585938 12.382812 C 120.132812 12.363281 119.738281 12.214844 119.265625 12.25 C 118.964844 12.269531 118.640625 12.289062 118.339844 12.308594 C 117.71875 12.34375 117.09375 12.382812 116.472656 12.421875 C 114.039062 12.550781 111.621094 12.648438 109.1875 12.664062 C 106.753906 12.703125 104.320312 12.683594 101.90625 12.609375 C 99.394531 12.535156 96.808594 12.34375 94.375 12.476562 C 92.753906 12.570312 91.414062 13.511719 90.789062 15.035156 C 90.335938 16.148438 90.394531 18.21875 91.921875 18.554688 C 96.902344 19.648438 102.226562 19.554688 107.300781 19.515625 C 109.792969 19.496094 112.28125 19.441406 114.753906 19.308594 C 116.171875 19.234375 117.851562 19.347656 119.191406 18.914062 C 119.679688 18.761719 119.773438 18.746094 119.527344 18.894531 Z M 119.527344 18.894531 " fill-opacity="1" fill-rule="nonzero"/><path fill="#231815" d="M 156.402344 12.0625 C 154.476562 12.042969 152.550781 12.007812 150.628906 11.988281 C 146.835938 11.933594 143.003906 11.742188 139.230469 11.96875 C 137.476562 12.0625 135.777344 13.25 135.363281 15.019531 C 135.003906 16.617188 135.644531 18.234375 137.4375 18.40625 C 141.25 18.761719 145.117188 18.707031 148.949219 18.78125 C 150.816406 18.820312 152.664062 18.855469 154.535156 18.894531 C 156.664062 18.933594 158.816406 19.082031 160.949219 18.914062 C 162.628906 18.761719 164.027344 16.863281 164.25 15.339844 C 164.496094 13.738281 163.628906 12.382812 161.96875 12.195312 C 160.175781 11.96875 158.25 12.082031 156.402344 12.0625 Z M 156.402344 12.0625 " fill-opacity="1" fill-rule="nonzero"/><path fill="#231815" d="M 175.726562 11.949219 C 173.96875 12.042969 172.273438 13.230469 171.855469 15 C 171.496094 16.597656 172.140625 18.21875 173.933594 18.386719 C 177.742188 18.746094 181.613281 18.6875 185.441406 18.761719 C 187.3125 18.800781 189.160156 18.839844 191.027344 18.875 C 193.160156 18.914062 195.3125 19.0625 197.445312 18.894531 C 199.125 18.746094 200.519531 16.84375 200.746094 15.320312 C 200.992188 13.71875 200.125 12.363281 198.464844 12.175781 C 196.632812 11.949219 194.726562 12.082031 192.878906 12.042969 C 190.953125 12.027344 189.027344 11.988281 187.105469 11.96875 C 183.347656 11.933594 179.519531 11.742188 175.726562 11.949219 Z M 175.726562 11.949219 " fill-opacity="1" fill-rule="nonzero"/><path fill="#231815" d="M 236.355469 13.34375 C 235.355469 13.324219 234.335938 13.324219 233.335938 13.304688 C 231.390625 13.285156 229.429688 13.25 227.484375 13.230469 C 225.542969 13.210938 223.582031 13.171875 221.636719 13.15625 C 219.542969 13.117188 217.277344 12.871094 215.21875 13.285156 C 213.917969 13.550781 212.652344 14.792969 212.351562 16.089844 C 212.105469 17.144531 212.316406 18.761719 213.578125 19.101562 C 215.578125 19.628906 217.804688 19.515625 219.863281 19.589844 C 221.863281 19.667969 223.863281 19.742188 225.863281 19.816406 C 227.863281 19.890625 229.863281 19.96875 231.863281 20.042969 C 234.089844 20.117188 236.65625 20.589844 238.734375 19.742188 C 241.035156 18.800781 242.261719 15.019531 239.675781 13.738281 C 238.695312 13.210938 237.429688 13.363281 236.355469 13.34375 Z M 236.355469 13.34375 " fill-opacity="1" fill-rule="nonzero"/><path fill="#231815" d="M 273.417969 20.0625 C 274.984375 19.949219 276.359375 19.046875 277.058594 17.632812 C 277.699219 16.335938 277.625 14.585938 276.265625 13.8125 C 275.378906 13.304688 274.324219 13.398438 273.339844 13.398438 C 270.039062 13.378906 266.753906 13.363281 263.453125 13.324219 C 261.640625 13.304688 259.847656 13.304688 258.039062 13.285156 C 256.054688 13.269531 254 13.136719 252.054688 13.457031 C 250.566406 13.699219 249.355469 15.226562 249.128906 16.636719 C 248.886719 18.125 249.675781 19.101562 251.113281 19.382812 C 252.773438 19.722656 254.585938 19.609375 256.28125 19.667969 C 257.886719 19.703125 259.507812 19.742188 261.113281 19.78125 C 264.339844 19.855469 267.546875 19.929688 270.773438 20.023438 C 271.660156 20.042969 272.546875 20.136719 273.417969 20.0625 Z M 273.417969 20.0625 " fill-opacity="1" fill-rule="nonzero"/><g clip-path="url(#361b7f1a3e)"><path fill="#231815" d="M 301.289062 14.304688 C 298.023438 11.949219 294.738281 9.617188 291.476562 7.265625 C 289.871094 6.117188 288.25 4.949219 286.644531 3.800781 C 285.832031 3.21875 285.023438 2.671875 284.191406 2.109375 C 283.246094 1.46875 282.171875 0.640625 281.078125 0.359375 C 279.699219 0 278.226562 0.527344 277.339844 1.65625 C 276.53125 2.710938 275.945312 4.308594 276.71875 5.550781 C 277.777344 7.28125 279.832031 8.523438 281.4375 9.730469 C 283.078125 10.953125 284.71875 12.15625 286.363281 13.378906 C 288.378906 14.886719 290.417969 16.375 292.4375 17.878906 C 292.078125 18.125 291.71875 18.367188 291.34375 18.613281 C 290.890625 18.914062 290.417969 19.214844 289.964844 19.496094 C 289.738281 19.648438 289.492188 19.78125 289.265625 19.929688 C 289.25 19.929688 289.25 19.949219 289.25 19.949219 C 289.230469 19.96875 289.210938 19.96875 289.191406 19.988281 C 288.191406 20.570312 287.191406 21.132812 286.191406 21.699219 C 284.210938 22.773438 282.191406 23.75 280.117188 24.652344 C 277.679688 25.707031 274.679688 26.402344 273.019531 28.644531 C 272.039062 29.960938 271.265625 32.839844 273.53125 33.535156 C 273.53125 33.535156 273.53125 33.535156 273.511719 33.535156 C 273.585938 33.574219 273.660156 33.59375 273.757812 33.613281 C 274.152344 33.726562 274.566406 33.78125 274.984375 33.78125 C 276.019531 33.761719 276.925781 33.628906 277.925781 33.273438 C 279.058594 32.878906 280.171875 32.386719 281.285156 31.898438 C 283.511719 30.941406 285.683594 29.867188 287.796875 28.699219 C 292.25 26.273438 296.496094 23.46875 300.457031 20.304688 C 301.929688 19.0625 303.402344 15.808594 301.289062 14.304688 Z M 272.945312 33.214844 C 272.964844 33.234375 272.984375 33.234375 273.019531 33.253906 C 273 33.253906 272.984375 33.234375 272.945312 33.214844 Z M 272.832031 33.160156 C 272.792969 33.121094 272.792969 33.121094 272.832031 33.160156 Z M 272.832031 33.160156 " fill-opacity="1" fill-rule="nonzero"/></g></svg>