<svg xmlns="http://www.w3.org/2000/svg" xmlns:xlink="http://www.w3.org/1999/xlink" width="320" zoomAndPan="magnify" viewBox="0 0 240 116.249996" height="155" preserveAspectRatio="xMidYMid meet" version="1.0"><defs><clipPath id="7cffd9b5d9"><path d="M 6 23 L 236 23 L 236 95 L 6 95 Z M 6 23 " clip-rule="nonzero"/></clipPath><clipPath id="0bd2c1b1b7"><path d="M 0.773438 86.304688 L 11.671875 -0.199219 L 238.652344 28.394531 L 227.753906 114.898438 Z M 0.773438 86.304688 " clip-rule="nonzero"/></clipPath><clipPath id="58acb65cce"><path d="M 0.773438 86.304688 L 11.671875 -0.199219 L 238.652344 28.394531 L 227.753906 114.898438 Z M 0.773438 86.304688 " clip-rule="nonzero"/></clipPath><clipPath id="98c5f85427"><path d="M 0.773438 86.304688 L 11.671875 -0.199219 L 238.652344 28.394531 L 227.753906 114.898438 Z M 0.773438 86.304688 " clip-rule="nonzero"/></clipPath></defs><g clip-path="url(#7cffd9b5d9)"><g clip-path="url(#0bd2c1b1b7)"><g clip-path="url(#58acb65cce)"><g clip-path="url(#98c5f85427)"><path fill="#dd2d4a" d="M 195.21875 25.851562 C 194.464844 27.605469 195.457031 29.164062 196.902344 30.003906 C 204.730469 34.515625 212.738281 38.570312 220.964844 42.296875 C 201.191406 46.554688 181.027344 48.675781 160.996094 51.167969 C 159.957031 49.484375 158.15625 48.183594 156.347656 46.9375 C 152.613281 44.4375 148.738281 42.097656 144.78125 39.925781 C 136.640625 35.496094 128.097656 31.910156 119.261719 29.246094 C 111.515625 26.894531 102.847656 24.308594 94.703125 24.65625 C 90.984375 24.847656 87.140625 26.035156 84.683594 29.011719 C 81.789062 32.589844 81.898438 37.382812 83.597656 41.417969 C 85.378906 45.707031 88.621094 49.28125 91.851562 52.496094 C 93.652344 54.273438 95.527344 55.945312 97.523438 57.570312 C 86.980469 58.992188 76.351562 59.683594 65.757812 59.601562 C 65.507812 59.210938 65.195312 58.875 64.820312 58.527344 C 62.25 56.234375 59.226562 54.238281 56.507812 52.164062 C 50.804688 47.800781 45.089844 43.496094 39.386719 39.136719 C 36.121094 36.691406 32.332031 41.710938 35.539062 44.148438 C 39.832031 47.433594 44.128906 50.664062 48.363281 53.945312 C 50.425781 55.519531 52.550781 57.101562 54.609375 58.734375 C 54.878906 58.949219 55.152344 59.164062 55.480469 59.382812 C 48.789062 59.078125 42.074219 58.472656 35.394531 57.570312 C 27.140625 53.125 19.757812 47.414062 11.957031 42.191406 C 10.53125 41.234375 8.609375 41.351562 7.535156 42.769531 C 6.539062 44.078125 6.683594 46.246094 8.109375 47.203125 C 12.394531 50.074219 16.589844 53.167969 20.808594 56.089844 C 23.378906 57.910156 26.089844 59.5625 28.816406 61.101562 C 22.96875 64.964844 16.777344 68.246094 10.300781 70.957031 C 6.53125 72.511719 9.007812 78.378906 12.785156 76.765625 C 20.898438 73.367188 28.585938 69.078125 35.835938 64.015625 C 41.757812 64.761719 47.703125 65.332031 53.675781 65.667969 C 50.96875 67.296875 48.246094 69.046875 45.53125 70.734375 C 40.21875 74.128906 34.910156 77.519531 29.398438 80.589844 C 27.925781 81.421875 27.0625 83.042969 27.742188 84.742188 C 28.335938 86.191406 30.410156 87.230469 31.882812 86.398438 C 37.648438 83.183594 43.210938 79.703125 48.78125 76.164062 C 51.625 74.371094 54.414062 72.570312 57.253906 70.835938 C 59.703125 69.355469 62.71875 68.121094 64.863281 66.242188 C 64.929688 66.1875 65 66.078125 65.066406 66.027344 C 76.078125 66.101562 87.128906 65.402344 98.03125 63.964844 C 95.695312 66.898438 93.792969 70.183594 92.769531 73.578125 C 90.582031 80.53125 93.585938 87.421875 99.714844 91.242188 C 115.027344 100.695312 133.730469 85.550781 144.636719 75.574219 C 147.875 72.574219 151.003906 69.503906 154.027344 66.300781 C 156.5 63.6875 159.824219 60.9375 161.265625 57.535156 C 161.441406 57.558594 161.625 57.519531 161.859375 57.550781 C 180.746094 55.152344 199.757812 53.183594 218.464844 49.386719 C 211.007812 55.140625 204.125 61.5625 197.871094 68.660156 C 195.160156 71.722656 200.222656 75.527344 202.863281 72.511719 C 211.902344 62.242188 222.425781 53.410156 234.046875 46.273438 C 236.117188 44.980469 235.34375 41.65625 233.300781 40.863281 C 221.5625 36.15625 210.226562 30.609375 199.234375 24.265625 C 197.871094 23.257812 195.824219 24.371094 195.21875 25.851562 Z M 144.804688 66.691406 C 139.644531 71.71875 134.285156 76.417969 128.359375 80.453125 C 122.691406 84.277344 115.746094 88.363281 108.628906 87.644531 C 102.976562 87.113281 96.914062 82.285156 98.59375 76.046875 C 100.097656 70.261719 105.015625 64.785156 109.878906 61.636719 C 113.0625 59.527344 109.875 55.0625 106.675781 56.332031 C 101 52.691406 95.667969 48.195312 91.652344 42.730469 C 90.078125 40.5625 88.050781 37.261719 88.890625 34.378906 C 89.691406 31.792969 92.523438 31.074219 94.929688 30.898438 C 101.234375 30.496094 108.179688 32.566406 114.167969 34.21875 C 121.136719 36.113281 127.90625 38.636719 134.433594 41.671875 C 141.019531 44.710938 147.355469 48.316406 153.332031 52.414062 C 154.703125 53.363281 156.265625 53.738281 155.273438 55.464844 C 154.589844 56.636719 153.445312 57.683594 152.546875 58.648438 C 149.992188 61.433594 147.394531 64.09375 144.804688 66.691406 Z M 144.804688 66.691406 " fill-opacity="1" fill-rule="nonzero"/></g></g></g></g></svg>