<svg xmlns="http://www.w3.org/2000/svg" xmlns:xlink="http://www.w3.org/1999/xlink" width="720" zoomAndPan="magnify" viewBox="0 0 540 269.999989" height="360" preserveAspectRatio="xMidYMid meet" version="1.0"><defs><g/><clipPath id="460cf7a00f"><path d="M 82.65625 36.695312 L 198 36.695312 L 198 80.945312 L 82.65625 80.945312 Z M 82.65625 36.695312 " clip-rule="nonzero"/></clipPath><clipPath id="84e2f6e591"><path d="M 98.96875 43.046875 L 130.46875 43.046875 L 130.46875 74.546875 L 98.96875 74.546875 Z M 98.96875 43.046875 " clip-rule="nonzero"/></clipPath><clipPath id="cc2ca867dc"><path d="M 488.558594 106.28125 L 526.808594 106.28125 L 526.808594 206 L 488.558594 206 Z M 488.558594 106.28125 " clip-rule="nonzero"/></clipPath><clipPath id="346118b394"><path d="M 493.703125 168.207031 L 521.453125 168.207031 L 521.453125 195.957031 L 493.703125 195.957031 Z M 493.703125 168.207031 " clip-rule="nonzero"/></clipPath></defs><path stroke-linecap="square" transform="matrix(1.079973, 0, 0, 1.078846, 0.00677182, -5.405484)" fill="none" stroke-linejoin="miter" d="M 300.001255 59.999007 L 359.999866 59.999007 " stroke="#000000" stroke-width="2" stroke-opacity="1" stroke-miterlimit="4"/><path stroke-linecap="square" transform="matrix(1.079973, 0, 0, 1.078846, 0.00677182, -5.405484)" fill="none" stroke-linejoin="miter" d="M 300.001255 160.000949 L 300.001255 199.999554 " stroke="#000000" stroke-width="2" stroke-opacity="1" stroke-miterlimit="4"/><path stroke-linecap="square" transform="matrix(1.079973, 0, 0, 1.078846, 0.00677182, -5.405484)" fill="none" stroke-linejoin="miter" d="M 300.001255 59.999007 L 300.001255 110.001788 " stroke="#000000" stroke-width="2" stroke-opacity="1" stroke-miterlimit="4"/><path stroke-linecap="square" transform="matrix(1.079973, 0, 0, 1.078846, 0.00677182, -5.405484)" fill="none" stroke-linejoin="miter" d="M 250 59.999007 L 300.001255 59.999007 " stroke="#000000" stroke-width="2" stroke-opacity="1" stroke-miterlimit="4"/><path stroke-linecap="square" transform="matrix(1.079973, 0, 0, 1.078846, 0.00677182, -5.405484)" fill="none" stroke-linejoin="miter" d="M 49.998601 160.000949 L 49.998601 210.00011 " stroke="#000000" stroke-width="2" stroke-opacity="1" stroke-miterlimit="4"/><path stroke-linecap="square" transform="matrix(1.079973, 0, 0, 1.078846, 0.00677182, -5.405484)" fill="none" stroke-linejoin="miter" d="M 49.998601 59.999007 L 49.998601 119.998724 " stroke="#000000" stroke-width="2" stroke-opacity="1" stroke-miterlimit="4"/><path stroke-linecap="square" transform="matrix(1.079973, 0, 0, 1.078846, 0.00677182, -5.405484)" fill="none" stroke-linejoin="miter" d="M 469.999731 160.000949 L 469.999731 199.999554 " stroke="#000000" stroke-width="2" stroke-opacity="1" stroke-miterlimit="4"/><path stroke-linecap="square" transform="matrix(1.079973, 0, 0, 1.078846, 0.00677182, -5.405484)" fill="none" stroke-linejoin="miter" d="M 469.999731 59.999007 L 469.999731 110.001788 " stroke="#000000" stroke-width="2" stroke-opacity="1" stroke-miterlimit="4"/><path stroke-linecap="square" transform="matrix(1.079973, 0, 0, 1.078846, 0.00677182, -5.405484)" fill="none" stroke-linejoin="miter" d="M 359.999866 59.999007 L 469.999731 59.999007 " stroke="#000000" stroke-width="2" stroke-opacity="1" stroke-miterlimit="4"/><path stroke-linecap="square" transform="matrix(1.079973, 0, 0, 1.078846, 0.00677182, -5.405484)" fill="none" stroke-linejoin="miter" d="M 169.999441 59.999007 L 199.998746 59.999007 " stroke="#000000" stroke-width="2" stroke-opacity="1" stroke-miterlimit="4"/><path stroke-linecap="square" transform="matrix(1.079973, 0, 0, 1.078846, 0.00677182, -5.405484)" fill="none" stroke-linejoin="miter" d="M 49.998601 59.999007 L 120.001803 59.999007 " stroke="#000000" stroke-width="2" stroke-opacity="1" stroke-miterlimit="4"/><path stroke-linecap="square" transform="matrix(1.079973, 0, 0, 1.078846, 0.00677182, -5.405484)" fill="none" stroke-linejoin="miter" d="M 469.999731 199.999554 L 469.999731 199.999554 " stroke="#000000" stroke-width="2" stroke-opacity="1" stroke-miterlimit="4"/><path stroke-linecap="square" transform="matrix(1.079973, 0, 0, 1.078846, 0.00677182, -5.405484)" fill="none" stroke-linejoin="miter" d="M 469.999731 199.999554 L 469.999731 208.001447 " stroke="#000000" stroke-width="2" stroke-opacity="1" stroke-miterlimit="4"/><path stroke-linecap="square" transform="matrix(1.079973, 0, 0, 1.078846, 0.00677182, -5.405484)" fill="none" stroke-linejoin="miter" d="M 461.998952 208.001447 L 478.000511 208.001447 L 469.999731 215.99972 Z M 461.998952 208.001447 " stroke="#000000" stroke-width="2" stroke-opacity="1" stroke-miterlimit="4"/><path stroke-linecap="square" transform="matrix(1.079973, 0, 0, 1.078846, 0.00677182, -5.405484)" fill="none" stroke-linejoin="miter" d="M 300.001255 199.999554 L 300.001255 211.998773 " stroke="#000000" stroke-width="2" stroke-opacity="1" stroke-miterlimit="4"/><path stroke-linecap="square" transform="matrix(1.079973, 0, 0, 1.078846, 0.00677182, -5.405484)" fill="none" stroke-linejoin="miter" d="M 292.000475 211.998773 L 307.998417 211.998773 L 300.001255 220.000666 Z M 292.000475 211.998773 " stroke="#000000" stroke-width="2" stroke-opacity="1" stroke-miterlimit="4"/><path stroke-linecap="square" transform="matrix(1.079973, 0, 0, 1.078846, 0.00677182, -5.405484)" fill="none" stroke-linejoin="miter" d="M 49.998601 210.00011 L 49.998601 211.998773 " stroke="#000000" stroke-width="2" stroke-opacity="1" stroke-miterlimit="4"/><path stroke-linecap="square" transform="matrix(1.079973, 0, 0, 1.078846, 0.00677182, -5.405484)" fill="none" stroke-linejoin="miter" d="M 42.001438 211.998773 L 57.99938 211.998773 L 49.998601 220.000666 Z M 42.001438 211.998773 " stroke="#000000" stroke-width="2" stroke-opacity="1" stroke-miterlimit="4"/><path stroke-linecap="square" transform="matrix(1.079973, 0, 0, 1.078846, 0.00677182, -5.405484)" fill="none" stroke-linejoin="miter" d="M 199.998746 59.999007 L 201.000652 59.999007 " stroke="#000000" stroke-width="2" stroke-opacity="1" stroke-miterlimit="4"/><path stroke-linecap="square" transform="matrix(1.079973, 0, 0, 1.078846, 0.00677182, -5.405484)" fill="none" stroke-linejoin="miter" d="M 249.001711 59.999007 L 250 59.999007 " stroke="#000000" stroke-width="2" stroke-opacity="1" stroke-miterlimit="4"/><path stroke-linecap="square" transform="matrix(1.079973, 0, 0, 1.078846, 0.00677182, -5.405484)" fill="none" stroke-linejoin="miter" d="M 201.000652 59.999007 C 201.000652 59.473996 201.036822 58.956226 201.116396 58.438457 C 201.192353 57.924308 201.304479 57.424642 201.456393 56.939459 C 201.608306 56.454277 201.792773 55.990819 202.009792 55.556327 C 202.230428 55.118214 202.480001 54.716309 202.758509 54.34337 C 203.037017 53.970431 203.337227 53.640941 203.666373 53.347659 C 203.995519 53.057998 204.339133 52.808165 204.704449 52.609023 C 205.066148 52.40626 205.442314 52.257809 205.829332 52.152806 C 206.21635 52.051425 206.606985 52.000734 207.001237 52.000734 C 207.395488 52.000734 207.782506 52.051425 208.169524 52.152806 C 208.556542 52.257809 208.932709 52.40626 209.294408 52.609023 C 209.659724 52.808165 210.006954 53.057998 210.332483 53.347659 C 210.661629 53.640941 210.965457 53.970431 211.243965 54.34337 C 211.522473 54.716309 211.768428 55.118214 211.989064 55.556327 C 212.206084 55.990819 212.394167 56.454277 212.542464 56.939459 C 212.694377 57.424642 212.806504 57.924308 212.886078 58.438457 C 212.962034 58.956226 212.998204 59.473996 212.998204 59.999007 M 212.998204 59.999007 C 212.998204 59.473996 213.037991 58.956226 213.113948 58.438457 C 213.193522 57.924308 213.305648 57.424642 213.457562 56.939459 C 213.605858 56.454277 213.793942 55.990819 214.010961 55.556327 C 214.231597 55.118214 214.477553 54.716309 214.756061 54.34337 C 215.034569 53.970431 215.338396 53.640941 215.667542 53.347659 C 215.993071 53.057998 216.340302 52.808165 216.705618 52.609023 C 217.067317 52.40626 217.443484 52.257809 217.830501 52.152806 C 218.217519 52.051425 218.604537 52.000734 218.998789 52.000734 C 219.393041 52.000734 219.783675 52.051425 220.170693 52.152806 C 220.557711 52.257809 220.933878 52.40626 221.295577 52.609023 C 221.660893 52.808165 222.004507 53.057998 222.333653 53.347659 C 222.659182 53.640941 222.963009 53.970431 223.241517 54.34337 C 223.520025 54.716309 223.769597 55.118214 223.990233 55.556327 C 224.207253 55.990819 224.391719 56.454277 224.543633 56.939459 C 224.695546 57.424642 224.807673 57.924308 224.88363 58.438457 C 224.963203 58.956226 224.999373 59.473996 224.999373 59.999007 M 224.999373 59.999007 C 224.999373 59.473996 225.03916 58.956226 225.115117 58.438457 C 225.191074 57.924308 225.306817 57.424642 225.455114 56.939459 C 225.607027 56.454277 225.791494 55.990819 226.01213 55.556327 C 226.22915 55.118214 226.478722 54.716309 226.75723 54.34337 C 227.035738 53.970431 227.339565 53.640941 227.665094 53.347659 C 227.99424 53.057998 228.341471 52.808165 228.70317 52.609023 C 229.068486 52.40626 229.444653 52.257809 229.828053 52.152806 C 230.215071 52.051425 230.605706 52.000734 230.999958 52.000734 C 231.39421 52.000734 231.784844 52.051425 232.171862 52.152806 C 232.555263 52.257809 232.93143 52.40626 233.296746 52.609023 C 233.658445 52.808165 234.005676 53.057998 234.334822 53.347659 C 234.660351 53.640941 234.964178 53.970431 235.242686 54.34337 C 235.521194 54.716309 235.770766 55.118214 235.987786 55.556327 C 236.208422 55.990819 236.392888 56.454277 236.544802 56.939459 C 236.693098 57.424642 236.808842 57.924308 236.884799 58.438457 C 236.960756 58.956226 237.000542 59.473996 237.000542 59.999007 M 237.000542 59.999007 C 237.000542 59.473996 237.036712 58.956226 237.116286 58.438457 C 237.192243 57.924308 237.304369 57.424642 237.456283 56.939459 C 237.608197 56.454277 237.792663 55.990819 238.009682 55.556327 C 238.230319 55.118214 238.479891 54.716309 238.758399 54.34337 C 239.036907 53.970431 239.340734 53.640941 239.666263 53.347659 C 239.995409 53.057998 240.339023 52.808165 240.704339 52.609023 C 241.066038 52.40626 241.442205 52.257809 241.829223 52.152806 C 242.21624 52.051425 242.606875 52.000734 243.001127 52.000734 C 243.395379 52.000734 243.782397 52.051425 244.169414 52.152806 C 244.556432 52.257809 244.932599 52.40626 245.294298 52.609023 C 245.659614 52.808165 246.006845 53.057998 246.332374 53.347659 C 246.66152 53.640941 246.965347 53.970431 247.243855 54.34337 C 247.522363 54.716309 247.768318 55.118214 247.988955 55.556327 C 248.205974 55.990819 248.394057 56.454277 248.542354 56.939459 C 248.694267 57.424642 248.806394 57.924308 248.885968 58.438457 C 248.961925 58.956226 249.001711 59.473996 249.001711 59.999007 " stroke="#000000" stroke-width="2" stroke-opacity="1" stroke-miterlimit="4"/><path stroke-linecap="square" transform="matrix(1.079973, 0, 0, 1.078846, 0.00677182, -5.405484)" fill="none" stroke-linejoin="miter" d="M 300.001255 110.001788 L 300.001255 130.998612 " stroke="#000000" stroke-width="2" stroke-opacity="1" stroke-miterlimit="4"/><path stroke-linecap="square" transform="matrix(1.079973, 0, 0, 1.078846, 0.00677182, -5.405484)" fill="none" stroke-linejoin="miter" d="M 300.001255 139.000505 L 300.001255 160.000949 " stroke="#000000" stroke-width="2" stroke-opacity="1" stroke-miterlimit="4"/><path stroke-linecap="square" transform="matrix(1.079973, 0, 0, 1.078846, 0.00677182, -5.405484)" fill="none" stroke-linejoin="miter" d="M 285.999891 130.998612 L 313.999001 130.998612 " stroke="#000000" stroke-width="2" stroke-opacity="1" stroke-miterlimit="4"/><path stroke-linecap="square" transform="matrix(1.079973, 0, 0, 1.078846, 0.00677182, -5.405484)" fill="none" stroke-linejoin="miter" d="M 285.999891 139.000505 L 313.999001 139.000505 " stroke="#000000" stroke-width="2" stroke-opacity="1" stroke-miterlimit="4"/><path stroke-linecap="square" transform="matrix(1.079973, 0, 0, 1.078846, 0.00677182, -5.405484)" fill="none" stroke-linejoin="miter" d="M 120.001803 59.999007 L 125.000482 59.999007 " stroke="#000000" stroke-width="2" stroke-opacity="1" stroke-miterlimit="4"/><path stroke-linecap="square" transform="matrix(1.079973, 0, 0, 1.078846, 0.00677182, -5.405484)" fill="none" stroke-linejoin="miter" d="M 165.000762 59.999007 L 169.999441 59.999007 " stroke="#000000" stroke-width="2" stroke-opacity="1" stroke-miterlimit="4"/><path stroke-linecap="square" transform="matrix(1.079973, 0, 0, 1.078846, 0.00677182, -5.405484)" fill="none" stroke-linejoin="miter" d="M 125.000482 59.999007 L 127.000677 59.999007 L 129.999161 53.000066 L 135.999745 67.001569 L 142.00033 53.000066 L 148.000914 67.001569 L 154.001499 53.000066 L 159.998466 67.001569 L 163.000567 59.999007 L 165.000762 59.999007 " stroke="#000000" stroke-width="2" stroke-opacity="1" stroke-miterlimit="4"/><path stroke-linecap="square" transform="matrix(1.079973, 0, 0, 1.078846, 0.00677182, -5.405484)" fill="none" stroke-linejoin="miter" d="M 469.999731 110.001788 L 469.999731 114.998446 " stroke="#000000" stroke-width="2" stroke-opacity="1" stroke-miterlimit="4"/><path stroke-linecap="square" transform="matrix(1.079973, 0, 0, 1.078846, 0.00677182, -5.405484)" fill="none" stroke-linejoin="miter" d="M 469.999731 155.000671 L 469.999731 160.000949 " stroke="#000000" stroke-width="2" stroke-opacity="1" stroke-miterlimit="4"/><path stroke-linecap="square" transform="matrix(1.079973, 0, 0, 1.078846, 0.00677182, -5.405484)" fill="none" stroke-linejoin="miter" d="M 469.999731 114.998446 L 469.999731 117.000729 L 463.000858 119.998724 L 476.998605 125.998334 L 463.000858 132.001564 L 476.998605 138.001174 L 463.000858 144.000783 L 476.998605 150.000393 L 469.999731 152.998387 L 469.999731 155.000671 " stroke="#000000" stroke-width="2" stroke-opacity="1" stroke-miterlimit="4"/><path stroke-linecap="square" transform="matrix(1.079973, 0, 0, 1.078846, 0.00677182, -5.405484)" fill="none" stroke-linejoin="miter" d="M 49.998601 119.998724 L 49.998601 128.000617 " stroke="#000000" stroke-width="2" stroke-opacity="1" stroke-miterlimit="4"/><path stroke-linecap="butt" transform="matrix(1.079973, 0, 0, 1.078846, 0.00677182, -5.405484)" fill="none" stroke-linejoin="miter" d="M 61.99977 139.999837 C 61.99977 140.789164 61.923813 141.567628 61.768283 142.342472 C 61.616369 143.113696 61.388499 143.863194 61.088289 144.590968 C 60.784462 145.318742 60.415529 146.010309 59.977873 146.665667 C 59.540217 147.321026 59.041073 147.929315 58.484057 148.486913 C 57.92704 149.04089 57.323003 149.540556 56.668328 149.978668 C 56.010036 150.416781 55.319191 150.786099 54.592177 151.086623 C 53.865162 151.387146 53.112828 151.615255 52.34241 151.770948 C 51.568374 151.92302 50.787104 151.999056 49.998601 151.999056 C 49.213714 151.999056 48.432445 151.92302 47.658409 151.770948 C 46.884373 151.615255 46.135657 151.387146 45.408642 151.086623 C 44.681627 150.786099 43.987165 150.416781 43.33249 149.978668 C 42.677815 149.540556 42.070161 149.04089 41.513145 148.486913 C 40.956129 147.929315 40.460601 147.321026 40.022945 146.665667 C 39.58529 146.010309 39.216357 145.318742 38.91253 144.590968 C 38.61232 143.863194 38.38445 143.113696 38.228919 142.342472 C 38.077005 141.567628 38.001049 140.789164 38.001049 139.999837 C 38.001049 139.21051 38.077005 138.432045 38.228919 137.657201 C 38.38445 136.885978 38.61232 136.136479 38.91253 135.408705 C 39.216357 134.680931 39.58529 133.989365 40.022945 133.334006 C 40.460601 132.678647 40.956129 132.070359 41.513145 131.516381 C 42.070161 130.958783 42.677815 130.459118 43.33249 130.021005 C 43.987165 129.582892 44.681627 129.213574 45.408642 128.91305 C 46.135657 128.612527 46.884373 128.384419 47.658409 128.232346 C 48.432445 128.076653 49.213714 128.000617 49.998601 128.000617 C 50.787104 128.000617 51.568374 128.076653 52.34241 128.232346 C 53.112828 128.384419 53.865162 128.612527 54.592177 128.91305 C 55.319191 129.213574 56.010036 129.582892 56.668328 130.021005 C 57.323003 130.459118 57.92704 130.958783 58.484057 131.516381 C 59.041073 132.070359 59.540217 132.678647 59.977873 133.334006 C 60.415529 133.989365 60.784462 134.680931 61.088289 135.408705 C 61.388499 136.136479 61.616369 136.885978 61.768283 137.657201 C 61.923813 138.432045 61.99977 139.21051 61.99977 139.999837 Z M 61.99977 139.999837 " stroke="#000000" stroke-width="2" stroke-opacity="1" stroke-miterlimit="4"/><path stroke-linecap="square" transform="matrix(1.079973, 0, 0, 1.078846, 0.00677182, -5.405484)" fill="none" stroke-linejoin="miter" d="M 49.998601 151.999056 L 49.998601 160.000949 " stroke="#000000" stroke-width="2" stroke-opacity="1" stroke-miterlimit="4"/><path stroke-linecap="square" transform="matrix(1.079973, 0, 0, 1.078846, 0.00677182, -5.405484)" fill="none" stroke-linejoin="miter" d="M 42.001438 139.999837 C 42.001438 139.739141 42.026757 139.478446 42.077395 139.221372 C 42.128033 138.960677 42.20399 138.710844 42.305265 138.468252 C 42.406541 138.225661 42.529519 137.997553 42.674198 137.776686 C 42.818878 137.55944 42.985259 137.356677 43.173343 137.172018 C 43.357809 136.987359 43.560361 136.820804 43.77738 136.672352 C 43.994399 136.527522 44.225887 136.404416 44.468225 136.303034 C 44.710563 136.205274 44.963752 136.129237 45.220558 136.078547 C 45.477365 136.024235 45.737788 135.99889 45.998211 135.99889 C 46.262251 135.99889 46.522674 136.024235 46.779481 136.078547 C 47.036287 136.129237 47.289476 136.205274 47.531814 136.303034 C 47.774153 136.404416 48.00564 136.527522 48.222659 136.672352 C 48.439679 136.820804 48.64223 136.987359 48.826696 137.172018 C 49.01478 137.356677 49.181161 137.55944 49.325841 137.776686 C 49.47052 137.997553 49.593498 138.225661 49.694774 138.468252 C 49.796049 138.710844 49.872006 138.960677 49.922644 139.221372 C 49.973282 139.478446 49.998601 139.739141 49.998601 139.999837 C 49.998601 140.264153 50.02392 140.521227 50.078175 140.781922 C 50.128812 141.038996 50.204769 141.288829 50.306045 141.531421 C 50.403704 141.774012 50.526681 142.00212 50.674978 142.222987 C 50.819657 142.440233 50.986039 142.642996 51.170505 142.827655 C 51.358589 143.015935 51.56114 143.178869 51.778159 143.327321 C 51.995179 143.472151 52.226666 143.595257 52.469004 143.696639 C 52.711342 143.7944 52.960915 143.870436 53.221338 143.924747 C 53.478144 143.975438 53.738567 144.000783 53.99899 144.000783 C 54.263031 144.000783 54.523454 143.975438 54.78026 143.924747 C 55.037066 143.870436 55.286639 143.7944 55.528977 143.696639 C 55.774932 143.595257 56.002802 143.472151 56.223439 143.327321 C 56.440458 143.178869 56.643009 143.015935 56.827476 142.827655 C 57.015559 142.642996 57.178324 142.440233 57.32662 142.222987 C 57.4713 142.00212 57.594277 141.774012 57.695553 141.531421 C 57.796829 141.288829 57.872786 141.038996 57.923423 140.781922 C 57.974061 140.521227 57.99938 140.264153 57.99938 139.999837 " stroke="#000000" stroke-width="2" stroke-opacity="1" stroke-miterlimit="4"/><path stroke-linecap="butt" transform="matrix(1.079973, 0, 0, 1.078846, 0.00677182, -5.405484)" fill-opacity="1" fill="#000000" fill-rule="nonzero" stroke-linejoin="miter" d="M 302.001449 59.999007 C 302.001449 60.266943 301.950812 60.520397 301.849536 60.766609 C 301.744643 61.009201 301.599964 61.226447 301.415497 61.414726 C 301.227414 61.603006 301.010394 61.747837 300.764439 61.849218 C 300.522101 61.9506 300.265295 62.00129 300.001255 62.00129 C 299.733597 62.00129 299.480408 61.9506 299.234453 61.849218 C 298.988498 61.747837 298.775095 61.603006 298.587012 61.414726 C 298.398928 61.226447 298.254249 61.009201 298.152973 60.766609 C 298.051698 60.520397 298.00106 60.266943 298.00106 59.999007 C 298.00106 59.734691 298.051698 59.481237 298.152973 59.235025 C 298.254249 58.988813 298.398928 58.771567 298.587012 58.586908 C 298.775095 58.398628 298.988498 58.253797 299.234453 58.152416 C 299.480408 58.051035 299.733597 58.000344 300.001255 58.000344 C 300.265295 58.000344 300.522101 58.051035 300.764439 58.152416 C 301.010394 58.253797 301.227414 58.398628 301.415497 58.586908 C 301.599964 58.771567 301.744643 58.988813 301.849536 59.235025 C 301.950812 59.481237 302.001449 59.734691 302.001449 59.999007 Z M 302.001449 59.999007 " stroke="#000000" stroke-width="2" stroke-opacity="1" stroke-miterlimit="4"/><g clip-path="url(#460cf7a00f)"><path fill="#000000" d="M 185.625 80.945312 L 181.492188 80.945312 C 181.339844 80.945312 181.210938 80.894531 181.105469 80.785156 C 181 80.679688 180.945312 80.550781 180.945312 80.398438 C 180.945312 80.25 181 80.121094 181.105469 80.011719 C 181.210938 79.90625 181.339844 79.851562 181.492188 79.851562 L 185.625 79.851562 C 185.777344 79.851562 185.90625 79.90625 186.011719 80.011719 C 186.121094 80.121094 186.171875 80.25 186.171875 80.398438 C 186.171875 80.550781 186.121094 80.679688 186.011719 80.785156 C 185.90625 80.894531 185.777344 80.945312 185.625 80.945312 Z M 177.417969 80.945312 L 173.324219 80.945312 C 173.171875 80.945312 173.042969 80.894531 172.9375 80.785156 C 172.828125 80.679688 172.777344 80.550781 172.777344 80.398438 C 172.777344 80.25 172.828125 80.121094 172.9375 80.011719 C 173.042969 79.90625 173.171875 79.851562 173.324219 79.851562 L 177.40625 79.851562 C 177.558594 79.851562 177.6875 79.90625 177.796875 80.011719 C 177.902344 80.121094 177.957031 80.25 177.957031 80.398438 C 177.957031 80.550781 177.902344 80.679688 177.796875 80.785156 C 177.6875 80.894531 177.558594 80.945312 177.40625 80.945312 Z M 169.25 80.945312 L 165.15625 80.945312 C 165.003906 80.945312 164.875 80.894531 164.769531 80.785156 C 164.660156 80.679688 164.609375 80.550781 164.609375 80.398438 C 164.609375 80.25 164.660156 80.121094 164.769531 80.011719 C 164.875 79.90625 165.003906 79.851562 165.15625 79.851562 L 169.238281 79.851562 C 169.390625 79.851562 169.519531 79.90625 169.625 80.011719 C 169.734375 80.121094 169.785156 80.25 169.785156 80.398438 C 169.785156 80.550781 169.734375 80.679688 169.625 80.785156 C 169.519531 80.894531 169.390625 80.945312 169.238281 80.945312 Z M 161.082031 80.945312 L 156.984375 80.945312 C 156.835938 80.945312 156.707031 80.894531 156.597656 80.785156 C 156.492188 80.679688 156.4375 80.550781 156.4375 80.398438 C 156.4375 80.25 156.492188 80.121094 156.597656 80.011719 C 156.707031 79.90625 156.835938 79.851562 156.984375 79.851562 L 161.070312 79.851562 C 161.222656 79.851562 161.351562 79.90625 161.457031 80.011719 C 161.5625 80.121094 161.617188 80.25 161.617188 80.398438 C 161.617188 80.550781 161.5625 80.679688 161.457031 80.785156 C 161.351562 80.894531 161.222656 80.945312 161.070312 80.945312 Z M 152.914062 80.945312 L 148.816406 80.945312 C 148.664062 80.945312 148.535156 80.894531 148.429688 80.785156 C 148.324219 80.679688 148.269531 80.550781 148.269531 80.398438 C 148.269531 80.25 148.324219 80.121094 148.429688 80.011719 C 148.535156 79.90625 148.664062 79.851562 148.816406 79.851562 L 152.902344 79.851562 C 153.050781 79.851562 153.179688 79.90625 153.289062 80.011719 C 153.394531 80.121094 153.449219 80.25 153.449219 80.398438 C 153.449219 80.550781 153.394531 80.679688 153.289062 80.785156 C 153.179688 80.894531 153.050781 80.945312 152.902344 80.945312 Z M 144.742188 80.945312 L 140.648438 80.945312 C 140.496094 80.945312 140.367188 80.894531 140.261719 80.785156 C 140.15625 80.679688 140.101562 80.550781 140.101562 80.398438 C 140.101562 80.25 140.15625 80.121094 140.261719 80.011719 C 140.367188 79.90625 140.496094 79.851562 140.648438 79.851562 L 144.734375 79.851562 C 144.882812 79.851562 145.011719 79.90625 145.121094 80.011719 C 145.226562 80.121094 145.28125 80.25 145.28125 80.398438 C 145.28125 80.550781 145.226562 80.679688 145.121094 80.785156 C 145.011719 80.894531 144.882812 80.945312 144.734375 80.945312 Z M 136.5625 80.945312 L 132.480469 80.945312 C 132.328125 80.945312 132.199219 80.894531 132.09375 80.785156 C 131.984375 80.679688 131.933594 80.550781 131.933594 80.398438 C 131.933594 80.25 131.984375 80.121094 132.09375 80.011719 C 132.199219 79.90625 132.328125 79.851562 132.480469 79.851562 L 136.5625 79.851562 C 136.714844 79.851562 136.84375 79.90625 136.949219 80.011719 C 137.058594 80.121094 137.109375 80.25 137.109375 80.398438 C 137.109375 80.550781 137.058594 80.679688 136.949219 80.785156 C 136.84375 80.894531 136.714844 80.945312 136.5625 80.945312 Z M 128.394531 80.945312 L 124.308594 80.945312 C 124.160156 80.945312 124.03125 80.894531 123.921875 80.785156 C 123.816406 80.679688 123.761719 80.550781 123.761719 80.398438 C 123.761719 80.25 123.816406 80.121094 123.921875 80.011719 C 124.03125 79.90625 124.160156 79.851562 124.308594 79.851562 L 128.394531 79.851562 C 128.546875 79.851562 128.675781 79.90625 128.78125 80.011719 C 128.886719 80.121094 128.941406 80.25 128.941406 80.398438 C 128.941406 80.550781 128.886719 80.679688 128.78125 80.785156 C 128.675781 80.894531 128.546875 80.945312 128.394531 80.945312 Z M 120.226562 80.945312 L 116.140625 80.945312 C 115.992188 80.945312 115.863281 80.894531 115.753906 80.785156 C 115.648438 80.679688 115.59375 80.550781 115.59375 80.398438 C 115.59375 80.25 115.648438 80.121094 115.753906 80.011719 C 115.863281 79.90625 115.992188 79.851562 116.140625 79.851562 L 120.226562 79.851562 C 120.375 79.851562 120.507812 79.90625 120.613281 80.011719 C 120.71875 80.121094 120.773438 80.25 120.773438 80.398438 C 120.773438 80.550781 120.71875 80.679688 120.613281 80.785156 C 120.507812 80.894531 120.375 80.945312 120.226562 80.945312 Z M 112.058594 80.945312 L 107.972656 80.945312 C 107.820312 80.945312 107.691406 80.894531 107.585938 80.785156 C 107.480469 80.679688 107.425781 80.550781 107.425781 80.398438 C 107.425781 80.25 107.480469 80.121094 107.585938 80.011719 C 107.691406 79.90625 107.820312 79.851562 107.972656 79.851562 L 112.058594 79.851562 C 112.207031 79.851562 112.335938 79.90625 112.445312 80.011719 C 112.550781 80.121094 112.605469 80.25 112.605469 80.398438 C 112.605469 80.550781 112.550781 80.679688 112.445312 80.785156 C 112.335938 80.894531 112.207031 80.945312 112.058594 80.945312 Z M 103.886719 80.945312 L 99.800781 80.945312 C 99.648438 80.945312 99.519531 80.894531 99.414062 80.785156 C 99.308594 80.679688 99.253906 80.550781 99.253906 80.398438 C 99.253906 80.25 99.308594 80.121094 99.414062 80.011719 C 99.519531 79.90625 99.648438 79.851562 99.800781 79.851562 L 103.886719 79.851562 C 104.039062 79.851562 104.167969 79.90625 104.273438 80.011719 C 104.382812 80.121094 104.433594 80.25 104.433594 80.398438 C 104.433594 80.550781 104.382812 80.679688 104.273438 80.785156 C 104.167969 80.894531 104.039062 80.945312 103.886719 80.945312 Z M 95.714844 80.945312 L 95.210938 80.945312 C 93.953125 80.945312 92.726562 80.761719 91.523438 80.386719 C 91.371094 80.347656 91.257812 80.261719 91.179688 80.125 C 91.101562 79.988281 91.085938 79.84375 91.132812 79.691406 C 91.179688 79.542969 91.273438 79.433594 91.417969 79.363281 C 91.558594 79.292969 91.703125 79.289062 91.851562 79.34375 C 92.945312 79.683594 94.066406 79.855469 95.210938 79.851562 L 95.714844 79.851562 C 95.867188 79.851562 95.996094 79.90625 96.101562 80.011719 C 96.210938 80.121094 96.261719 80.25 96.261719 80.398438 C 96.261719 80.550781 96.210938 80.679688 96.101562 80.785156 C 95.996094 80.894531 95.867188 80.945312 95.714844 80.945312 Z M 189.636719 80.226562 C 189.503906 80.226562 189.386719 80.183594 189.285156 80.097656 C 189.183594 80.011719 189.121094 79.902344 189.097656 79.773438 C 189.074219 79.640625 189.097656 79.519531 189.164062 79.40625 C 189.230469 79.289062 189.324219 79.210938 189.449219 79.164062 C 190.683594 78.71875 191.800781 78.070312 192.804688 77.230469 C 192.921875 77.132812 193.054688 77.09375 193.203125 77.105469 C 193.355469 77.121094 193.480469 77.183594 193.578125 77.300781 C 193.671875 77.414062 193.714844 77.546875 193.703125 77.699219 C 193.6875 77.847656 193.625 77.972656 193.507812 78.070312 C 192.40625 78.992188 191.175781 79.699219 189.824219 80.191406 C 189.765625 80.214844 189.703125 80.226562 189.636719 80.226562 Z M 88.078125 78.542969 C 87.957031 78.542969 87.84375 78.507812 87.746094 78.433594 C 86.605469 77.5625 85.640625 76.527344 84.859375 75.324219 C 84.777344 75.199219 84.75 75.0625 84.78125 74.914062 C 84.8125 74.765625 84.894531 74.652344 85.019531 74.570312 C 85.148438 74.488281 85.285156 74.460938 85.433594 74.492188 C 85.578125 74.523438 85.695312 74.601562 85.777344 74.730469 C 86.492188 75.828125 87.371094 76.769531 88.414062 77.5625 C 88.621094 77.71875 88.683594 77.921875 88.601562 78.171875 C 88.519531 78.417969 88.34375 78.542969 88.082031 78.542969 Z M 195.769531 75.101562 C 195.671875 75.101562 195.582031 75.074219 195.496094 75.027344 C 195.367188 74.949219 195.28125 74.839844 195.242188 74.695312 C 195.203125 74.546875 195.222656 74.410156 195.300781 74.277344 C 195.964844 73.148438 196.414062 71.941406 196.652344 70.652344 C 196.679688 70.503906 196.753906 70.386719 196.878906 70.300781 C 197.003906 70.214844 197.140625 70.1875 197.289062 70.214844 C 197.4375 70.242188 197.554688 70.316406 197.640625 70.441406 C 197.726562 70.566406 197.757812 70.703125 197.730469 70.851562 C 197.46875 72.265625 196.976562 73.589844 196.246094 74.832031 C 196.140625 75.011719 195.980469 75.101562 195.769531 75.101562 Z M 83.710938 71.84375 C 83.585938 71.839844 83.472656 71.800781 83.375 71.722656 C 83.273438 71.644531 83.210938 71.542969 83.179688 71.421875 C 82.964844 70.496094 82.855469 69.554688 82.855469 68.601562 L 82.855469 67.238281 C 82.855469 67.085938 82.910156 66.957031 83.015625 66.851562 C 83.121094 66.742188 83.25 66.691406 83.402344 66.691406 C 83.554688 66.691406 83.683594 66.742188 83.789062 66.851562 C 83.898438 66.957031 83.949219 67.085938 83.949219 67.238281 L 83.949219 68.601562 C 83.949219 69.46875 84.050781 70.328125 84.246094 71.171875 C 84.28125 71.320312 84.257812 71.457031 84.175781 71.585938 C 84.097656 71.710938 83.984375 71.792969 83.839844 71.828125 C 83.796875 71.839844 83.753906 71.84375 83.710938 71.84375 Z M 197.382812 67.234375 C 197.234375 67.234375 197.105469 67.179688 196.996094 67.074219 C 196.890625 66.96875 196.835938 66.839844 196.835938 66.6875 L 196.835938 62.609375 C 196.835938 62.457031 196.890625 62.328125 196.996094 62.222656 C 197.105469 62.117188 197.234375 62.0625 197.382812 62.0625 C 197.535156 62.0625 197.664062 62.117188 197.769531 62.222656 C 197.878906 62.328125 197.929688 62.457031 197.929688 62.609375 L 197.929688 66.6875 C 197.929688 66.839844 197.878906 66.96875 197.769531 67.074219 C 197.664062 67.179688 197.535156 67.234375 197.382812 67.234375 Z M 83.402344 63.710938 C 83.25 63.710938 83.121094 63.65625 83.015625 63.550781 C 82.910156 63.445312 82.855469 63.316406 82.855469 63.164062 L 82.855469 59.09375 C 82.855469 58.941406 82.910156 58.816406 83.015625 58.707031 C 83.121094 58.601562 83.25 58.546875 83.402344 58.546875 C 83.554688 58.546875 83.683594 58.601562 83.789062 58.707031 C 83.898438 58.816406 83.949219 58.941406 83.949219 59.09375 L 83.949219 63.164062 C 83.949219 63.316406 83.898438 63.445312 83.789062 63.550781 C 83.683594 63.65625 83.554688 63.710938 83.402344 63.710938 Z M 197.382812 59.066406 C 197.234375 59.066406 197.105469 59.011719 196.996094 58.90625 C 196.890625 58.800781 196.835938 58.671875 196.835938 58.519531 L 196.835938 54.449219 C 196.835938 54.300781 196.890625 54.171875 196.996094 54.0625 C 197.105469 53.957031 197.234375 53.90625 197.382812 53.90625 C 197.535156 53.90625 197.664062 53.957031 197.769531 54.0625 C 197.878906 54.171875 197.929688 54.300781 197.929688 54.449219 L 197.929688 58.527344 C 197.933594 58.679688 197.878906 58.808594 197.773438 58.917969 C 197.664062 59.023438 197.535156 59.078125 197.382812 59.078125 Z M 83.402344 55.542969 C 83.25 55.542969 83.121094 55.488281 83.015625 55.382812 C 82.910156 55.277344 82.855469 55.148438 82.855469 54.996094 L 82.855469 50.929688 C 82.855469 50.777344 82.910156 50.648438 83.015625 50.542969 C 83.121094 50.4375 83.25 50.382812 83.402344 50.382812 C 83.554688 50.382812 83.683594 50.4375 83.789062 50.542969 C 83.898438 50.648438 83.949219 50.777344 83.949219 50.929688 L 83.949219 54.996094 C 83.949219 55.148438 83.898438 55.277344 83.789062 55.382812 C 83.683594 55.488281 83.554688 55.542969 83.402344 55.542969 Z M 197.382812 50.898438 C 197.234375 50.898438 197.105469 50.847656 196.996094 50.738281 C 196.890625 50.632812 196.835938 50.503906 196.835938 50.351562 L 196.835938 49.019531 C 196.835938 48.140625 196.738281 47.277344 196.535156 46.425781 C 196.496094 46.277344 196.515625 46.136719 196.59375 46.003906 C 196.671875 45.867188 196.785156 45.785156 196.9375 45.75 C 197.089844 45.714844 197.230469 45.738281 197.359375 45.820312 C 197.488281 45.90625 197.570312 46.023438 197.601562 46.175781 C 197.820312 47.109375 197.929688 48.058594 197.929688 49.019531 L 197.929688 50.351562 C 197.9375 50.507812 197.886719 50.640625 197.777344 50.753906 C 197.671875 50.867188 197.539062 50.921875 197.382812 50.921875 Z M 83.605469 47.410156 C 83.570312 47.414062 83.539062 47.414062 83.503906 47.410156 C 83.355469 47.382812 83.238281 47.308594 83.152344 47.183594 C 83.066406 47.058594 83.039062 46.921875 83.066406 46.773438 C 83.328125 45.359375 83.828125 44.035156 84.558594 42.796875 C 84.636719 42.679688 84.75 42.605469 84.886719 42.574219 C 85.027344 42.542969 85.160156 42.5625 85.28125 42.636719 C 85.40625 42.707031 85.488281 42.8125 85.53125 42.945312 C 85.574219 43.082031 85.5625 43.214844 85.5 43.34375 C 84.832031 44.472656 84.375 45.679688 84.132812 46.964844 C 84.109375 47.09375 84.046875 47.199219 83.949219 47.28125 C 83.847656 47.367188 83.734375 47.410156 83.605469 47.410156 Z M 195.464844 43.140625 C 195.265625 43.140625 195.113281 43.058594 195.007812 42.894531 C 194.292969 41.800781 193.414062 40.855469 192.371094 40.066406 C 192.25 39.976562 192.179688 39.855469 192.160156 39.707031 C 192.140625 39.554688 192.175781 39.421875 192.265625 39.300781 C 192.359375 39.179688 192.480469 39.109375 192.628906 39.089844 C 192.777344 39.070312 192.914062 39.105469 193.035156 39.195312 C 194.179688 40.058594 195.144531 41.09375 195.929688 42.296875 C 196.011719 42.421875 196.039062 42.558594 196.007812 42.707031 C 195.976562 42.855469 195.898438 42.96875 195.769531 43.050781 C 195.675781 43.113281 195.574219 43.140625 195.464844 43.140625 Z M 87.664062 40.519531 C 87.410156 40.515625 87.242188 40.394531 87.15625 40.15625 C 87.074219 39.917969 87.128906 39.71875 87.320312 39.554688 C 88.425781 38.636719 89.652344 37.929688 91.003906 37.441406 C 91.148438 37.390625 91.285156 37.398438 91.421875 37.460938 C 91.558594 37.523438 91.65625 37.628906 91.707031 37.769531 C 91.757812 37.910156 91.75 38.050781 91.6875 38.1875 C 91.625 38.324219 91.523438 38.417969 91.378906 38.46875 C 90.148438 38.910156 89.027344 39.546875 88.019531 40.378906 C 87.917969 40.472656 87.800781 40.519531 87.664062 40.519531 Z M 189.089844 38.335938 C 189.035156 38.335938 188.980469 38.328125 188.925781 38.308594 C 187.835938 37.964844 186.71875 37.792969 185.578125 37.789062 L 185.03125 37.789062 C 184.878906 37.789062 184.75 37.734375 184.644531 37.628906 C 184.535156 37.523438 184.484375 37.394531 184.484375 37.242188 C 184.484375 37.089844 184.535156 36.960938 184.644531 36.855469 C 184.75 36.75 184.878906 36.695312 185.03125 36.695312 L 185.578125 36.695312 C 186.824219 36.695312 188.042969 36.875 189.238281 37.242188 C 189.386719 37.261719 189.511719 37.332031 189.601562 37.453125 C 189.695312 37.574219 189.730469 37.710938 189.710938 37.863281 C 189.691406 38.011719 189.617188 38.132812 189.496094 38.226562 C 189.375 38.320312 189.242188 38.355469 189.089844 38.335938 Z M 180.960938 37.789062 L 176.875 37.789062 C 176.722656 37.789062 176.59375 37.734375 176.488281 37.628906 C 176.382812 37.523438 176.328125 37.394531 176.328125 37.242188 C 176.328125 37.089844 176.382812 36.960938 176.488281 36.855469 C 176.59375 36.75 176.722656 36.695312 176.875 36.695312 L 180.960938 36.695312 C 181.109375 36.695312 181.238281 36.75 181.347656 36.855469 C 181.453125 36.960938 181.507812 37.089844 181.507812 37.242188 C 181.507812 37.394531 181.453125 37.523438 181.347656 37.628906 C 181.238281 37.734375 181.109375 37.789062 180.960938 37.789062 Z M 172.789062 37.789062 L 168.707031 37.789062 C 168.554688 37.789062 168.425781 37.734375 168.320312 37.628906 C 168.210938 37.523438 168.160156 37.394531 168.160156 37.242188 C 168.160156 37.089844 168.210938 36.960938 168.320312 36.855469 C 168.425781 36.75 168.554688 36.695312 168.707031 36.695312 L 172.789062 36.695312 C 172.941406 36.695312 173.070312 36.75 173.175781 36.855469 C 173.285156 36.960938 173.335938 37.089844 173.335938 37.242188 C 173.335938 37.394531 173.285156 37.523438 173.175781 37.628906 C 173.070312 37.734375 172.941406 37.789062 172.789062 37.789062 Z M 164.621094 37.789062 L 160.535156 37.789062 C 160.386719 37.789062 160.257812 37.734375 160.148438 37.628906 C 160.042969 37.523438 159.988281 37.394531 159.988281 37.242188 C 159.988281 37.089844 160.042969 36.960938 160.148438 36.855469 C 160.257812 36.75 160.386719 36.695312 160.535156 36.695312 L 164.621094 36.695312 C 164.773438 36.695312 164.902344 36.75 165.007812 36.855469 C 165.113281 36.960938 165.167969 37.089844 165.167969 37.242188 C 165.167969 37.394531 165.113281 37.523438 165.007812 37.628906 C 164.902344 37.734375 164.773438 37.789062 164.621094 37.789062 Z M 156.453125 37.789062 L 152.367188 37.789062 C 152.21875 37.789062 152.085938 37.734375 151.980469 37.628906 C 151.875 37.523438 151.820312 37.394531 151.820312 37.242188 C 151.820312 37.089844 151.875 36.960938 151.980469 36.855469 C 152.085938 36.75 152.21875 36.695312 152.367188 36.695312 L 156.453125 36.695312 C 156.601562 36.695312 156.734375 36.75 156.839844 36.855469 C 156.945312 36.960938 157 37.089844 157 37.242188 C 157 37.394531 156.945312 37.523438 156.839844 37.628906 C 156.734375 37.734375 156.601562 37.789062 156.453125 37.789062 Z M 148.285156 37.789062 L 144.199219 37.789062 C 144.046875 37.789062 143.917969 37.734375 143.8125 37.628906 C 143.707031 37.523438 143.652344 37.394531 143.652344 37.242188 C 143.652344 37.089844 143.707031 36.960938 143.8125 36.855469 C 143.917969 36.75 144.046875 36.695312 144.199219 36.695312 L 148.285156 36.695312 C 148.433594 36.695312 148.5625 36.75 148.671875 36.855469 C 148.777344 36.960938 148.832031 37.089844 148.832031 37.242188 C 148.832031 37.394531 148.777344 37.523438 148.671875 37.628906 C 148.5625 37.734375 148.433594 37.789062 148.285156 37.789062 Z M 140.121094 37.789062 L 136.03125 37.789062 C 135.878906 37.789062 135.75 37.734375 135.644531 37.628906 C 135.535156 37.523438 135.484375 37.394531 135.484375 37.242188 C 135.484375 37.089844 135.535156 36.960938 135.644531 36.855469 C 135.75 36.75 135.878906 36.695312 136.03125 36.695312 L 140.121094 36.695312 C 140.269531 36.695312 140.398438 36.75 140.507812 36.855469 C 140.613281 36.960938 140.667969 37.089844 140.667969 37.242188 C 140.667969 37.394531 140.613281 37.523438 140.507812 37.628906 C 140.398438 37.734375 140.269531 37.789062 140.121094 37.789062 Z M 131.953125 37.789062 L 127.859375 37.789062 C 127.710938 37.789062 127.582031 37.734375 127.472656 37.628906 C 127.367188 37.523438 127.3125 37.394531 127.3125 37.242188 C 127.3125 37.089844 127.367188 36.960938 127.472656 36.855469 C 127.582031 36.75 127.710938 36.695312 127.859375 36.695312 L 131.945312 36.695312 C 132.097656 36.695312 132.226562 36.75 132.332031 36.855469 C 132.4375 36.960938 132.492188 37.089844 132.492188 37.242188 C 132.492188 37.394531 132.4375 37.523438 132.332031 37.628906 C 132.226562 37.734375 132.097656 37.789062 131.945312 37.789062 Z M 123.78125 37.789062 L 119.691406 37.789062 C 119.542969 37.789062 119.414062 37.734375 119.304688 37.628906 C 119.199219 37.523438 119.144531 37.394531 119.144531 37.242188 C 119.144531 37.089844 119.199219 36.960938 119.304688 36.855469 C 119.414062 36.75 119.542969 36.695312 119.691406 36.695312 L 123.777344 36.695312 C 123.929688 36.695312 124.058594 36.75 124.164062 36.855469 C 124.269531 36.960938 124.324219 37.089844 124.324219 37.242188 C 124.324219 37.394531 124.269531 37.523438 124.164062 37.628906 C 124.058594 37.734375 123.929688 37.789062 123.777344 37.789062 Z M 115.613281 37.789062 L 111.523438 37.789062 C 111.371094 37.789062 111.242188 37.734375 111.136719 37.628906 C 111.03125 37.523438 110.976562 37.394531 110.976562 37.242188 C 110.976562 37.089844 111.03125 36.960938 111.136719 36.855469 C 111.242188 36.75 111.371094 36.695312 111.523438 36.695312 L 115.609375 36.695312 C 115.757812 36.695312 115.886719 36.75 115.996094 36.855469 C 116.101562 36.960938 116.15625 37.089844 116.15625 37.242188 C 116.15625 37.394531 116.101562 37.523438 115.996094 37.628906 C 115.886719 37.734375 115.757812 37.789062 115.609375 37.789062 Z M 107.445312 37.789062 L 103.355469 37.789062 C 103.203125 37.789062 103.074219 37.734375 102.96875 37.628906 C 102.859375 37.523438 102.808594 37.394531 102.808594 37.242188 C 102.808594 37.089844 102.859375 36.960938 102.96875 36.855469 C 103.074219 36.75 103.203125 36.695312 103.355469 36.695312 L 107.4375 36.695312 C 107.589844 36.695312 107.71875 36.75 107.824219 36.855469 C 107.933594 36.960938 107.984375 37.089844 107.984375 37.242188 C 107.984375 37.394531 107.933594 37.523438 107.824219 37.628906 C 107.71875 37.734375 107.589844 37.789062 107.4375 37.789062 Z M 99.277344 37.789062 L 95.210938 37.789062 C 95.058594 37.789062 94.929688 37.734375 94.824219 37.628906 C 94.714844 37.523438 94.664062 37.394531 94.664062 37.242188 C 94.664062 37.089844 94.714844 36.960938 94.824219 36.855469 C 94.929688 36.75 95.058594 36.695312 95.210938 36.695312 L 99.269531 36.695312 C 99.421875 36.695312 99.550781 36.75 99.65625 36.855469 C 99.765625 36.960938 99.816406 37.089844 99.816406 37.242188 C 99.816406 37.394531 99.765625 37.523438 99.65625 37.628906 C 99.550781 37.734375 99.421875 37.789062 99.269531 37.789062 Z M 99.277344 37.789062 " fill-opacity="1" fill-rule="nonzero"/></g><g clip-path="url(#84e2f6e591)"><path fill="#000000" d="M 102.71875 43.046875 C 100.660156 43.046875 98.96875 44.734375 98.96875 46.796875 L 98.96875 70.796875 C 98.96875 72.855469 100.660156 74.546875 102.71875 74.546875 L 126.71875 74.546875 C 128.777344 74.546875 130.46875 72.855469 130.46875 70.796875 L 130.46875 46.796875 C 130.46875 44.734375 128.777344 43.046875 126.71875 43.046875 Z M 102.71875 44.546875 L 126.71875 44.546875 C 127.960938 44.546875 128.96875 45.554688 128.96875 46.796875 L 128.96875 70.796875 C 128.96875 72.035156 127.960938 73.046875 126.71875 73.046875 L 102.71875 73.046875 C 101.476562 73.046875 100.46875 72.035156 100.46875 70.796875 L 100.46875 46.796875 C 100.46875 45.554688 101.476562 44.546875 102.71875 44.546875 Z M 108.5 51.515625 L 107.4375 52.574219 L 113.660156 58.796875 L 107.4375 65.015625 L 108.5 66.074219 L 114.71875 59.855469 L 120.9375 66.074219 L 122 65.015625 L 115.78125 58.796875 L 122 52.574219 L 120.9375 51.515625 L 114.71875 57.734375 Z M 108.5 51.515625 " fill-opacity="1" fill-rule="nonzero"/></g><g fill="#000000" fill-opacity="1"><g transform="translate(427.065986, 145.419157)"><g><path d="M 1.28125 -11.625 L 5.53125 -11.625 C 6.769531 -11.625 7.742188 -11.328125 8.453125 -10.734375 C 9.171875 -10.140625 9.53125 -9.265625 9.53125 -8.109375 C 9.53125 -7.296875 9.359375 -6.628906 9.015625 -6.109375 C 8.671875 -5.597656 8.1875 -5.191406 7.5625 -4.890625 L 10.1875 0 L 7.8125 0 L 5.5625 -4.3125 L 3.40625 -4.3125 L 3.40625 0 L 1.28125 0 Z M 4.96875 -6.09375 C 6.53125 -6.09375 7.3125 -6.722656 7.3125 -7.984375 C 7.3125 -8.597656 7.132812 -9.0625 6.78125 -9.375 C 6.425781 -9.6875 5.847656 -9.84375 5.046875 -9.84375 L 3.40625 -9.84375 L 3.40625 -6.09375 Z M 4.96875 -6.09375 "/></g></g></g><g fill="#000000" fill-opacity="1"><g transform="translate(437.457003, 145.419157)"><g><path d="M 1.28125 -11.625 L 3.40625 -11.625 L 3.40625 -1.890625 L 8.1875 -1.890625 L 8.1875 0 L 1.28125 0 Z M 1.28125 -11.625 "/></g></g></g><g fill="#000000" fill-opacity="1"><g transform="translate(445.756534, 145.419157)"><g/></g></g><g fill="#000000" fill-opacity="1"><g transform="translate(449.491326, 145.419157)"><g><path d="M 2.890625 -3.8125 L 0.671875 -3.8125 L 0.671875 -5.375 L 2.890625 -5.375 L 2.890625 -7.609375 L 4.578125 -7.609375 L 4.578125 -5.375 L 6.8125 -5.375 L 6.8125 -3.8125 L 4.578125 -3.8125 L 4.578125 -1.59375 L 2.890625 -1.59375 Z M 2.890625 -3.8125 "/></g></g></g><g fill="#000000" fill-opacity="1"><g transform="translate(456.960909, 145.419157)"><g/></g></g><g fill="#000000" fill-opacity="1"><g transform="translate(460.695701, 145.419157)"><g><path d="M 0.96875 -11.625 L 3.015625 -11.625 L 3.015625 -9.5625 L 0.96875 -9.5625 Z M -0.03125 2.328125 C 0.351562 2.328125 0.613281 2.234375 0.75 2.046875 C 0.894531 1.859375 0.96875 1.507812 0.96875 1 L 0.96875 -8.3125 L 3.015625 -8.3125 L 3.015625 1.84375 C 3.015625 2.675781 2.832031 3.242188 2.46875 3.546875 C 2.113281 3.859375 1.554688 4.015625 0.796875 4.015625 L 0.15625 4.015625 Z M -0.03125 2.328125 "/></g></g></g><g fill="#000000" fill-opacity="1"><g transform="translate(464.679476, 145.419157)"><g><path d="M 4.03125 -5.96875 L 0.171875 -11.625 L 2.53125 -11.625 L 5.203125 -7.671875 L 7.875 -11.625 L 10.234375 -11.625 L 6.359375 -5.96875 L 10.4375 0 L 8.078125 0 L 5.203125 -4.234375 L 2.328125 0 L -0.03125 0 Z M 4.03125 -5.96875 "/></g></g></g><g fill="#000000" fill-opacity="1"><g transform="translate(475.070493, 145.419157)"><g><path d="M 1.28125 -11.625 L 3.40625 -11.625 L 3.40625 -1.890625 L 8.1875 -1.890625 L 8.1875 0 L 1.28125 0 Z M 1.28125 -11.625 "/></g></g></g><g fill="#000000" fill-opacity="1"><g transform="translate(239.596294, 32.192306)"><g><path d="M 1.28125 -11.625 L 3.40625 -11.625 L 3.40625 -1.890625 L 8.1875 -1.890625 L 8.1875 0 L 1.28125 0 Z M 1.28125 -11.625 "/></g></g></g><g fill="#000000" fill-opacity="1"><g transform="translate(287.293581, 145.419157)"><g><path d="M 6.546875 0.234375 C 5.367188 0.234375 4.328125 -0.015625 3.421875 -0.515625 C 2.523438 -1.015625 1.828125 -1.71875 1.328125 -2.625 C 0.828125 -3.539062 0.578125 -4.601562 0.578125 -5.8125 C 0.578125 -7.007812 0.832031 -8.0625 1.34375 -8.96875 C 1.863281 -9.882812 2.578125 -10.59375 3.484375 -11.09375 C 4.398438 -11.601562 5.441406 -11.859375 6.609375 -11.859375 C 7.722656 -11.859375 8.722656 -11.628906 9.609375 -11.171875 L 9.390625 -9.15625 C 8.910156 -9.363281 8.453125 -9.523438 8.015625 -9.640625 C 7.578125 -9.753906 7.101562 -9.8125 6.59375 -9.8125 C 5.40625 -9.8125 4.492188 -9.445312 3.859375 -8.71875 C 3.222656 -7.988281 2.90625 -7.019531 2.90625 -5.8125 C 2.90625 -4.601562 3.21875 -3.632812 3.84375 -2.90625 C 4.46875 -2.175781 5.367188 -1.8125 6.546875 -1.8125 C 7.066406 -1.8125 7.546875 -1.863281 7.984375 -1.96875 C 8.421875 -2.082031 8.890625 -2.25 9.390625 -2.46875 L 9.609375 -0.453125 C 8.648438 0.00390625 7.628906 0.234375 6.546875 0.234375 Z M 6.546875 0.234375 "/></g></g></g><g clip-path="url(#cc2ca867dc)"><path fill="#000000" d="M 526.808594 117.105469 L 526.808594 120.675781 C 526.808594 120.804688 526.761719 120.917969 526.671875 121.007812 C 526.578125 121.101562 526.46875 121.148438 526.335938 121.148438 C 526.207031 121.148438 526.09375 121.101562 526.003906 121.007812 C 525.910156 120.917969 525.863281 120.804688 525.863281 120.675781 L 525.863281 117.105469 C 525.863281 116.976562 525.910156 116.863281 526.003906 116.773438 C 526.09375 116.679688 526.207031 116.632812 526.335938 116.632812 C 526.46875 116.632812 526.578125 116.679688 526.671875 116.773438 C 526.761719 116.863281 526.808594 116.976562 526.808594 117.105469 Z M 526.808594 124.191406 L 526.808594 127.730469 C 526.808594 127.859375 526.761719 127.972656 526.671875 128.0625 C 526.578125 128.15625 526.46875 128.203125 526.335938 128.203125 C 526.207031 128.203125 526.09375 128.15625 526.003906 128.0625 C 525.910156 127.972656 525.863281 127.859375 525.863281 127.730469 L 525.863281 124.203125 C 525.863281 124.070312 525.910156 123.960938 526.003906 123.867188 C 526.09375 123.777344 526.207031 123.730469 526.335938 123.730469 C 526.46875 123.730469 526.578125 123.777344 526.671875 123.867188 C 526.761719 123.960938 526.808594 124.070312 526.808594 124.203125 Z M 526.808594 131.246094 L 526.808594 134.785156 C 526.808594 134.914062 526.761719 135.027344 526.671875 135.117188 C 526.578125 135.210938 526.46875 135.257812 526.335938 135.257812 C 526.207031 135.257812 526.09375 135.210938 526.003906 135.117188 C 525.910156 135.027344 525.863281 134.914062 525.863281 134.785156 L 525.863281 131.257812 C 525.863281 131.125 525.910156 131.015625 526.003906 130.921875 C 526.09375 130.832031 526.207031 130.785156 526.335938 130.785156 C 526.46875 130.785156 526.578125 130.832031 526.671875 130.921875 C 526.761719 131.015625 526.808594 131.125 526.808594 131.257812 Z M 526.808594 138.300781 L 526.808594 141.839844 C 526.808594 141.96875 526.761719 142.078125 526.671875 142.171875 C 526.578125 142.265625 526.46875 142.3125 526.335938 142.3125 C 526.207031 142.3125 526.09375 142.265625 526.003906 142.171875 C 525.910156 142.078125 525.863281 141.96875 525.863281 141.839844 L 525.863281 138.3125 C 525.863281 138.179688 525.910156 138.070312 526.003906 137.976562 C 526.09375 137.882812 526.207031 137.839844 526.335938 137.839844 C 526.46875 137.839844 526.578125 137.882812 526.671875 137.976562 C 526.761719 138.070312 526.808594 138.179688 526.808594 138.3125 Z M 526.808594 145.355469 L 526.808594 148.890625 C 526.808594 149.023438 526.761719 149.132812 526.671875 149.226562 C 526.578125 149.320312 526.46875 149.363281 526.335938 149.363281 C 526.207031 149.363281 526.09375 149.320312 526.003906 149.226562 C 525.910156 149.132812 525.863281 149.023438 525.863281 148.890625 L 525.863281 145.363281 C 525.863281 145.234375 525.910156 145.125 526.003906 145.03125 C 526.09375 144.9375 526.207031 144.894531 526.335938 144.894531 C 526.46875 144.894531 526.578125 144.9375 526.671875 145.03125 C 526.761719 145.125 526.808594 145.234375 526.808594 145.363281 Z M 526.808594 152.410156 L 526.808594 155.945312 C 526.808594 156.078125 526.761719 156.1875 526.671875 156.28125 C 526.578125 156.371094 526.46875 156.417969 526.335938 156.417969 C 526.207031 156.417969 526.09375 156.371094 526.003906 156.28125 C 525.910156 156.1875 525.863281 156.078125 525.863281 155.945312 L 525.863281 152.417969 C 525.863281 152.289062 525.910156 152.175781 526.003906 152.085938 C 526.09375 151.992188 526.207031 151.945312 526.335938 151.945312 C 526.46875 151.945312 526.578125 151.992188 526.671875 152.085938 C 526.761719 152.175781 526.808594 152.289062 526.808594 152.417969 Z M 526.808594 159.472656 L 526.808594 163 C 526.808594 163.132812 526.761719 163.242188 526.671875 163.335938 C 526.578125 163.425781 526.46875 163.472656 526.335938 163.472656 C 526.207031 163.472656 526.09375 163.425781 526.003906 163.335938 C 525.910156 163.242188 525.863281 163.132812 525.863281 163 L 525.863281 159.472656 C 525.863281 159.34375 525.910156 159.230469 526.003906 159.140625 C 526.09375 159.046875 526.207031 159 526.335938 159 C 526.46875 159 526.578125 159.046875 526.671875 159.140625 C 526.761719 159.230469 526.808594 159.34375 526.808594 159.472656 Z M 526.808594 166.527344 L 526.808594 170.054688 C 526.808594 170.183594 526.761719 170.296875 526.671875 170.390625 C 526.578125 170.480469 526.46875 170.527344 526.335938 170.527344 C 526.207031 170.527344 526.09375 170.480469 526.003906 170.390625 C 525.910156 170.296875 525.863281 170.183594 525.863281 170.054688 L 525.863281 166.527344 C 525.863281 166.398438 525.910156 166.285156 526.003906 166.195312 C 526.09375 166.101562 526.207031 166.054688 526.335938 166.054688 C 526.46875 166.054688 526.578125 166.101562 526.671875 166.195312 C 526.761719 166.285156 526.808594 166.398438 526.808594 166.527344 Z M 526.808594 173.582031 L 526.808594 177.109375 C 526.808594 177.238281 526.761719 177.351562 526.671875 177.445312 C 526.578125 177.535156 526.46875 177.582031 526.335938 177.582031 C 526.207031 177.582031 526.09375 177.535156 526.003906 177.445312 C 525.910156 177.351562 525.863281 177.238281 525.863281 177.109375 L 525.863281 173.582031 C 525.863281 173.453125 525.910156 173.339844 526.003906 173.25 C 526.09375 173.15625 526.207031 173.109375 526.335938 173.109375 C 526.46875 173.109375 526.578125 173.15625 526.671875 173.25 C 526.761719 173.339844 526.808594 173.453125 526.808594 173.582031 Z M 526.808594 180.636719 L 526.808594 184.164062 C 526.808594 184.292969 526.761719 184.40625 526.671875 184.496094 C 526.578125 184.589844 526.46875 184.636719 526.335938 184.636719 C 526.207031 184.636719 526.09375 184.589844 526.003906 184.496094 C 525.910156 184.40625 525.863281 184.292969 525.863281 184.164062 L 525.863281 180.636719 C 525.863281 180.507812 525.910156 180.394531 526.003906 180.300781 C 526.09375 180.210938 526.207031 180.164062 526.335938 180.164062 C 526.46875 180.164062 526.578125 180.210938 526.671875 180.300781 C 526.761719 180.394531 526.808594 180.507812 526.808594 180.636719 Z M 526.808594 187.691406 L 526.808594 191.21875 C 526.808594 191.351562 526.761719 191.460938 526.671875 191.554688 C 526.578125 191.648438 526.46875 191.691406 526.335938 191.691406 C 526.207031 191.691406 526.09375 191.648438 526.003906 191.554688 C 525.910156 191.460938 525.863281 191.351562 525.863281 191.21875 L 525.863281 187.691406 C 525.863281 187.558594 525.910156 187.449219 526.003906 187.355469 C 526.09375 187.265625 526.207031 187.21875 526.335938 187.21875 C 526.46875 187.21875 526.578125 187.265625 526.671875 187.355469 C 526.761719 187.449219 526.808594 187.558594 526.808594 187.691406 Z M 526.808594 194.746094 L 526.808594 195.183594 C 526.808594 196.269531 526.648438 197.332031 526.324219 198.367188 C 526.292969 198.5 526.21875 198.597656 526.097656 198.667969 C 525.980469 198.734375 525.855469 198.746094 525.726562 198.707031 C 525.59375 198.664062 525.5 198.582031 525.441406 198.460938 C 525.382812 198.339844 525.375 198.210938 525.425781 198.085938 C 525.71875 197.140625 525.863281 196.171875 525.863281 195.183594 L 525.863281 194.746094 C 525.863281 194.617188 525.910156 194.503906 526.003906 194.414062 C 526.09375 194.320312 526.207031 194.273438 526.335938 194.273438 C 526.46875 194.273438 526.578125 194.320312 526.671875 194.414062 C 526.761719 194.503906 526.808594 194.617188 526.808594 194.746094 Z M 526.1875 113.640625 C 526.183594 113.757812 526.148438 113.859375 526.074219 113.945312 C 526 114.035156 525.90625 114.085938 525.796875 114.105469 C 525.683594 114.128906 525.574219 114.109375 525.476562 114.050781 C 525.378906 113.992188 525.308594 113.910156 525.269531 113.804688 C 524.882812 112.738281 524.324219 111.773438 523.597656 110.90625 C 523.515625 110.804688 523.476562 110.691406 523.488281 110.5625 C 523.5 110.429688 523.558594 110.324219 523.65625 110.242188 C 523.757812 110.15625 523.871094 110.121094 524.003906 110.132812 C 524.132812 110.144531 524.238281 110.199219 524.324219 110.300781 C 525.121094 111.253906 525.730469 112.3125 526.15625 113.480469 C 526.175781 113.53125 526.183594 113.585938 526.1875 113.640625 Z M 524.730469 201.34375 C 524.730469 201.449219 524.699219 201.542969 524.636719 201.628906 C 523.886719 202.617188 522.988281 203.449219 521.949219 204.125 C 521.839844 204.195312 521.722656 204.214844 521.59375 204.1875 C 521.464844 204.160156 521.367188 204.09375 521.296875 203.984375 C 521.226562 203.875 521.203125 203.757812 521.230469 203.628906 C 521.257812 203.5 521.324219 203.402344 521.433594 203.328125 C 522.382812 202.714844 523.199219 201.953125 523.882812 201.050781 C 524.019531 200.875 524.195312 200.820312 524.410156 200.890625 C 524.625 200.964844 524.730469 201.113281 524.730469 201.339844 Z M 521.757812 108.347656 C 521.757812 108.429688 521.734375 108.507812 521.691406 108.582031 C 521.625 108.695312 521.53125 108.769531 521.402344 108.800781 C 521.277344 108.835938 521.160156 108.816406 521.046875 108.753906 C 520.070312 108.179688 519.027344 107.789062 517.914062 107.585938 C 517.785156 107.5625 517.683594 107.496094 517.609375 107.386719 C 517.535156 107.28125 517.507812 107.164062 517.53125 107.035156 C 517.554688 106.90625 517.621094 106.804688 517.730469 106.730469 C 517.835938 106.65625 517.953125 106.628906 518.082031 106.652344 C 519.304688 106.878906 520.449219 107.304688 521.523438 107.933594 C 521.679688 108.027344 521.757812 108.164062 521.757812 108.347656 Z M 518.9375 205.113281 C 518.9375 205.363281 518.816406 205.515625 518.574219 205.570312 C 517.773438 205.757812 516.960938 205.851562 516.140625 205.851562 L 514.957031 205.851562 C 514.828125 205.851562 514.71875 205.808594 514.625 205.714844 C 514.53125 205.621094 514.488281 205.511719 514.488281 205.378906 C 514.488281 205.25 514.53125 205.140625 514.625 205.046875 C 514.71875 204.953125 514.828125 204.90625 514.957031 204.90625 L 516.140625 204.90625 C 516.890625 204.90625 517.628906 204.824219 518.359375 204.652344 C 518.488281 204.625 518.605469 204.644531 518.71875 204.710938 C 518.828125 204.78125 518.898438 204.878906 518.925781 205.003906 C 518.9375 205.039062 518.941406 205.078125 518.9375 205.113281 Z M 514.957031 106.953125 C 514.957031 107.082031 514.910156 107.195312 514.816406 107.285156 C 514.726562 107.378906 514.613281 107.425781 514.484375 107.425781 L 510.957031 107.425781 C 510.828125 107.425781 510.71875 107.378906 510.625 107.285156 C 510.53125 107.195312 510.488281 107.082031 510.488281 106.953125 C 510.488281 106.820312 510.53125 106.710938 510.625 106.617188 C 510.71875 106.527344 510.828125 106.480469 510.957031 106.480469 L 514.484375 106.480469 C 514.613281 106.480469 514.726562 106.527344 514.816406 106.617188 C 514.910156 106.710938 514.957031 106.820312 514.957031 106.953125 Z M 511.910156 205.378906 C 511.910156 205.511719 511.863281 205.621094 511.773438 205.714844 C 511.679688 205.808594 511.570312 205.851562 511.4375 205.851562 L 507.921875 205.851562 C 507.789062 205.851562 507.679688 205.808594 507.585938 205.714844 C 507.492188 205.621094 507.449219 205.511719 507.449219 205.378906 C 507.449219 205.25 507.492188 205.140625 507.585938 205.046875 C 507.679688 204.953125 507.789062 204.90625 507.921875 204.90625 L 511.4375 204.90625 C 511.570312 204.90625 511.679688 204.953125 511.773438 205.046875 C 511.863281 205.140625 511.910156 205.25 511.910156 205.378906 Z M 507.894531 106.953125 C 507.894531 107.082031 507.851562 107.195312 507.757812 107.285156 C 507.664062 107.378906 507.554688 107.425781 507.425781 107.425781 L 503.90625 107.425781 C 503.777344 107.425781 503.664062 107.378906 503.574219 107.285156 C 503.480469 107.195312 503.433594 107.082031 503.433594 106.953125 C 503.433594 106.820312 503.480469 106.710938 503.574219 106.617188 C 503.664062 106.527344 503.777344 106.480469 503.90625 106.480469 L 507.429688 106.480469 C 507.5625 106.480469 507.675781 106.523438 507.765625 106.617188 C 507.859375 106.710938 507.90625 106.820312 507.90625 106.953125 Z M 504.851562 205.378906 C 504.851562 205.511719 504.804688 205.621094 504.710938 205.714844 C 504.621094 205.808594 504.507812 205.851562 504.378906 205.851562 L 500.863281 205.851562 C 500.730469 205.851562 500.621094 205.808594 500.527344 205.714844 C 500.4375 205.621094 500.390625 205.511719 500.390625 205.378906 C 500.390625 205.25 500.4375 205.140625 500.527344 205.046875 C 500.621094 204.953125 500.730469 204.90625 500.863281 204.90625 L 504.378906 204.90625 C 504.507812 204.90625 504.621094 204.953125 504.710938 205.046875 C 504.804688 205.140625 504.851562 205.25 504.851562 205.378906 Z M 500.835938 106.953125 C 500.835938 107.082031 500.789062 107.195312 500.699219 107.285156 C 500.605469 107.378906 500.496094 107.425781 500.363281 107.425781 L 499.210938 107.425781 C 498.453125 107.425781 497.707031 107.511719 496.96875 107.683594 C 496.839844 107.71875 496.71875 107.703125 496.601562 107.636719 C 496.488281 107.566406 496.414062 107.46875 496.382812 107.335938 C 496.351562 107.207031 496.375 107.085938 496.445312 106.972656 C 496.519531 106.859375 496.621094 106.792969 496.753906 106.765625 C 497.558594 106.574219 498.378906 106.480469 499.210938 106.480469 L 500.363281 106.480469 C 500.5 106.472656 500.613281 106.519531 500.710938 106.609375 C 500.808594 106.703125 500.855469 106.816406 500.855469 106.953125 Z M 497.820312 205.207031 C 497.824219 205.234375 497.824219 205.265625 497.820312 205.292969 C 497.796875 205.421875 497.730469 205.523438 497.625 205.597656 C 497.515625 205.671875 497.398438 205.695312 497.269531 205.671875 C 496.046875 205.445312 494.902344 205.015625 493.832031 204.382812 C 493.730469 204.3125 493.667969 204.21875 493.640625 204.097656 C 493.613281 203.976562 493.632812 203.863281 493.691406 203.757812 C 493.753906 203.652344 493.84375 203.578125 493.960938 203.542969 C 494.082031 203.507812 494.195312 203.515625 494.304688 203.570312 C 495.28125 204.144531 496.324219 204.539062 497.4375 204.75 C 497.546875 204.769531 497.636719 204.824219 497.710938 204.910156 C 497.78125 204.996094 497.820312 205.09375 497.820312 205.207031 Z M 494.128906 108.609375 C 494.128906 108.78125 494.058594 108.910156 493.917969 109.003906 C 492.96875 109.621094 492.15625 110.378906 491.472656 111.28125 C 491.394531 111.382812 491.289062 111.445312 491.160156 111.460938 C 491.03125 111.480469 490.914062 111.449219 490.808594 111.371094 C 490.707031 111.292969 490.644531 111.1875 490.628906 111.058594 C 490.609375 110.929688 490.640625 110.8125 490.71875 110.707031 C 491.46875 109.71875 492.359375 108.886719 493.398438 108.207031 C 493.507812 108.136719 493.625 108.113281 493.753906 108.140625 C 493.882812 108.167969 493.980469 108.238281 494.054688 108.347656 C 494.105469 108.425781 494.128906 108.515625 494.128906 108.609375 Z M 491.863281 201.703125 C 491.859375 201.921875 491.753906 202.066406 491.550781 202.140625 C 491.34375 202.210938 491.171875 202.164062 491.03125 201.996094 C 490.234375 201.042969 489.625 199.984375 489.203125 198.816406 C 489.160156 198.691406 489.164062 198.574219 489.21875 198.453125 C 489.273438 198.335938 489.363281 198.253906 489.484375 198.210938 C 489.609375 198.164062 489.730469 198.171875 489.847656 198.226562 C 489.964844 198.28125 490.046875 198.371094 490.089844 198.492188 C 490.472656 199.554688 491.023438 200.523438 491.742188 201.394531 C 491.824219 201.480469 491.863281 201.585938 491.863281 201.703125 Z M 489.976562 114.113281 C 489.976562 114.164062 489.96875 114.210938 489.953125 114.257812 C 489.65625 115.199219 489.507812 116.160156 489.503906 117.148438 L 489.503906 117.621094 C 489.503906 117.75 489.457031 117.863281 489.363281 117.953125 C 489.273438 118.046875 489.160156 118.09375 489.03125 118.09375 C 488.902344 118.09375 488.789062 118.046875 488.699219 117.953125 C 488.605469 117.863281 488.558594 117.75 488.558594 117.621094 L 488.558594 117.148438 C 488.558594 116.070312 488.714844 115.015625 489.03125 113.988281 C 489.050781 113.855469 489.109375 113.753906 489.214844 113.671875 C 489.320312 113.59375 489.4375 113.5625 489.566406 113.578125 C 489.699219 113.597656 489.800781 113.65625 489.882812 113.761719 C 489.960938 113.867188 489.992188 113.984375 489.976562 114.113281 Z M 489.503906 121.136719 L 489.503906 124.664062 C 489.503906 124.792969 489.457031 124.90625 489.363281 124.996094 C 489.273438 125.089844 489.160156 125.136719 489.03125 125.136719 C 488.902344 125.136719 488.789062 125.089844 488.699219 124.996094 C 488.605469 124.90625 488.558594 124.792969 488.558594 124.664062 L 488.558594 121.136719 C 488.558594 121.003906 488.605469 120.894531 488.699219 120.800781 C 488.789062 120.710938 488.902344 120.664062 489.03125 120.664062 C 489.160156 120.664062 489.273438 120.710938 489.363281 120.800781 C 489.457031 120.894531 489.503906 121.003906 489.503906 121.136719 Z M 489.503906 128.191406 L 489.503906 131.71875 C 489.503906 131.847656 489.457031 131.960938 489.363281 132.050781 C 489.273438 132.144531 489.160156 132.191406 489.03125 132.191406 C 488.902344 132.191406 488.789062 132.144531 488.699219 132.050781 C 488.605469 131.960938 488.558594 131.847656 488.558594 131.71875 L 488.558594 128.191406 C 488.558594 128.058594 488.605469 127.949219 488.699219 127.855469 C 488.789062 127.765625 488.902344 127.71875 489.03125 127.71875 C 489.160156 127.71875 489.273438 127.765625 489.363281 127.855469 C 489.457031 127.949219 489.503906 128.058594 489.503906 128.191406 Z M 489.503906 135.246094 L 489.503906 138.773438 C 489.503906 138.902344 489.457031 139.011719 489.363281 139.105469 C 489.273438 139.199219 489.160156 139.242188 489.03125 139.242188 C 488.902344 139.242188 488.789062 139.199219 488.699219 139.105469 C 488.605469 139.011719 488.558594 138.902344 488.558594 138.773438 L 488.558594 135.246094 C 488.558594 135.113281 488.605469 135.003906 488.699219 134.910156 C 488.789062 134.816406 488.902344 134.773438 489.03125 134.773438 C 489.160156 134.773438 489.273438 134.816406 489.363281 134.910156 C 489.457031 135.003906 489.503906 135.113281 489.503906 135.246094 Z M 489.503906 142.296875 L 489.503906 145.824219 C 489.503906 145.957031 489.457031 146.066406 489.363281 146.160156 C 489.273438 146.253906 489.160156 146.296875 489.03125 146.296875 C 488.902344 146.296875 488.789062 146.253906 488.699219 146.160156 C 488.605469 146.066406 488.558594 145.957031 488.558594 145.824219 L 488.558594 142.296875 C 488.558594 142.167969 488.605469 142.058594 488.699219 141.964844 C 488.789062 141.871094 488.902344 141.828125 489.03125 141.828125 C 489.160156 141.828125 489.273438 141.871094 489.363281 141.964844 C 489.457031 142.058594 489.503906 142.167969 489.503906 142.296875 Z M 489.503906 149.351562 L 489.503906 152.878906 C 489.503906 153.011719 489.457031 153.121094 489.363281 153.214844 C 489.273438 153.304688 489.160156 153.351562 489.03125 153.351562 C 488.902344 153.351562 488.789062 153.304688 488.699219 153.214844 C 488.605469 153.121094 488.558594 153.011719 488.558594 152.878906 L 488.558594 149.351562 C 488.558594 149.222656 488.605469 149.109375 488.699219 149.019531 C 488.789062 148.925781 488.902344 148.878906 489.03125 148.878906 C 489.160156 148.878906 489.273438 148.925781 489.363281 149.019531 C 489.457031 149.109375 489.503906 149.222656 489.503906 149.351562 Z M 489.503906 156.402344 L 489.503906 159.933594 C 489.503906 160.066406 489.457031 160.175781 489.363281 160.269531 C 489.273438 160.359375 489.160156 160.40625 489.03125 160.40625 C 488.902344 160.40625 488.789062 160.359375 488.699219 160.269531 C 488.605469 160.175781 488.558594 160.066406 488.558594 159.933594 L 488.558594 156.402344 C 488.558594 156.273438 488.605469 156.160156 488.699219 156.070312 C 488.789062 155.976562 488.902344 155.929688 489.03125 155.929688 C 489.160156 155.929688 489.273438 155.976562 489.363281 156.070312 C 489.457031 156.160156 489.503906 156.273438 489.503906 156.402344 Z M 489.503906 163.457031 L 489.503906 166.988281 C 489.503906 167.117188 489.457031 167.230469 489.363281 167.324219 C 489.273438 167.414062 489.160156 167.460938 489.03125 167.460938 C 488.902344 167.460938 488.789062 167.414062 488.699219 167.324219 C 488.605469 167.230469 488.558594 167.117188 488.558594 166.988281 L 488.558594 163.460938 C 488.558594 163.332031 488.605469 163.21875 488.699219 163.128906 C 488.789062 163.035156 488.902344 162.988281 489.03125 162.988281 C 489.160156 162.988281 489.273438 163.035156 489.363281 163.128906 C 489.457031 163.21875 489.503906 163.332031 489.503906 163.460938 Z M 489.503906 170.511719 L 489.503906 174.042969 C 489.503906 174.171875 489.457031 174.285156 489.363281 174.375 C 489.273438 174.46875 489.160156 174.515625 489.03125 174.515625 C 488.902344 174.515625 488.789062 174.46875 488.699219 174.375 C 488.605469 174.285156 488.558594 174.171875 488.558594 174.042969 L 488.558594 170.515625 C 488.558594 170.386719 488.605469 170.273438 488.699219 170.179688 C 488.789062 170.089844 488.902344 170.042969 489.03125 170.042969 C 489.160156 170.042969 489.273438 170.089844 489.363281 170.179688 C 489.457031 170.273438 489.503906 170.386719 489.503906 170.515625 Z M 489.503906 177.566406 L 489.503906 181.097656 C 489.503906 181.226562 489.457031 181.339844 489.363281 181.429688 C 489.273438 181.523438 489.160156 181.570312 489.03125 181.570312 C 488.902344 181.570312 488.789062 181.523438 488.699219 181.429688 C 488.605469 181.339844 488.558594 181.226562 488.558594 181.097656 L 488.558594 177.570312 C 488.558594 177.441406 488.605469 177.328125 488.699219 177.234375 C 488.789062 177.144531 488.902344 177.097656 489.03125 177.097656 C 489.160156 177.097656 489.273438 177.144531 489.363281 177.234375 C 489.457031 177.328125 489.503906 177.441406 489.503906 177.570312 Z M 489.503906 184.621094 L 489.503906 188.152344 C 489.503906 188.28125 489.457031 188.394531 489.363281 188.484375 C 489.273438 188.578125 489.160156 188.625 489.03125 188.625 C 488.902344 188.625 488.789062 188.578125 488.699219 188.484375 C 488.605469 188.394531 488.558594 188.28125 488.558594 188.152344 L 488.558594 184.625 C 488.558594 184.492188 488.605469 184.382812 488.699219 184.289062 C 488.789062 184.199219 488.902344 184.152344 489.03125 184.152344 C 489.160156 184.152344 489.273438 184.199219 489.363281 184.289062 C 489.457031 184.382812 489.503906 184.492188 489.503906 184.625 Z M 489.503906 191.671875 L 489.503906 195.183594 C 489.503906 195.316406 489.457031 195.425781 489.363281 195.519531 C 489.273438 195.609375 489.160156 195.65625 489.03125 195.65625 C 488.902344 195.65625 488.789062 195.609375 488.699219 195.519531 C 488.605469 195.425781 488.558594 195.316406 488.558594 195.183594 L 488.558594 191.679688 C 488.558594 191.546875 488.605469 191.4375 488.699219 191.34375 C 488.789062 191.253906 488.902344 191.207031 489.03125 191.207031 C 489.160156 191.207031 489.273438 191.253906 489.363281 191.34375 C 489.457031 191.4375 489.503906 191.546875 489.503906 191.679688 Z M 489.503906 191.671875 " fill-opacity="1" fill-rule="nonzero"/></g><g clip-path="url(#346118b394)"><path fill="#000000" d="M 497.007812 168.207031 C 495.195312 168.207031 493.703125 169.699219 493.703125 171.511719 L 493.703125 192.65625 C 493.703125 194.46875 495.195312 195.957031 497.007812 195.957031 L 518.152344 195.957031 C 519.964844 195.957031 521.453125 194.46875 521.453125 192.65625 L 521.453125 171.511719 C 521.453125 169.699219 519.964844 168.207031 518.152344 168.207031 Z M 497.007812 169.53125 L 518.152344 169.53125 C 519.242188 169.53125 520.132812 170.417969 520.132812 171.511719 L 520.132812 192.65625 C 520.132812 193.75 519.242188 194.636719 518.152344 194.636719 L 497.007812 194.636719 C 495.914062 194.636719 495.027344 193.75 495.027344 192.65625 L 495.027344 171.511719 C 495.027344 170.417969 495.914062 169.53125 497.007812 169.53125 Z M 502.101562 175.671875 L 501.164062 176.605469 L 506.644531 182.082031 L 501.164062 187.5625 L 502.101562 188.496094 L 507.578125 183.019531 L 513.058594 188.496094 L 513.992188 187.5625 L 508.511719 182.082031 L 513.992188 176.605469 L 513.058594 175.671875 L 507.578125 181.148438 Z M 502.101562 175.671875 " fill-opacity="1" fill-rule="nonzero"/></g><g fill="#000000" fill-opacity="1"><g transform="translate(112.539347, 27.835779)"><g><path d="M 1.296875 -11.828125 L 5.625 -11.828125 C 6.882812 -11.828125 7.878906 -11.523438 8.609375 -10.921875 C 9.335938 -10.328125 9.703125 -9.4375 9.703125 -8.25 C 9.703125 -7.425781 9.523438 -6.75 9.171875 -6.21875 C 8.828125 -5.695312 8.332031 -5.28125 7.6875 -4.96875 L 10.359375 0 L 7.953125 0 L 5.65625 -4.390625 L 3.46875 -4.390625 L 3.46875 0 L 1.296875 0 Z M 5.0625 -6.203125 C 6.644531 -6.203125 7.4375 -6.84375 7.4375 -8.125 C 7.4375 -8.75 7.253906 -9.222656 6.890625 -9.546875 C 6.535156 -9.867188 5.953125 -10.03125 5.140625 -10.03125 L 3.46875 -10.03125 L 3.46875 -6.203125 Z M 5.0625 -6.203125 "/></g></g></g><g fill="#000000" fill-opacity="1"><g transform="translate(123.115771, 27.835779)"><g><path d="M 3.375 0.171875 C 2.832031 0.171875 2.335938 0.117188 1.890625 0.015625 C 1.453125 -0.0859375 1 -0.242188 0.53125 -0.453125 L 0.703125 -2.25 C 1.179688 -1.96875 1.625 -1.753906 2.03125 -1.609375 C 2.445312 -1.472656 2.875 -1.40625 3.3125 -1.40625 C 4.164062 -1.40625 4.59375 -1.6875 4.59375 -2.25 C 4.59375 -2.550781 4.476562 -2.78125 4.25 -2.9375 C 4.03125 -3.101562 3.628906 -3.300781 3.046875 -3.53125 C 2.210938 -3.832031 1.597656 -4.175781 1.203125 -4.5625 C 0.804688 -4.957031 0.609375 -5.488281 0.609375 -6.15625 C 0.609375 -6.882812 0.890625 -7.476562 1.453125 -7.9375 C 2.015625 -8.394531 2.773438 -8.625 3.734375 -8.625 C 4.691406 -8.625 5.566406 -8.40625 6.359375 -7.96875 L 6.171875 -6.171875 C 5.742188 -6.460938 5.335938 -6.6875 4.953125 -6.84375 C 4.578125 -7 4.179688 -7.078125 3.765625 -7.078125 C 3.410156 -7.078125 3.132812 -7.003906 2.9375 -6.859375 C 2.738281 -6.710938 2.640625 -6.503906 2.640625 -6.234375 C 2.640625 -6.023438 2.695312 -5.851562 2.8125 -5.71875 C 2.9375 -5.582031 3.101562 -5.457031 3.3125 -5.34375 C 3.53125 -5.238281 3.882812 -5.09375 4.375 -4.90625 C 5.195312 -4.582031 5.785156 -4.234375 6.140625 -3.859375 C 6.503906 -3.484375 6.6875 -2.976562 6.6875 -2.34375 C 6.6875 -1.550781 6.398438 -0.929688 5.828125 -0.484375 C 5.253906 -0.046875 4.4375 0.171875 3.375 0.171875 Z M 3.375 0.171875 "/></g></g></g><g fill="#000000" fill-opacity="1"><g transform="translate(130.262458, 27.835779)"><g/></g></g><g fill="#000000" fill-opacity="1"><g transform="translate(134.06389, 27.835779)"><g><path d="M 2.9375 -3.890625 L 0.671875 -3.890625 L 0.671875 -5.484375 L 2.9375 -5.484375 L 2.9375 -7.75 L 4.671875 -7.75 L 4.671875 -5.484375 L 6.9375 -5.484375 L 6.9375 -3.890625 L 4.671875 -3.890625 L 4.671875 -1.625 L 2.9375 -1.625 Z M 2.9375 -3.890625 "/></g></g></g><g fill="#000000" fill-opacity="1"><g transform="translate(141.666753, 27.835779)"><g/></g></g><g fill="#000000" fill-opacity="1"><g transform="translate(145.468184, 27.835779)"><g><path d="M 0.984375 -11.828125 L 3.078125 -11.828125 L 3.078125 -9.734375 L 0.984375 -9.734375 Z M -0.03125 2.359375 C 0.363281 2.359375 0.628906 2.265625 0.765625 2.078125 C 0.910156 1.890625 0.984375 1.535156 0.984375 1.015625 L 0.984375 -8.453125 L 3.078125 -8.453125 L 3.078125 1.875 C 3.078125 2.71875 2.894531 3.296875 2.53125 3.609375 C 2.164062 3.929688 1.59375 4.09375 0.8125 4.09375 L 0.15625 4.09375 Z M -0.03125 2.359375 "/></g></g></g><g fill="#000000" fill-opacity="1"><g transform="translate(149.523041, 27.835779)"><g><path d="M 4.109375 -6.0625 L 0.171875 -11.828125 L 2.5625 -11.828125 L 5.296875 -7.8125 L 8.015625 -11.828125 L 10.421875 -11.828125 L 6.46875 -6.0625 L 10.609375 0 L 8.21875 0 L 5.296875 -4.3125 L 2.359375 0 L -0.03125 0 Z M 4.109375 -6.0625 "/></g></g></g><g fill="#000000" fill-opacity="1"><g transform="translate(160.099465, 27.835779)"><g><path d="M 3.375 0.171875 C 2.832031 0.171875 2.335938 0.117188 1.890625 0.015625 C 1.453125 -0.0859375 1 -0.242188 0.53125 -0.453125 L 0.703125 -2.25 C 1.179688 -1.96875 1.625 -1.753906 2.03125 -1.609375 C 2.445312 -1.472656 2.875 -1.40625 3.3125 -1.40625 C 4.164062 -1.40625 4.59375 -1.6875 4.59375 -2.25 C 4.59375 -2.550781 4.476562 -2.78125 4.25 -2.9375 C 4.03125 -3.101562 3.628906 -3.300781 3.046875 -3.53125 C 2.210938 -3.832031 1.597656 -4.175781 1.203125 -4.5625 C 0.804688 -4.957031 0.609375 -5.488281 0.609375 -6.15625 C 0.609375 -6.882812 0.890625 -7.476562 1.453125 -7.9375 C 2.015625 -8.394531 2.773438 -8.625 3.734375 -8.625 C 4.691406 -8.625 5.566406 -8.40625 6.359375 -7.96875 L 6.171875 -6.171875 C 5.742188 -6.460938 5.335938 -6.6875 4.953125 -6.84375 C 4.578125 -7 4.179688 -7.078125 3.765625 -7.078125 C 3.410156 -7.078125 3.132812 -7.003906 2.9375 -6.859375 C 2.738281 -6.710938 2.640625 -6.503906 2.640625 -6.234375 C 2.640625 -6.023438 2.695312 -5.851562 2.8125 -5.71875 C 2.9375 -5.582031 3.101562 -5.457031 3.3125 -5.34375 C 3.53125 -5.238281 3.882812 -5.09375 4.375 -4.90625 C 5.195312 -4.582031 5.785156 -4.234375 6.140625 -3.859375 C 6.503906 -3.484375 6.6875 -2.976562 6.6875 -2.34375 C 6.6875 -1.550781 6.398438 -0.929688 5.828125 -0.484375 C 5.253906 -0.046875 4.4375 0.171875 3.375 0.171875 Z M 3.375 0.171875 "/></g></g></g></svg>