<svg xmlns="http://www.w3.org/2000/svg" xmlns:xlink="http://www.w3.org/1999/xlink" width="720" zoomAndPan="magnify" viewBox="0 0 540 269.999989" height="360" preserveAspectRatio="xMidYMid meet" version="1.0"><defs><g/><clipPath id="9046e00e93"><path d="M 98.566406 44.335938 L 128.566406 44.335938 L 128.566406 74.335938 L 98.566406 74.335938 Z M 98.566406 44.335938 " clip-rule="nonzero"/></clipPath><clipPath id="0f62b7a609"><path d="M 493.703125 168.207031 L 521.453125 168.207031 L 521.453125 195.957031 L 493.703125 195.957031 Z M 493.703125 168.207031 " clip-rule="nonzero"/></clipPath><clipPath id="8c01bc1d30"><path d="M 82 37.039062 L 197.488281 37.039062 L 197.488281 81.289062 L 82 81.289062 Z M 82 37.039062 " clip-rule="nonzero"/></clipPath><clipPath id="092bf86ae1"><path d="M 488.558594 105 L 526.808594 105 L 526.808594 204.699219 L 488.558594 204.699219 Z M 488.558594 105 " clip-rule="nonzero"/></clipPath></defs><path stroke-linecap="square" transform="matrix(1.079973, 0, 0, 1.078846, 0.00677182, -5.405484)" fill="none" stroke-linejoin="miter" d="M 300.001255 59.999007 L 359.999866 59.999007 " stroke="#000000" stroke-width="2" stroke-opacity="1" stroke-miterlimit="4"/><path stroke-linecap="square" transform="matrix(1.079973, 0, 0, 1.078846, 0.00677182, -5.405484)" fill="none" stroke-linejoin="miter" d="M 300.001255 160.000949 L 300.001255 199.999554 " stroke="#000000" stroke-width="2" stroke-opacity="1" stroke-miterlimit="4"/><path stroke-linecap="square" transform="matrix(1.079973, 0, 0, 1.078846, 0.00677182, -5.405484)" fill="none" stroke-linejoin="miter" d="M 300.001255 59.999007 L 300.001255 110.001788 " stroke="#000000" stroke-width="2" stroke-opacity="1" stroke-miterlimit="4"/><path stroke-linecap="square" transform="matrix(1.079973, 0, 0, 1.078846, 0.00677182, -5.405484)" fill="none" stroke-linejoin="miter" d="M 250 59.999007 L 300.001255 59.999007 " stroke="#000000" stroke-width="2" stroke-opacity="1" stroke-miterlimit="4"/><path stroke-linecap="square" transform="matrix(1.079973, 0, 0, 1.078846, 0.00677182, -5.405484)" fill="none" stroke-linejoin="miter" d="M 49.998601 160.000949 L 49.998601 210.00011 " stroke="#000000" stroke-width="2" stroke-opacity="1" stroke-miterlimit="4"/><path stroke-linecap="square" transform="matrix(1.079973, 0, 0, 1.078846, 0.00677182, -5.405484)" fill="none" stroke-linejoin="miter" d="M 49.998601 59.999007 L 49.998601 119.998724 " stroke="#000000" stroke-width="2" stroke-opacity="1" stroke-miterlimit="4"/><path stroke-linecap="square" transform="matrix(1.079973, 0, 0, 1.078846, 0.00677182, -5.405484)" fill="none" stroke-linejoin="miter" d="M 469.999731 160.000949 L 469.999731 199.999554 " stroke="#000000" stroke-width="2" stroke-opacity="1" stroke-miterlimit="4"/><path stroke-linecap="square" transform="matrix(1.079973, 0, 0, 1.078846, 0.00677182, -5.405484)" fill="none" stroke-linejoin="miter" d="M 469.999731 59.999007 L 469.999731 110.001788 " stroke="#000000" stroke-width="2" stroke-opacity="1" stroke-miterlimit="4"/><path stroke-linecap="square" transform="matrix(1.079973, 0, 0, 1.078846, 0.00677182, -5.405484)" fill="none" stroke-linejoin="miter" d="M 359.999866 59.999007 L 469.999731 59.999007 " stroke="#000000" stroke-width="2" stroke-opacity="1" stroke-miterlimit="4"/><path stroke-linecap="square" transform="matrix(1.079973, 0, 0, 1.078846, 0.00677182, -5.405484)" fill="none" stroke-linejoin="miter" d="M 169.999441 59.999007 L 199.998746 59.999007 " stroke="#000000" stroke-width="2" stroke-opacity="1" stroke-miterlimit="4"/><path stroke-linecap="square" transform="matrix(1.079973, 0, 0, 1.078846, 0.00677182, -5.405484)" fill="none" stroke-linejoin="miter" d="M 49.998601 59.999007 L 120.001803 59.999007 " stroke="#000000" stroke-width="2" stroke-opacity="1" stroke-miterlimit="4"/><path stroke-linecap="square" transform="matrix(1.079973, 0, 0, 1.078846, 0.00677182, -5.405484)" fill="none" stroke-linejoin="miter" d="M 469.999731 199.999554 L 469.999731 199.999554 " stroke="#000000" stroke-width="2" stroke-opacity="1" stroke-miterlimit="4"/><path stroke-linecap="square" transform="matrix(1.079973, 0, 0, 1.078846, 0.00677182, -5.405484)" fill="none" stroke-linejoin="miter" d="M 469.999731 199.999554 L 469.999731 208.001447 " stroke="#000000" stroke-width="2" stroke-opacity="1" stroke-miterlimit="4"/><path stroke-linecap="square" transform="matrix(1.079973, 0, 0, 1.078846, 0.00677182, -5.405484)" fill="none" stroke-linejoin="miter" d="M 461.998952 208.001447 L 478.000511 208.001447 L 469.999731 215.99972 Z M 461.998952 208.001447 " stroke="#000000" stroke-width="2" stroke-opacity="1" stroke-miterlimit="4"/><path stroke-linecap="square" transform="matrix(1.079973, 0, 0, 1.078846, 0.00677182, -5.405484)" fill="none" stroke-linejoin="miter" d="M 300.001255 199.999554 L 300.001255 211.998773 " stroke="#000000" stroke-width="2" stroke-opacity="1" stroke-miterlimit="4"/><path stroke-linecap="square" transform="matrix(1.079973, 0, 0, 1.078846, 0.00677182, -5.405484)" fill="none" stroke-linejoin="miter" d="M 292.000475 211.998773 L 307.998417 211.998773 L 300.001255 220.000666 Z M 292.000475 211.998773 " stroke="#000000" stroke-width="2" stroke-opacity="1" stroke-miterlimit="4"/><path stroke-linecap="square" transform="matrix(1.079973, 0, 0, 1.078846, 0.00677182, -5.405484)" fill="none" stroke-linejoin="miter" d="M 49.998601 210.00011 L 49.998601 211.998773 " stroke="#000000" stroke-width="2" stroke-opacity="1" stroke-miterlimit="4"/><path stroke-linecap="square" transform="matrix(1.079973, 0, 0, 1.078846, 0.00677182, -5.405484)" fill="none" stroke-linejoin="miter" d="M 42.001438 211.998773 L 57.99938 211.998773 L 49.998601 220.000666 Z M 42.001438 211.998773 " stroke="#000000" stroke-width="2" stroke-opacity="1" stroke-miterlimit="4"/><path stroke-linecap="square" transform="matrix(1.079973, 0, 0, 1.078846, 0.00677182, -5.405484)" fill="none" stroke-linejoin="miter" d="M 300.001255 110.001788 L 300.001255 111.00112 " stroke="#000000" stroke-width="2" stroke-opacity="1" stroke-miterlimit="4"/><path stroke-linecap="square" transform="matrix(1.079973, 0, 0, 1.078846, 0.00677182, -5.405484)" fill="none" stroke-linejoin="miter" d="M 300.001255 159.001618 L 300.001255 160.000949 " stroke="#000000" stroke-width="2" stroke-opacity="1" stroke-miterlimit="4"/><path stroke-linecap="square" transform="matrix(1.079973, 0, 0, 1.078846, 0.00677182, -5.405484)" fill="none" stroke-linejoin="miter" d="M 300.001255 111.00112 C 300.525718 111.00112 301.046564 111.037328 301.560177 111.116984 C 302.077406 111.19302 302.576551 111.305264 303.061227 111.457336 C 303.545904 111.605788 304.008878 111.794068 304.442917 112.011314 C 304.880573 112.22856 305.285675 112.478392 305.658225 112.757191 C 306.027158 113.03599 306.359921 113.340135 306.652897 113.666004 C 306.942256 113.995494 307.188211 114.339466 307.390763 114.705164 C 307.593314 115.06724 307.745228 115.4438 307.846503 115.831222 C 307.947779 116.215023 307.998417 116.606066 307.998417 117.000729 C 307.998417 117.395393 307.947779 117.782815 307.846503 118.170237 C 307.745228 118.557659 307.593314 118.930598 307.390763 119.296295 C 307.188211 119.658372 306.942256 120.005965 306.652897 120.331834 C 306.359921 120.661324 306.027158 120.965469 305.658225 121.244268 C 305.285675 121.519446 304.880573 121.769279 304.442917 121.990145 C 304.008878 122.207391 303.545904 122.39205 303.061227 122.544123 C 302.576551 122.692574 302.077406 122.808439 301.560177 122.884475 C 301.046564 122.960511 300.525718 123.000339 300.001255 123.000339 M 300.001255 123.000339 C 300.525718 123.000339 301.046564 123.040168 301.560177 123.116204 C 302.077406 123.19224 302.576551 123.304484 303.061227 123.456556 C 303.545904 123.608628 304.008878 123.793287 304.442917 124.010533 C 304.880573 124.2314 305.285675 124.477612 305.658225 124.756411 C 306.027158 125.03521 306.359921 125.339354 306.652897 125.665223 C 306.942256 125.994713 307.188211 126.338686 307.390763 126.704383 C 307.593314 127.06646 307.745228 127.443019 307.846503 127.830441 C 307.947779 128.214243 307.998417 128.605285 307.998417 128.999949 C 307.998417 129.394612 307.947779 129.785655 307.846503 130.169456 C 307.745228 130.556878 307.593314 130.933438 307.390763 131.295515 C 307.188211 131.661212 306.942256 132.005185 306.652897 132.334674 C 306.359921 132.660543 306.027158 132.964688 305.658225 133.243487 C 305.285675 133.522286 304.880573 133.768498 304.442917 133.989365 C 304.008878 134.206611 303.545904 134.39127 303.061227 134.543342 C 302.576551 134.695414 302.077406 134.807658 301.560177 134.883694 C 301.046564 134.963351 300.525718 134.999558 300.001255 134.999558 M 300.001255 134.999558 C 300.525718 134.999558 301.046564 135.039387 301.560177 135.115423 C 302.077406 135.191459 302.576551 135.307324 303.061227 135.455775 C 303.545904 135.607847 304.008878 135.792506 304.442917 136.009752 C 304.880573 136.230619 305.285675 136.480452 305.658225 136.75563 C 306.027158 137.034429 306.359921 137.338573 306.652897 137.668063 C 306.942256 137.993932 307.188211 138.341526 307.390763 138.703602 C 307.593314 139.0693 307.745228 139.442239 307.846503 139.829661 C 307.947779 140.217083 307.998417 140.604505 307.998417 140.999168 C 307.998417 141.393832 307.947779 141.784874 307.846503 142.172296 C 307.745228 142.556098 307.593314 142.932657 307.390763 143.294734 C 307.188211 143.660431 306.942256 144.004404 306.652897 144.333894 C 306.359921 144.659763 306.027158 144.963907 305.658225 145.242706 C 305.285675 145.521505 304.880573 145.771338 304.442917 145.988584 C 304.008878 146.209451 303.545904 146.39411 303.061227 146.542561 C 302.576551 146.694633 302.077406 146.806877 301.560177 146.882913 C 301.046564 146.96257 300.525718 146.998778 300.001255 146.998778 M 300.001255 146.998778 C 300.525718 146.998778 301.046564 147.038606 301.560177 147.114642 C 302.077406 147.190678 302.576551 147.306543 303.061227 147.454994 C 303.545904 147.607066 304.008878 147.791726 304.442917 148.012592 C 304.880573 148.229838 305.285675 148.479671 305.658225 148.75847 C 306.027158 149.037269 306.359921 149.337793 306.652897 149.667282 C 306.942256 149.993151 307.188211 150.340745 307.390763 150.702822 C 307.593314 151.068519 307.745228 151.441458 307.846503 151.82888 C 307.947779 152.216302 307.998417 152.607345 307.998417 152.998387 C 307.998417 153.393051 307.947779 153.784094 307.846503 154.171516 C 307.745228 154.555317 307.593314 154.931877 307.390763 155.297574 C 307.188211 155.659651 306.942256 156.007244 306.652897 156.333113 C 306.359921 156.662603 306.027158 156.963126 305.658225 157.241925 C 305.285675 157.520724 304.880573 157.770557 304.442917 157.987803 C 304.008878 158.20867 303.545904 158.393329 303.061227 158.54178 C 302.576551 158.693853 302.077406 158.806096 301.560177 158.885753 C 301.046564 158.961789 300.525718 159.001618 300.001255 159.001618 " stroke="#000000" stroke-width="2" stroke-opacity="1" stroke-miterlimit="4"/><path stroke-linecap="square" transform="matrix(1.079973, 0, 0, 1.078846, 0.00677182, -5.405484)" fill="none" stroke-linejoin="miter" d="M 199.998746 59.999007 L 220.998984 59.999007 " stroke="#000000" stroke-width="2" stroke-opacity="1" stroke-miterlimit="4"/><path stroke-linecap="square" transform="matrix(1.079973, 0, 0, 1.078846, 0.00677182, -5.405484)" fill="none" stroke-linejoin="miter" d="M 228.999763 59.999007 L 250 59.999007 " stroke="#000000" stroke-width="2" stroke-opacity="1" stroke-miterlimit="4"/><path stroke-linecap="square" transform="matrix(1.079973, 0, 0, 1.078846, 0.00677182, -5.405484)" fill="none" stroke-linejoin="miter" d="M 220.998984 46.001125 L 220.998984 74.00051 " stroke="#000000" stroke-width="2" stroke-opacity="1" stroke-miterlimit="4"/><path stroke-linecap="square" transform="matrix(1.079973, 0, 0, 1.078846, 0.00677182, -5.405484)" fill="none" stroke-linejoin="miter" d="M 228.999763 46.001125 L 228.999763 74.00051 " stroke="#000000" stroke-width="2" stroke-opacity="1" stroke-miterlimit="4"/><path stroke-linecap="square" transform="matrix(1.079973, 0, 0, 1.078846, 0.00677182, -5.405484)" fill="none" stroke-linejoin="miter" d="M 120.001803 59.999007 L 125.000482 59.999007 " stroke="#000000" stroke-width="2" stroke-opacity="1" stroke-miterlimit="4"/><path stroke-linecap="square" transform="matrix(1.079973, 0, 0, 1.078846, 0.00677182, -5.405484)" fill="none" stroke-linejoin="miter" d="M 165.000762 59.999007 L 169.999441 59.999007 " stroke="#000000" stroke-width="2" stroke-opacity="1" stroke-miterlimit="4"/><path stroke-linecap="square" transform="matrix(1.079973, 0, 0, 1.078846, 0.00677182, -5.405484)" fill="none" stroke-linejoin="miter" d="M 125.000482 59.999007 L 127.000677 59.999007 L 129.999161 53.000066 L 135.999745 67.001569 L 142.00033 53.000066 L 148.000914 67.001569 L 154.001499 53.000066 L 159.998466 67.001569 L 163.000567 59.999007 L 165.000762 59.999007 " stroke="#000000" stroke-width="2" stroke-opacity="1" stroke-miterlimit="4"/><path stroke-linecap="square" transform="matrix(1.079973, 0, 0, 1.078846, 0.00677182, -5.405484)" fill="none" stroke-linejoin="miter" d="M 469.999731 110.001788 L 469.999731 114.998446 " stroke="#000000" stroke-width="2" stroke-opacity="1" stroke-miterlimit="4"/><path stroke-linecap="square" transform="matrix(1.079973, 0, 0, 1.078846, 0.00677182, -5.405484)" fill="none" stroke-linejoin="miter" d="M 469.999731 155.000671 L 469.999731 160.000949 " stroke="#000000" stroke-width="2" stroke-opacity="1" stroke-miterlimit="4"/><path stroke-linecap="square" transform="matrix(1.079973, 0, 0, 1.078846, 0.00677182, -5.405484)" fill="none" stroke-linejoin="miter" d="M 469.999731 114.998446 L 469.999731 117.000729 L 463.000858 119.998724 L 476.998605 125.998334 L 463.000858 132.001564 L 476.998605 138.001174 L 463.000858 144.000783 L 476.998605 150.000393 L 469.999731 152.998387 L 469.999731 155.000671 " stroke="#000000" stroke-width="2" stroke-opacity="1" stroke-miterlimit="4"/><path stroke-linecap="square" transform="matrix(1.079973, 0, 0, 1.078846, 0.00677182, -5.405484)" fill="none" stroke-linejoin="miter" d="M 49.998601 119.998724 L 49.998601 128.000617 " stroke="#000000" stroke-width="2" stroke-opacity="1" stroke-miterlimit="4"/><path stroke-linecap="butt" transform="matrix(1.079973, 0, 0, 1.078846, 0.00677182, -5.405484)" fill="none" stroke-linejoin="miter" d="M 61.99977 139.999837 C 61.99977 140.789164 61.923813 141.567628 61.768283 142.342472 C 61.616369 143.113696 61.388499 143.863194 61.088289 144.590968 C 60.784462 145.318742 60.415529 146.010309 59.977873 146.665667 C 59.540217 147.321026 59.041073 147.929315 58.484057 148.486913 C 57.92704 149.04089 57.323003 149.540556 56.668328 149.978668 C 56.010036 150.416781 55.319191 150.786099 54.592177 151.086623 C 53.865162 151.387146 53.112828 151.615255 52.34241 151.770948 C 51.568374 151.92302 50.787104 151.999056 49.998601 151.999056 C 49.213714 151.999056 48.432445 151.92302 47.658409 151.770948 C 46.884373 151.615255 46.135657 151.387146 45.408642 151.086623 C 44.681627 150.786099 43.987165 150.416781 43.33249 149.978668 C 42.677815 149.540556 42.070161 149.04089 41.513145 148.486913 C 40.956129 147.929315 40.460601 147.321026 40.022945 146.665667 C 39.58529 146.010309 39.216357 145.318742 38.91253 144.590968 C 38.61232 143.863194 38.38445 143.113696 38.228919 142.342472 C 38.077005 141.567628 38.001049 140.789164 38.001049 139.999837 C 38.001049 139.21051 38.077005 138.432045 38.228919 137.657201 C 38.38445 136.885978 38.61232 136.136479 38.91253 135.408705 C 39.216357 134.680931 39.58529 133.989365 40.022945 133.334006 C 40.460601 132.678647 40.956129 132.070359 41.513145 131.516381 C 42.070161 130.958783 42.677815 130.459118 43.33249 130.021005 C 43.987165 129.582892 44.681627 129.213574 45.408642 128.91305 C 46.135657 128.612527 46.884373 128.384419 47.658409 128.232346 C 48.432445 128.076653 49.213714 128.000617 49.998601 128.000617 C 50.787104 128.000617 51.568374 128.076653 52.34241 128.232346 C 53.112828 128.384419 53.865162 128.612527 54.592177 128.91305 C 55.319191 129.213574 56.010036 129.582892 56.668328 130.021005 C 57.323003 130.459118 57.92704 130.958783 58.484057 131.516381 C 59.041073 132.070359 59.540217 132.678647 59.977873 133.334006 C 60.415529 133.989365 60.784462 134.680931 61.088289 135.408705 C 61.388499 136.136479 61.616369 136.885978 61.768283 137.657201 C 61.923813 138.432045 61.99977 139.21051 61.99977 139.999837 Z M 61.99977 139.999837 " stroke="#000000" stroke-width="2" stroke-opacity="1" stroke-miterlimit="4"/><path stroke-linecap="square" transform="matrix(1.079973, 0, 0, 1.078846, 0.00677182, -5.405484)" fill="none" stroke-linejoin="miter" d="M 49.998601 151.999056 L 49.998601 160.000949 " stroke="#000000" stroke-width="2" stroke-opacity="1" stroke-miterlimit="4"/><path stroke-linecap="square" transform="matrix(1.079973, 0, 0, 1.078846, 0.00677182, -5.405484)" fill="none" stroke-linejoin="miter" d="M 42.001438 139.999837 C 42.001438 139.739141 42.026757 139.478446 42.077395 139.221372 C 42.128033 138.960677 42.20399 138.710844 42.305265 138.468252 C 42.406541 138.225661 42.529519 137.997553 42.674198 137.776686 C 42.818878 137.55944 42.985259 137.356677 43.173343 137.172018 C 43.357809 136.987359 43.560361 136.820804 43.77738 136.672352 C 43.994399 136.527522 44.225887 136.404416 44.468225 136.303034 C 44.710563 136.205274 44.963752 136.129237 45.220558 136.078547 C 45.477365 136.024235 45.737788 135.99889 45.998211 135.99889 C 46.262251 135.99889 46.522674 136.024235 46.779481 136.078547 C 47.036287 136.129237 47.289476 136.205274 47.531814 136.303034 C 47.774153 136.404416 48.00564 136.527522 48.222659 136.672352 C 48.439679 136.820804 48.64223 136.987359 48.826696 137.172018 C 49.01478 137.356677 49.181161 137.55944 49.325841 137.776686 C 49.47052 137.997553 49.593498 138.225661 49.694774 138.468252 C 49.796049 138.710844 49.872006 138.960677 49.922644 139.221372 C 49.973282 139.478446 49.998601 139.739141 49.998601 139.999837 C 49.998601 140.264153 50.02392 140.521227 50.078175 140.781922 C 50.128812 141.038996 50.204769 141.288829 50.306045 141.531421 C 50.403704 141.774012 50.526681 142.00212 50.674978 142.222987 C 50.819657 142.440233 50.986039 142.642996 51.170505 142.827655 C 51.358589 143.015935 51.56114 143.178869 51.778159 143.327321 C 51.995179 143.472151 52.226666 143.595257 52.469004 143.696639 C 52.711342 143.7944 52.960915 143.870436 53.221338 143.924747 C 53.478144 143.975438 53.738567 144.000783 53.99899 144.000783 C 54.263031 144.000783 54.523454 143.975438 54.78026 143.924747 C 55.037066 143.870436 55.286639 143.7944 55.528977 143.696639 C 55.774932 143.595257 56.002802 143.472151 56.223439 143.327321 C 56.440458 143.178869 56.643009 143.015935 56.827476 142.827655 C 57.015559 142.642996 57.178324 142.440233 57.32662 142.222987 C 57.4713 142.00212 57.594277 141.774012 57.695553 141.531421 C 57.796829 141.288829 57.872786 141.038996 57.923423 140.781922 C 57.974061 140.521227 57.99938 140.264153 57.99938 139.999837 " stroke="#000000" stroke-width="2" stroke-opacity="1" stroke-miterlimit="4"/><path stroke-linecap="butt" transform="matrix(1.079973, 0, 0, 1.078846, 0.00677182, -5.405484)" fill-opacity="1" fill="#000000" fill-rule="nonzero" stroke-linejoin="miter" d="M 302.001449 59.999007 C 302.001449 60.266943 301.950812 60.520397 301.849536 60.766609 C 301.744643 61.009201 301.599964 61.226447 301.415497 61.414726 C 301.227414 61.603006 301.010394 61.747837 300.764439 61.849218 C 300.522101 61.9506 300.265295 62.00129 300.001255 62.00129 C 299.733597 62.00129 299.480408 61.9506 299.234453 61.849218 C 298.988498 61.747837 298.775095 61.603006 298.587012 61.414726 C 298.398928 61.226447 298.254249 61.009201 298.152973 60.766609 C 298.051698 60.520397 298.00106 60.266943 298.00106 59.999007 C 298.00106 59.734691 298.051698 59.481237 298.152973 59.235025 C 298.254249 58.988813 298.398928 58.771567 298.587012 58.586908 C 298.775095 58.398628 298.988498 58.253797 299.234453 58.152416 C 299.480408 58.051035 299.733597 58.000344 300.001255 58.000344 C 300.265295 58.000344 300.522101 58.051035 300.764439 58.152416 C 301.010394 58.253797 301.227414 58.398628 301.415497 58.586908 C 301.599964 58.771567 301.744643 58.988813 301.849536 59.235025 C 301.950812 59.481237 302.001449 59.734691 302.001449 59.999007 Z M 302.001449 59.999007 " stroke="#000000" stroke-width="2" stroke-opacity="1" stroke-miterlimit="4"/><g clip-path="url(#9046e00e93)"><path fill="#000000" d="M 102.140625 44.335938 C 100.179688 44.335938 98.566406 45.945312 98.566406 47.90625 L 98.566406 70.761719 C 98.566406 72.722656 100.179688 74.335938 102.140625 74.335938 L 124.996094 74.335938 C 126.957031 74.335938 128.566406 72.722656 128.566406 70.761719 L 128.566406 47.90625 C 128.566406 45.945312 126.957031 44.335938 124.996094 44.335938 Z M 102.140625 45.761719 L 124.996094 45.761719 C 126.179688 45.761719 127.140625 46.722656 127.140625 47.90625 L 127.140625 70.761719 C 127.140625 71.945312 126.179688 72.90625 124.996094 72.90625 L 102.140625 72.90625 C 100.957031 72.90625 99.996094 71.945312 99.996094 70.761719 L 99.996094 47.90625 C 99.996094 46.722656 100.957031 45.761719 102.140625 45.761719 Z M 107.644531 52.402344 L 106.632812 53.410156 L 112.558594 59.335938 L 106.632812 65.257812 L 107.644531 66.269531 L 113.566406 60.34375 L 119.492188 66.269531 L 120.5 65.257812 L 114.578125 59.335938 L 120.5 53.410156 L 119.492188 52.402344 L 113.566406 58.324219 Z M 107.644531 52.402344 " fill-opacity="1" fill-rule="nonzero"/></g><g clip-path="url(#0f62b7a609)"><path fill="#000000" d="M 497.007812 168.207031 C 495.195312 168.207031 493.703125 169.699219 493.703125 171.511719 L 493.703125 192.65625 C 493.703125 194.46875 495.195312 195.957031 497.007812 195.957031 L 518.152344 195.957031 C 519.964844 195.957031 521.453125 194.46875 521.453125 192.65625 L 521.453125 171.511719 C 521.453125 169.699219 519.964844 168.207031 518.152344 168.207031 Z M 497.007812 169.53125 L 518.152344 169.53125 C 519.242188 169.53125 520.132812 170.417969 520.132812 171.511719 L 520.132812 192.65625 C 520.132812 193.75 519.242188 194.636719 518.152344 194.636719 L 497.007812 194.636719 C 495.914062 194.636719 495.027344 193.75 495.027344 192.65625 L 495.027344 171.511719 C 495.027344 170.417969 495.914062 169.53125 497.007812 169.53125 Z M 502.101562 175.671875 L 501.164062 176.605469 L 506.644531 182.082031 L 501.164062 187.5625 L 502.101562 188.496094 L 507.578125 183.019531 L 513.058594 188.496094 L 513.992188 187.5625 L 508.511719 182.082031 L 513.992188 176.605469 L 513.058594 175.671875 L 507.578125 181.148438 Z M 502.101562 175.671875 " fill-opacity="1" fill-rule="nonzero"/></g><g clip-path="url(#8c01bc1d30)"><path fill="#000000" d="M 184.957031 81.289062 L 180.824219 81.289062 C 180.671875 81.289062 180.542969 81.234375 180.433594 81.128906 C 180.328125 81.023438 180.273438 80.894531 180.273438 80.742188 C 180.273438 80.589844 180.328125 80.460938 180.433594 80.355469 C 180.542969 80.25 180.671875 80.195312 180.824219 80.195312 L 184.957031 80.195312 C 185.105469 80.195312 185.234375 80.25 185.34375 80.355469 C 185.449219 80.460938 185.503906 80.589844 185.503906 80.742188 C 185.503906 80.894531 185.449219 81.023438 185.34375 81.128906 C 185.234375 81.234375 185.105469 81.289062 184.957031 81.289062 Z M 176.75 81.289062 L 172.652344 81.289062 C 172.503906 81.289062 172.375 81.234375 172.265625 81.128906 C 172.160156 81.023438 172.105469 80.894531 172.105469 80.742188 C 172.105469 80.589844 172.160156 80.460938 172.265625 80.355469 C 172.375 80.25 172.503906 80.195312 172.652344 80.195312 L 176.738281 80.195312 C 176.890625 80.195312 177.019531 80.25 177.125 80.355469 C 177.230469 80.460938 177.285156 80.589844 177.285156 80.742188 C 177.285156 80.894531 177.230469 81.023438 177.125 81.128906 C 177.019531 81.234375 176.890625 81.289062 176.738281 81.289062 Z M 168.578125 81.289062 L 164.484375 81.289062 C 164.332031 81.289062 164.203125 81.234375 164.097656 81.128906 C 163.992188 81.023438 163.9375 80.894531 163.9375 80.742188 C 163.9375 80.589844 163.992188 80.460938 164.097656 80.355469 C 164.203125 80.25 164.332031 80.195312 164.484375 80.195312 L 168.570312 80.195312 C 168.71875 80.195312 168.847656 80.25 168.957031 80.355469 C 169.0625 80.460938 169.117188 80.589844 169.117188 80.742188 C 169.117188 80.894531 169.0625 81.023438 168.957031 81.128906 C 168.847656 81.234375 168.71875 81.289062 168.570312 81.289062 Z M 160.410156 81.289062 L 156.316406 81.289062 C 156.164062 81.289062 156.035156 81.234375 155.929688 81.128906 C 155.820312 81.023438 155.769531 80.894531 155.769531 80.742188 C 155.769531 80.589844 155.820312 80.460938 155.929688 80.355469 C 156.035156 80.25 156.164062 80.195312 156.316406 80.195312 L 160.398438 80.195312 C 160.550781 80.195312 160.679688 80.25 160.785156 80.355469 C 160.894531 80.460938 160.949219 80.589844 160.949219 80.742188 C 160.949219 80.894531 160.894531 81.023438 160.785156 81.128906 C 160.679688 81.234375 160.550781 81.289062 160.398438 81.289062 Z M 152.242188 81.289062 L 148.148438 81.289062 C 147.996094 81.289062 147.867188 81.234375 147.761719 81.128906 C 147.652344 81.023438 147.601562 80.894531 147.601562 80.742188 C 147.601562 80.589844 147.652344 80.460938 147.761719 80.355469 C 147.867188 80.25 147.996094 80.195312 148.148438 80.195312 L 152.230469 80.195312 C 152.382812 80.195312 152.511719 80.25 152.617188 80.355469 C 152.726562 80.460938 152.777344 80.589844 152.777344 80.742188 C 152.777344 80.894531 152.726562 81.023438 152.617188 81.128906 C 152.511719 81.234375 152.382812 81.289062 152.230469 81.289062 Z M 144.074219 81.289062 L 139.976562 81.289062 C 139.828125 81.289062 139.699219 81.234375 139.589844 81.128906 C 139.484375 81.023438 139.429688 80.894531 139.429688 80.742188 C 139.429688 80.589844 139.484375 80.460938 139.589844 80.355469 C 139.699219 80.25 139.828125 80.195312 139.976562 80.195312 L 144.0625 80.195312 C 144.214844 80.195312 144.34375 80.25 144.449219 80.355469 C 144.554688 80.460938 144.609375 80.589844 144.609375 80.742188 C 144.609375 80.894531 144.554688 81.023438 144.449219 81.128906 C 144.34375 81.234375 144.214844 81.289062 144.0625 81.289062 Z M 135.894531 81.289062 L 131.808594 81.289062 C 131.65625 81.289062 131.527344 81.234375 131.421875 81.128906 C 131.316406 81.023438 131.261719 80.894531 131.261719 80.742188 C 131.261719 80.589844 131.316406 80.460938 131.421875 80.355469 C 131.527344 80.25 131.65625 80.195312 131.808594 80.195312 L 135.894531 80.195312 C 136.042969 80.195312 136.171875 80.25 136.28125 80.355469 C 136.386719 80.460938 136.441406 80.589844 136.441406 80.742188 C 136.441406 80.894531 136.386719 81.023438 136.28125 81.128906 C 136.171875 81.234375 136.042969 81.289062 135.894531 81.289062 Z M 127.726562 81.289062 L 123.640625 81.289062 C 123.488281 81.289062 123.359375 81.234375 123.253906 81.128906 C 123.144531 81.023438 123.09375 80.894531 123.09375 80.742188 C 123.09375 80.589844 123.144531 80.460938 123.253906 80.355469 C 123.359375 80.25 123.488281 80.195312 123.640625 80.195312 L 127.726562 80.195312 C 127.875 80.195312 128.003906 80.25 128.113281 80.355469 C 128.21875 80.460938 128.273438 80.589844 128.273438 80.742188 C 128.273438 80.894531 128.21875 81.023438 128.113281 81.128906 C 128.003906 81.234375 127.875 81.289062 127.726562 81.289062 Z M 119.554688 81.289062 L 115.472656 81.289062 C 115.320312 81.289062 115.191406 81.234375 115.085938 81.128906 C 114.976562 81.023438 114.925781 80.894531 114.925781 80.742188 C 114.925781 80.589844 114.976562 80.460938 115.085938 80.355469 C 115.191406 80.25 115.320312 80.195312 115.472656 80.195312 L 119.554688 80.195312 C 119.707031 80.195312 119.835938 80.25 119.941406 80.355469 C 120.050781 80.460938 120.101562 80.589844 120.101562 80.742188 C 120.101562 80.894531 120.050781 81.023438 119.941406 81.128906 C 119.835938 81.234375 119.707031 81.289062 119.554688 81.289062 Z M 111.386719 81.289062 L 107.300781 81.289062 C 107.152344 81.289062 107.023438 81.234375 106.914062 81.128906 C 106.808594 81.023438 106.753906 80.894531 106.753906 80.742188 C 106.753906 80.589844 106.808594 80.460938 106.914062 80.355469 C 107.023438 80.25 107.152344 80.195312 107.300781 80.195312 L 111.386719 80.195312 C 111.539062 80.195312 111.667969 80.25 111.773438 80.355469 C 111.878906 80.460938 111.933594 80.589844 111.933594 80.742188 C 111.933594 80.894531 111.878906 81.023438 111.773438 81.128906 C 111.667969 81.234375 111.539062 81.289062 111.386719 81.289062 Z M 103.21875 81.289062 L 99.128906 81.289062 C 98.980469 81.289062 98.851562 81.234375 98.742188 81.128906 C 98.636719 81.023438 98.582031 80.894531 98.582031 80.742188 C 98.582031 80.589844 98.636719 80.460938 98.742188 80.355469 C 98.851562 80.25 98.980469 80.195312 99.128906 80.195312 L 103.21875 80.195312 C 103.367188 80.195312 103.496094 80.25 103.605469 80.355469 C 103.710938 80.460938 103.765625 80.589844 103.765625 80.742188 C 103.765625 80.894531 103.710938 81.023438 103.605469 81.128906 C 103.496094 81.234375 103.367188 81.289062 103.21875 81.289062 Z M 95.046875 81.289062 L 94.539062 81.289062 C 93.285156 81.289062 92.054688 81.101562 90.855469 80.726562 C 90.703125 80.691406 90.585938 80.605469 90.507812 80.464844 C 90.429688 80.328125 90.414062 80.183594 90.460938 80.035156 C 90.507812 79.882812 90.605469 79.773438 90.746094 79.707031 C 90.886719 79.636719 91.035156 79.632812 91.179688 79.6875 C 92.273438 80.027344 93.394531 80.195312 94.539062 80.195312 L 95.046875 80.195312 C 95.199219 80.195312 95.328125 80.25 95.433594 80.355469 C 95.539062 80.460938 95.59375 80.589844 95.59375 80.742188 C 95.59375 80.894531 95.539062 81.023438 95.433594 81.128906 C 95.328125 81.234375 95.199219 81.289062 95.046875 81.289062 Z M 188.964844 80.566406 C 188.832031 80.566406 188.714844 80.523438 188.613281 80.4375 C 188.511719 80.355469 188.453125 80.246094 188.429688 80.117188 C 188.40625 79.984375 188.425781 79.863281 188.492188 79.746094 C 188.558594 79.632812 188.65625 79.554688 188.78125 79.507812 C 190.011719 79.058594 191.128906 78.414062 192.132812 77.574219 C 192.25 77.476562 192.382812 77.433594 192.535156 77.449219 C 192.683594 77.460938 192.808594 77.527344 192.90625 77.640625 C 193.003906 77.757812 193.046875 77.890625 193.03125 78.042969 C 193.019531 78.191406 192.953125 78.316406 192.835938 78.414062 C 191.734375 79.335938 190.507812 80.042969 189.15625 80.535156 C 189.09375 80.554688 189.03125 80.566406 188.964844 80.566406 Z M 87.40625 78.882812 C 87.285156 78.886719 87.175781 78.847656 87.078125 78.777344 C 85.933594 77.90625 84.972656 76.871094 84.1875 75.667969 C 84.105469 75.539062 84.082031 75.402344 84.113281 75.253906 C 84.144531 75.109375 84.222656 74.992188 84.351562 74.910156 C 84.476562 74.828125 84.613281 74.804688 84.761719 74.835938 C 84.910156 74.867188 85.023438 74.945312 85.109375 75.070312 C 85.820312 76.167969 86.699219 77.113281 87.746094 77.902344 C 87.953125 78.0625 88.015625 78.265625 87.929688 78.511719 C 87.847656 78.761719 87.675781 78.882812 87.414062 78.882812 Z M 195.101562 75.441406 C 195.003906 75.441406 194.910156 75.417969 194.828125 75.371094 C 194.695312 75.292969 194.609375 75.183594 194.574219 75.035156 C 194.535156 74.890625 194.554688 74.75 194.628906 74.621094 C 195.292969 73.492188 195.746094 72.285156 195.980469 70.996094 C 196.007812 70.847656 196.085938 70.730469 196.207031 70.644531 C 196.332031 70.558594 196.46875 70.53125 196.617188 70.554688 C 196.765625 70.582031 196.882812 70.660156 196.972656 70.785156 C 197.058594 70.90625 197.085938 71.042969 197.058594 71.191406 C 196.800781 72.605469 196.304688 73.933594 195.574219 75.171875 C 195.46875 75.355469 195.3125 75.445312 195.101562 75.441406 Z M 83.042969 72.183594 C 82.914062 72.183594 82.800781 72.144531 82.703125 72.066406 C 82.605469 71.988281 82.539062 71.886719 82.511719 71.765625 C 82.292969 70.835938 82.183594 69.898438 82.1875 68.945312 L 82.1875 67.578125 C 82.1875 67.429688 82.238281 67.300781 82.347656 67.191406 C 82.453125 67.085938 82.582031 67.03125 82.734375 67.03125 C 82.882812 67.03125 83.011719 67.085938 83.121094 67.191406 C 83.226562 67.300781 83.28125 67.429688 83.28125 67.578125 L 83.28125 68.945312 C 83.28125 69.8125 83.378906 70.667969 83.574219 71.515625 C 83.609375 71.660156 83.585938 71.800781 83.507812 71.925781 C 83.429688 72.054688 83.316406 72.136719 83.167969 72.171875 C 83.125 72.179688 83.085938 72.183594 83.042969 72.183594 Z M 196.714844 67.578125 C 196.5625 67.578125 196.433594 67.523438 196.328125 67.417969 C 196.21875 67.308594 196.167969 67.179688 196.167969 67.03125 L 196.167969 62.953125 C 196.167969 62.800781 196.21875 62.671875 196.328125 62.566406 C 196.433594 62.460938 196.5625 62.40625 196.714844 62.40625 C 196.867188 62.40625 196.996094 62.460938 197.101562 62.566406 C 197.207031 62.671875 197.261719 62.800781 197.261719 62.953125 L 197.261719 67.03125 C 197.261719 67.179688 197.207031 67.308594 197.101562 67.417969 C 196.996094 67.523438 196.867188 67.578125 196.714844 67.578125 Z M 82.734375 64.054688 C 82.582031 64.054688 82.453125 64 82.347656 63.894531 C 82.238281 63.785156 82.1875 63.65625 82.1875 63.507812 L 82.1875 59.4375 C 82.1875 59.285156 82.238281 59.15625 82.347656 59.050781 C 82.453125 58.945312 82.582031 58.890625 82.734375 58.890625 C 82.882812 58.890625 83.011719 58.945312 83.121094 59.050781 C 83.226562 59.15625 83.28125 59.285156 83.28125 59.4375 L 83.28125 63.507812 C 83.28125 63.65625 83.226562 63.785156 83.121094 63.894531 C 83.011719 64 82.882812 64.054688 82.734375 64.054688 Z M 196.714844 59.410156 C 196.5625 59.410156 196.433594 59.355469 196.328125 59.25 C 196.21875 59.144531 196.167969 59.015625 196.167969 58.863281 L 196.167969 54.792969 C 196.167969 54.640625 196.21875 54.511719 196.328125 54.40625 C 196.433594 54.300781 196.5625 54.246094 196.714844 54.246094 C 196.867188 54.246094 196.996094 54.300781 197.101562 54.40625 C 197.207031 54.511719 197.261719 54.640625 197.261719 54.792969 L 197.261719 58.871094 C 197.261719 59.023438 197.210938 59.152344 197.101562 59.257812 C 196.996094 59.367188 196.867188 59.421875 196.714844 59.421875 Z M 82.734375 55.886719 C 82.582031 55.886719 82.453125 55.832031 82.347656 55.726562 C 82.238281 55.617188 82.1875 55.488281 82.1875 55.339844 L 82.1875 51.273438 C 82.1875 51.121094 82.238281 50.992188 82.347656 50.886719 C 82.453125 50.777344 82.582031 50.726562 82.734375 50.726562 C 82.882812 50.726562 83.011719 50.777344 83.121094 50.886719 C 83.226562 50.992188 83.28125 51.121094 83.28125 51.273438 L 83.28125 55.339844 C 83.28125 55.488281 83.226562 55.617188 83.121094 55.726562 C 83.011719 55.832031 82.882812 55.886719 82.734375 55.886719 Z M 196.714844 51.242188 C 196.5625 51.242188 196.433594 51.1875 196.328125 51.082031 C 196.21875 50.976562 196.167969 50.847656 196.167969 50.695312 L 196.167969 49.359375 C 196.167969 48.484375 196.066406 47.621094 195.867188 46.769531 C 195.824219 46.617188 195.84375 46.476562 195.921875 46.34375 C 196 46.210938 196.117188 46.125 196.269531 46.089844 C 196.417969 46.054688 196.558594 46.078125 196.691406 46.164062 C 196.820312 46.246094 196.898438 46.363281 196.929688 46.515625 C 197.152344 47.453125 197.261719 48.398438 197.261719 49.359375 L 197.261719 50.695312 C 197.269531 50.851562 197.21875 50.984375 197.109375 51.097656 C 197 51.207031 196.871094 51.265625 196.714844 51.265625 Z M 82.933594 47.753906 C 82.902344 47.757812 82.867188 47.757812 82.835938 47.753906 C 82.683594 47.726562 82.566406 47.648438 82.480469 47.523438 C 82.398438 47.398438 82.367188 47.261719 82.394531 47.113281 C 82.660156 45.703125 83.15625 44.378906 83.886719 43.140625 C 83.96875 43.023438 84.078125 42.949219 84.21875 42.917969 C 84.355469 42.886719 84.488281 42.90625 84.613281 42.976562 C 84.734375 43.050781 84.820312 43.152344 84.859375 43.289062 C 84.902344 43.425781 84.894531 43.558594 84.832031 43.6875 C 84.164062 44.8125 83.707031 46.019531 83.464844 47.308594 C 83.4375 47.4375 83.378906 47.542969 83.277344 47.625 C 83.179688 47.707031 83.066406 47.75 82.933594 47.753906 Z M 194.792969 43.480469 C 194.597656 43.480469 194.445312 43.398438 194.335938 43.234375 C 193.621094 42.140625 192.746094 41.199219 191.703125 40.410156 C 191.582031 40.316406 191.511719 40.199219 191.492188 40.046875 C 191.46875 39.898438 191.503906 39.761719 191.597656 39.644531 C 191.6875 39.523438 191.808594 39.453125 191.957031 39.429688 C 192.109375 39.410156 192.242188 39.445312 192.363281 39.539062 C 193.511719 40.402344 194.476562 41.4375 195.257812 42.636719 C 195.339844 42.765625 195.367188 42.902344 195.335938 43.050781 C 195.304688 43.195312 195.226562 43.3125 195.101562 43.394531 C 195.007812 43.453125 194.90625 43.484375 194.792969 43.480469 Z M 86.992188 40.863281 C 86.738281 40.859375 86.570312 40.738281 86.488281 40.5 C 86.402344 40.261719 86.457031 40.0625 86.648438 39.898438 C 87.753906 38.976562 88.984375 38.273438 90.335938 37.785156 C 90.476562 37.734375 90.617188 37.738281 90.753906 37.804688 C 90.890625 37.867188 90.984375 37.96875 91.035156 38.109375 C 91.085938 38.253906 91.082031 38.390625 91.019531 38.527344 C 90.953125 38.664062 90.851562 38.757812 90.710938 38.8125 C 89.476562 39.25 88.359375 39.890625 87.351562 40.722656 C 87.25 40.8125 87.128906 40.859375 86.992188 40.863281 Z M 188.417969 38.675781 C 188.363281 38.675781 188.308594 38.667969 188.253906 38.652344 C 187.164062 38.308594 186.050781 38.136719 184.90625 38.132812 L 184.359375 38.132812 C 184.207031 38.132812 184.078125 38.078125 183.972656 37.972656 C 183.867188 37.863281 183.8125 37.734375 183.8125 37.585938 C 183.8125 37.433594 183.867188 37.304688 183.972656 37.199219 C 184.078125 37.089844 184.207031 37.039062 184.359375 37.039062 L 184.90625 37.039062 C 186.15625 37.035156 187.375 37.21875 188.566406 37.585938 C 188.71875 37.605469 188.839844 37.675781 188.933594 37.796875 C 189.023438 37.917969 189.058594 38.054688 189.039062 38.203125 C 189.019531 38.355469 188.949219 38.476562 188.828125 38.570312 C 188.707031 38.660156 188.570312 38.699219 188.417969 38.675781 Z M 180.289062 38.132812 L 176.203125 38.132812 C 176.054688 38.132812 175.925781 38.078125 175.816406 37.972656 C 175.710938 37.863281 175.65625 37.734375 175.65625 37.585938 C 175.65625 37.433594 175.710938 37.304688 175.816406 37.199219 C 175.925781 37.089844 176.054688 37.039062 176.203125 37.039062 L 180.289062 37.039062 C 180.441406 37.039062 180.570312 37.089844 180.675781 37.199219 C 180.78125 37.304688 180.835938 37.433594 180.835938 37.585938 C 180.835938 37.734375 180.78125 37.863281 180.675781 37.972656 C 180.570312 38.078125 180.441406 38.132812 180.289062 38.132812 Z M 172.121094 38.132812 L 168.035156 38.132812 C 167.882812 38.132812 167.753906 38.078125 167.648438 37.972656 C 167.542969 37.863281 167.488281 37.734375 167.488281 37.585938 C 167.488281 37.433594 167.542969 37.304688 167.648438 37.199219 C 167.753906 37.089844 167.882812 37.039062 168.035156 37.039062 L 172.121094 37.039062 C 172.269531 37.039062 172.398438 37.089844 172.507812 37.199219 C 172.613281 37.304688 172.667969 37.433594 172.667969 37.585938 C 172.667969 37.734375 172.613281 37.863281 172.507812 37.972656 C 172.398438 38.078125 172.269531 38.132812 172.121094 38.132812 Z M 163.949219 38.132812 L 159.867188 38.132812 C 159.714844 38.132812 159.585938 38.078125 159.480469 37.972656 C 159.371094 37.863281 159.320312 37.734375 159.320312 37.585938 C 159.320312 37.433594 159.371094 37.304688 159.480469 37.199219 C 159.585938 37.089844 159.714844 37.039062 159.867188 37.039062 L 163.949219 37.039062 C 164.101562 37.039062 164.230469 37.089844 164.339844 37.199219 C 164.445312 37.304688 164.5 37.433594 164.5 37.585938 C 164.5 37.734375 164.445312 37.863281 164.339844 37.972656 C 164.230469 38.078125 164.101562 38.132812 163.949219 38.132812 Z M 155.78125 38.132812 L 151.699219 38.132812 C 151.546875 38.132812 151.417969 38.078125 151.3125 37.972656 C 151.203125 37.863281 151.152344 37.734375 151.152344 37.585938 C 151.152344 37.433594 151.203125 37.304688 151.3125 37.199219 C 151.417969 37.089844 151.546875 37.039062 151.699219 37.039062 L 155.78125 37.039062 C 155.933594 37.039062 156.0625 37.089844 156.167969 37.199219 C 156.277344 37.304688 156.328125 37.433594 156.328125 37.585938 C 156.328125 37.734375 156.277344 37.863281 156.167969 37.972656 C 156.0625 38.078125 155.933594 38.132812 155.78125 38.132812 Z M 147.613281 38.132812 L 143.527344 38.132812 C 143.378906 38.132812 143.25 38.078125 143.140625 37.972656 C 143.035156 37.863281 142.980469 37.734375 142.980469 37.585938 C 142.980469 37.433594 143.035156 37.304688 143.140625 37.199219 C 143.25 37.089844 143.378906 37.039062 143.527344 37.039062 L 147.613281 37.039062 C 147.765625 37.039062 147.894531 37.089844 148 37.199219 C 148.105469 37.304688 148.160156 37.433594 148.160156 37.585938 C 148.160156 37.734375 148.105469 37.863281 148 37.972656 C 147.894531 38.078125 147.765625 38.132812 147.613281 38.132812 Z M 139.449219 38.132812 L 135.359375 38.132812 C 135.207031 38.132812 135.078125 38.078125 134.972656 37.972656 C 134.867188 37.863281 134.8125 37.734375 134.8125 37.585938 C 134.8125 37.433594 134.867188 37.304688 134.972656 37.199219 C 135.078125 37.089844 135.207031 37.039062 135.359375 37.039062 L 139.449219 37.039062 C 139.601562 37.039062 139.730469 37.089844 139.835938 37.199219 C 139.945312 37.304688 139.996094 37.433594 139.996094 37.585938 C 139.996094 37.734375 139.945312 37.863281 139.835938 37.972656 C 139.730469 38.078125 139.601562 38.132812 139.449219 38.132812 Z M 131.28125 38.132812 L 127.191406 38.132812 C 127.039062 38.132812 126.910156 38.078125 126.804688 37.972656 C 126.699219 37.863281 126.644531 37.734375 126.644531 37.585938 C 126.644531 37.433594 126.699219 37.304688 126.804688 37.199219 C 126.910156 37.089844 127.039062 37.039062 127.191406 37.039062 L 131.277344 37.039062 C 131.425781 37.039062 131.554688 37.089844 131.664062 37.199219 C 131.769531 37.304688 131.824219 37.433594 131.824219 37.585938 C 131.824219 37.734375 131.769531 37.863281 131.664062 37.972656 C 131.554688 38.078125 131.425781 38.132812 131.277344 38.132812 Z M 123.113281 38.132812 L 119.023438 38.132812 C 118.871094 38.132812 118.742188 38.078125 118.636719 37.972656 C 118.527344 37.863281 118.476562 37.734375 118.476562 37.585938 C 118.476562 37.433594 118.527344 37.304688 118.636719 37.199219 C 118.742188 37.089844 118.871094 37.039062 119.023438 37.039062 L 123.105469 37.039062 C 123.257812 37.039062 123.386719 37.089844 123.492188 37.199219 C 123.601562 37.304688 123.652344 37.433594 123.652344 37.585938 C 123.652344 37.734375 123.601562 37.863281 123.492188 37.972656 C 123.386719 38.078125 123.257812 38.132812 123.105469 38.132812 Z M 114.941406 38.132812 L 110.851562 38.132812 C 110.703125 38.132812 110.574219 38.078125 110.464844 37.972656 C 110.359375 37.863281 110.304688 37.734375 110.304688 37.585938 C 110.304688 37.433594 110.359375 37.304688 110.464844 37.199219 C 110.574219 37.089844 110.703125 37.039062 110.851562 37.039062 L 114.9375 37.039062 C 115.089844 37.039062 115.21875 37.089844 115.324219 37.199219 C 115.429688 37.304688 115.484375 37.433594 115.484375 37.585938 C 115.484375 37.734375 115.429688 37.863281 115.324219 37.972656 C 115.21875 38.078125 115.089844 38.132812 114.9375 38.132812 Z M 106.773438 38.132812 L 102.683594 38.132812 C 102.535156 38.132812 102.40625 38.078125 102.296875 37.972656 C 102.191406 37.863281 102.136719 37.734375 102.136719 37.585938 C 102.136719 37.433594 102.191406 37.304688 102.296875 37.199219 C 102.40625 37.089844 102.535156 37.039062 102.683594 37.039062 L 106.769531 37.039062 C 106.921875 37.039062 107.050781 37.089844 107.15625 37.199219 C 107.261719 37.304688 107.316406 37.433594 107.316406 37.585938 C 107.316406 37.734375 107.261719 37.863281 107.15625 37.972656 C 107.050781 38.078125 106.921875 38.132812 106.769531 38.132812 Z M 98.605469 38.132812 L 94.539062 38.132812 C 94.390625 38.132812 94.261719 38.078125 94.152344 37.972656 C 94.046875 37.863281 93.992188 37.734375 93.992188 37.585938 C 93.992188 37.433594 94.046875 37.304688 94.152344 37.199219 C 94.261719 37.089844 94.390625 37.039062 94.539062 37.039062 L 98.601562 37.039062 C 98.75 37.039062 98.878906 37.089844 98.988281 37.199219 C 99.09375 37.304688 99.148438 37.433594 99.148438 37.585938 C 99.148438 37.734375 99.09375 37.863281 98.988281 37.972656 C 98.878906 38.078125 98.75 38.132812 98.601562 38.132812 Z M 98.605469 38.132812 " fill-opacity="1" fill-rule="nonzero"/></g><g fill="#000000" fill-opacity="1"><g transform="translate(112.539347, 27.835779)"><g><path d="M 1.296875 -11.828125 L 5.625 -11.828125 C 6.882812 -11.828125 7.878906 -11.523438 8.609375 -10.921875 C 9.335938 -10.328125 9.703125 -9.4375 9.703125 -8.25 C 9.703125 -7.425781 9.523438 -6.75 9.171875 -6.21875 C 8.828125 -5.695312 8.332031 -5.28125 7.6875 -4.96875 L 10.359375 0 L 7.953125 0 L 5.65625 -4.390625 L 3.46875 -4.390625 L 3.46875 0 L 1.296875 0 Z M 5.0625 -6.203125 C 6.644531 -6.203125 7.4375 -6.84375 7.4375 -8.125 C 7.4375 -8.75 7.253906 -9.222656 6.890625 -9.546875 C 6.535156 -9.867188 5.953125 -10.03125 5.140625 -10.03125 L 3.46875 -10.03125 L 3.46875 -6.203125 Z M 5.0625 -6.203125 "/></g></g></g><g fill="#000000" fill-opacity="1"><g transform="translate(123.115771, 27.835779)"><g><path d="M 3.375 0.171875 C 2.832031 0.171875 2.335938 0.117188 1.890625 0.015625 C 1.453125 -0.0859375 1 -0.242188 0.53125 -0.453125 L 0.703125 -2.25 C 1.179688 -1.96875 1.625 -1.753906 2.03125 -1.609375 C 2.445312 -1.472656 2.875 -1.40625 3.3125 -1.40625 C 4.164062 -1.40625 4.59375 -1.6875 4.59375 -2.25 C 4.59375 -2.550781 4.476562 -2.78125 4.25 -2.9375 C 4.03125 -3.101562 3.628906 -3.300781 3.046875 -3.53125 C 2.210938 -3.832031 1.597656 -4.175781 1.203125 -4.5625 C 0.804688 -4.957031 0.609375 -5.488281 0.609375 -6.15625 C 0.609375 -6.882812 0.890625 -7.476562 1.453125 -7.9375 C 2.015625 -8.394531 2.773438 -8.625 3.734375 -8.625 C 4.691406 -8.625 5.566406 -8.40625 6.359375 -7.96875 L 6.171875 -6.171875 C 5.742188 -6.460938 5.335938 -6.6875 4.953125 -6.84375 C 4.578125 -7 4.179688 -7.078125 3.765625 -7.078125 C 3.410156 -7.078125 3.132812 -7.003906 2.9375 -6.859375 C 2.738281 -6.710938 2.640625 -6.503906 2.640625 -6.234375 C 2.640625 -6.023438 2.695312 -5.851562 2.8125 -5.71875 C 2.9375 -5.582031 3.101562 -5.457031 3.3125 -5.34375 C 3.53125 -5.238281 3.882812 -5.09375 4.375 -4.90625 C 5.195312 -4.582031 5.785156 -4.234375 6.140625 -3.859375 C 6.503906 -3.484375 6.6875 -2.976562 6.6875 -2.34375 C 6.6875 -1.550781 6.398438 -0.929688 5.828125 -0.484375 C 5.253906 -0.046875 4.4375 0.171875 3.375 0.171875 Z M 3.375 0.171875 "/></g></g></g><g fill="#000000" fill-opacity="1"><g transform="translate(130.262458, 27.835779)"><g/></g></g><g fill="#000000" fill-opacity="1"><g transform="translate(134.06389, 27.835779)"><g><path d="M 2.9375 -3.890625 L 0.671875 -3.890625 L 0.671875 -5.484375 L 2.9375 -5.484375 L 2.9375 -7.75 L 4.671875 -7.75 L 4.671875 -5.484375 L 6.9375 -5.484375 L 6.9375 -3.890625 L 4.671875 -3.890625 L 4.671875 -1.625 L 2.9375 -1.625 Z M 2.9375 -3.890625 "/></g></g></g><g fill="#000000" fill-opacity="1"><g transform="translate(141.666753, 27.835779)"><g/></g></g><g fill="#000000" fill-opacity="1"><g transform="translate(145.468184, 27.835779)"><g><path d="M 0.984375 -11.828125 L 3.078125 -11.828125 L 3.078125 -9.734375 L 0.984375 -9.734375 Z M -0.03125 2.359375 C 0.363281 2.359375 0.628906 2.265625 0.765625 2.078125 C 0.910156 1.890625 0.984375 1.535156 0.984375 1.015625 L 0.984375 -8.453125 L 3.078125 -8.453125 L 3.078125 1.875 C 3.078125 2.71875 2.894531 3.296875 2.53125 3.609375 C 2.164062 3.929688 1.59375 4.09375 0.8125 4.09375 L 0.15625 4.09375 Z M -0.03125 2.359375 "/></g></g></g><g fill="#000000" fill-opacity="1"><g transform="translate(149.523041, 27.835779)"><g><path d="M 4.109375 -6.0625 L 0.171875 -11.828125 L 2.5625 -11.828125 L 5.296875 -7.8125 L 8.015625 -11.828125 L 10.421875 -11.828125 L 6.46875 -6.0625 L 10.609375 0 L 8.21875 0 L 5.296875 -4.3125 L 2.359375 0 L -0.03125 0 Z M 4.109375 -6.0625 "/></g></g></g><g fill="#000000" fill-opacity="1"><g transform="translate(160.099465, 27.835779)"><g><path d="M 3.375 0.171875 C 2.832031 0.171875 2.335938 0.117188 1.890625 0.015625 C 1.453125 -0.0859375 1 -0.242188 0.53125 -0.453125 L 0.703125 -2.25 C 1.179688 -1.96875 1.625 -1.753906 2.03125 -1.609375 C 2.445312 -1.472656 2.875 -1.40625 3.3125 -1.40625 C 4.164062 -1.40625 4.59375 -1.6875 4.59375 -2.25 C 4.59375 -2.550781 4.476562 -2.78125 4.25 -2.9375 C 4.03125 -3.101562 3.628906 -3.300781 3.046875 -3.53125 C 2.210938 -3.832031 1.597656 -4.175781 1.203125 -4.5625 C 0.804688 -4.957031 0.609375 -5.488281 0.609375 -6.15625 C 0.609375 -6.882812 0.890625 -7.476562 1.453125 -7.9375 C 2.015625 -8.394531 2.773438 -8.625 3.734375 -8.625 C 4.691406 -8.625 5.566406 -8.40625 6.359375 -7.96875 L 6.171875 -6.171875 C 5.742188 -6.460938 5.335938 -6.6875 4.953125 -6.84375 C 4.578125 -7 4.179688 -7.078125 3.765625 -7.078125 C 3.410156 -7.078125 3.132812 -7.003906 2.9375 -6.859375 C 2.738281 -6.710938 2.640625 -6.503906 2.640625 -6.234375 C 2.640625 -6.023438 2.695312 -5.851562 2.8125 -5.71875 C 2.9375 -5.582031 3.101562 -5.457031 3.3125 -5.34375 C 3.53125 -5.238281 3.882812 -5.09375 4.375 -4.90625 C 5.195312 -4.582031 5.785156 -4.234375 6.140625 -3.859375 C 6.503906 -3.484375 6.6875 -2.976562 6.6875 -2.34375 C 6.6875 -1.550781 6.398438 -0.929688 5.828125 -0.484375 C 5.253906 -0.046875 4.4375 0.171875 3.375 0.171875 Z M 3.375 0.171875 "/></g></g></g><g fill="#000000" fill-opacity="1"><g transform="translate(240.304386, 27.835779)"><g><path d="M 6.65625 0.234375 C 5.46875 0.234375 4.410156 -0.015625 3.484375 -0.515625 C 2.566406 -1.023438 1.851562 -1.742188 1.34375 -2.671875 C 0.84375 -3.609375 0.59375 -4.691406 0.59375 -5.921875 C 0.59375 -7.140625 0.851562 -8.210938 1.375 -9.140625 C 1.894531 -10.066406 2.617188 -10.785156 3.546875 -11.296875 C 4.484375 -11.816406 5.546875 -12.078125 6.734375 -12.078125 C 7.867188 -12.078125 8.882812 -11.84375 9.78125 -11.375 L 9.546875 -9.3125 C 9.066406 -9.53125 8.601562 -9.695312 8.15625 -9.8125 C 7.707031 -9.925781 7.226562 -9.984375 6.71875 -9.984375 C 5.507812 -9.984375 4.578125 -9.613281 3.921875 -8.875 C 3.273438 -8.132812 2.953125 -7.148438 2.953125 -5.921875 C 2.953125 -4.691406 3.269531 -3.703125 3.90625 -2.953125 C 4.550781 -2.210938 5.46875 -1.84375 6.65625 -1.84375 C 7.1875 -1.84375 7.675781 -1.898438 8.125 -2.015625 C 8.570312 -2.128906 9.046875 -2.296875 9.546875 -2.515625 L 9.78125 -0.453125 C 8.800781 0.00390625 7.757812 0.234375 6.65625 0.234375 Z M 6.65625 0.234375 "/></g></g></g><g fill="#000000" fill-opacity="1"><g transform="translate(304.132779, 141.542037)"><g><path d="M 1.296875 -11.828125 L 3.46875 -11.828125 L 3.46875 -1.921875 L 8.328125 -1.921875 L 8.328125 0 L 1.296875 0 Z M 1.296875 -11.828125 "/></g></g></g><g fill="#000000" fill-opacity="1"><g transform="translate(419.033812, 163.558052)"><g><path d="M 1.296875 -11.828125 L 5.625 -11.828125 C 6.882812 -11.828125 7.878906 -11.523438 8.609375 -10.921875 C 9.335938 -10.328125 9.703125 -9.4375 9.703125 -8.25 C 9.703125 -7.425781 9.523438 -6.75 9.171875 -6.21875 C 8.828125 -5.695312 8.332031 -5.28125 7.6875 -4.96875 L 10.359375 0 L 7.953125 0 L 5.65625 -4.390625 L 3.46875 -4.390625 L 3.46875 0 L 1.296875 0 Z M 5.0625 -6.203125 C 6.644531 -6.203125 7.4375 -6.84375 7.4375 -8.125 C 7.4375 -8.75 7.253906 -9.222656 6.890625 -9.546875 C 6.535156 -9.867188 5.953125 -10.03125 5.140625 -10.03125 L 3.46875 -10.03125 L 3.46875 -6.203125 Z M 5.0625 -6.203125 "/></g></g></g><g fill="#000000" fill-opacity="1"><g transform="translate(429.610236, 163.558052)"><g><path d="M 1.296875 -11.828125 L 3.46875 -11.828125 L 3.46875 -1.921875 L 8.328125 -1.921875 L 8.328125 0 L 1.296875 0 Z M 1.296875 -11.828125 "/></g></g></g><g fill="#000000" fill-opacity="1"><g transform="translate(438.057856, 163.558052)"><g/></g></g><g fill="#000000" fill-opacity="1"><g transform="translate(441.859287, 163.558052)"><g><path d="M 2.9375 -3.890625 L 0.671875 -3.890625 L 0.671875 -5.484375 L 2.9375 -5.484375 L 2.9375 -7.75 L 4.671875 -7.75 L 4.671875 -5.484375 L 6.9375 -5.484375 L 6.9375 -3.890625 L 4.671875 -3.890625 L 4.671875 -1.625 L 2.9375 -1.625 Z M 2.9375 -3.890625 "/></g></g></g><g fill="#000000" fill-opacity="1"><g transform="translate(449.46215, 163.558052)"><g/></g></g><g fill="#000000" fill-opacity="1"><g transform="translate(453.263582, 163.558052)"><g><path d="M 0.984375 -11.828125 L 3.078125 -11.828125 L 3.078125 -9.734375 L 0.984375 -9.734375 Z M -0.03125 2.359375 C 0.363281 2.359375 0.628906 2.265625 0.765625 2.078125 C 0.910156 1.890625 0.984375 1.535156 0.984375 1.015625 L 0.984375 -8.453125 L 3.078125 -8.453125 L 3.078125 1.875 C 3.078125 2.71875 2.894531 3.296875 2.53125 3.609375 C 2.164062 3.929688 1.59375 4.09375 0.8125 4.09375 L 0.15625 4.09375 Z M -0.03125 2.359375 "/></g></g></g><g fill="#000000" fill-opacity="1"><g transform="translate(457.318439, 163.558052)"><g><path d="M 4.109375 -6.0625 L 0.171875 -11.828125 L 2.5625 -11.828125 L 5.296875 -7.8125 L 8.015625 -11.828125 L 10.421875 -11.828125 L 6.46875 -6.0625 L 10.609375 0 L 8.21875 0 L 5.296875 -4.3125 L 2.359375 0 L -0.03125 0 Z M 4.109375 -6.0625 "/></g></g></g><g fill="#000000" fill-opacity="1"><g transform="translate(467.894862, 163.558052)"><g><path d="M 1.296875 -11.828125 L 3.46875 -11.828125 L 3.46875 -1.921875 L 8.328125 -1.921875 L 8.328125 0 L 1.296875 0 Z M 1.296875 -11.828125 "/></g></g></g><g clip-path="url(#092bf86ae1)"><path fill="#000000" d="M 526.808594 115.777344 L 526.808594 119.347656 C 526.808594 119.476562 526.761719 119.589844 526.671875 119.679688 C 526.578125 119.773438 526.46875 119.820312 526.335938 119.820312 C 526.207031 119.820312 526.09375 119.773438 526.003906 119.679688 C 525.910156 119.589844 525.863281 119.476562 525.863281 119.347656 L 525.863281 115.777344 C 525.863281 115.644531 525.910156 115.535156 526.003906 115.441406 C 526.09375 115.351562 526.207031 115.304688 526.335938 115.304688 C 526.46875 115.304688 526.578125 115.351562 526.671875 115.441406 C 526.761719 115.535156 526.808594 115.644531 526.808594 115.777344 Z M 526.808594 122.863281 L 526.808594 126.402344 C 526.808594 126.53125 526.761719 126.640625 526.671875 126.734375 C 526.578125 126.828125 526.46875 126.875 526.335938 126.875 C 526.207031 126.875 526.09375 126.828125 526.003906 126.734375 C 525.910156 126.640625 525.863281 126.53125 525.863281 126.402344 L 525.863281 122.875 C 525.863281 122.742188 525.910156 122.632812 526.003906 122.539062 C 526.09375 122.445312 526.207031 122.402344 526.335938 122.402344 C 526.46875 122.402344 526.578125 122.445312 526.671875 122.539062 C 526.761719 122.632812 526.808594 122.742188 526.808594 122.875 Z M 526.808594 129.917969 L 526.808594 133.453125 C 526.808594 133.585938 526.761719 133.695312 526.671875 133.789062 C 526.578125 133.882812 526.46875 133.925781 526.335938 133.925781 C 526.207031 133.925781 526.09375 133.882812 526.003906 133.789062 C 525.910156 133.695312 525.863281 133.585938 525.863281 133.453125 L 525.863281 129.929688 C 525.863281 129.796875 525.910156 129.6875 526.003906 129.59375 C 526.09375 129.5 526.207031 129.457031 526.335938 129.457031 C 526.46875 129.457031 526.578125 129.5 526.671875 129.59375 C 526.761719 129.6875 526.808594 129.796875 526.808594 129.929688 Z M 526.808594 136.972656 L 526.808594 140.507812 C 526.808594 140.640625 526.761719 140.75 526.671875 140.84375 C 526.578125 140.933594 526.46875 140.980469 526.335938 140.980469 C 526.207031 140.980469 526.09375 140.933594 526.003906 140.84375 C 525.910156 140.75 525.863281 140.640625 525.863281 140.507812 L 525.863281 136.980469 C 525.863281 136.851562 525.910156 136.738281 526.003906 136.648438 C 526.09375 136.554688 526.207031 136.507812 526.335938 136.507812 C 526.46875 136.507812 526.578125 136.554688 526.671875 136.648438 C 526.761719 136.738281 526.808594 136.851562 526.808594 136.980469 Z M 526.808594 144.027344 L 526.808594 147.5625 C 526.808594 147.695312 526.761719 147.804688 526.671875 147.898438 C 526.578125 147.988281 526.46875 148.035156 526.335938 148.035156 C 526.207031 148.035156 526.09375 147.988281 526.003906 147.898438 C 525.910156 147.804688 525.863281 147.695312 525.863281 147.5625 L 525.863281 144.035156 C 525.863281 143.90625 525.910156 143.792969 526.003906 143.703125 C 526.09375 143.609375 526.207031 143.5625 526.335938 143.5625 C 526.46875 143.5625 526.578125 143.609375 526.671875 143.703125 C 526.761719 143.792969 526.808594 143.90625 526.808594 144.035156 Z M 526.808594 151.082031 L 526.808594 154.617188 C 526.808594 154.75 526.761719 154.859375 526.671875 154.953125 C 526.578125 155.042969 526.46875 155.089844 526.335938 155.089844 C 526.207031 155.089844 526.09375 155.042969 526.003906 154.953125 C 525.910156 154.859375 525.863281 154.75 525.863281 154.617188 L 525.863281 151.089844 C 525.863281 150.960938 525.910156 150.847656 526.003906 150.757812 C 526.09375 150.664062 526.207031 150.617188 526.335938 150.617188 C 526.46875 150.617188 526.578125 150.664062 526.671875 150.757812 C 526.761719 150.847656 526.808594 150.960938 526.808594 151.089844 Z M 526.808594 158.144531 L 526.808594 161.671875 C 526.808594 161.800781 526.761719 161.914062 526.671875 162.007812 C 526.578125 162.097656 526.46875 162.144531 526.335938 162.144531 C 526.207031 162.144531 526.09375 162.097656 526.003906 162.007812 C 525.910156 161.914062 525.863281 161.800781 525.863281 161.671875 L 525.863281 158.144531 C 525.863281 158.015625 525.910156 157.902344 526.003906 157.8125 C 526.09375 157.71875 526.207031 157.671875 526.335938 157.671875 C 526.46875 157.671875 526.578125 157.71875 526.671875 157.8125 C 526.761719 157.902344 526.808594 158.015625 526.808594 158.144531 Z M 526.808594 165.199219 L 526.808594 168.726562 C 526.808594 168.855469 526.761719 168.96875 526.671875 169.058594 C 526.578125 169.152344 526.46875 169.199219 526.335938 169.199219 C 526.207031 169.199219 526.09375 169.152344 526.003906 169.058594 C 525.910156 168.96875 525.863281 168.855469 525.863281 168.726562 L 525.863281 165.199219 C 525.863281 165.070312 525.910156 164.957031 526.003906 164.863281 C 526.09375 164.773438 526.207031 164.726562 526.335938 164.726562 C 526.46875 164.726562 526.578125 164.773438 526.671875 164.863281 C 526.761719 164.957031 526.808594 165.070312 526.808594 165.199219 Z M 526.808594 172.253906 L 526.808594 175.78125 C 526.808594 175.910156 526.761719 176.023438 526.671875 176.113281 C 526.578125 176.207031 526.46875 176.253906 526.335938 176.253906 C 526.207031 176.253906 526.09375 176.207031 526.003906 176.113281 C 525.910156 176.023438 525.863281 175.910156 525.863281 175.78125 L 525.863281 172.253906 C 525.863281 172.121094 525.910156 172.011719 526.003906 171.917969 C 526.09375 171.828125 526.207031 171.78125 526.335938 171.78125 C 526.46875 171.78125 526.578125 171.828125 526.671875 171.917969 C 526.761719 172.011719 526.808594 172.121094 526.808594 172.253906 Z M 526.808594 179.308594 L 526.808594 182.835938 C 526.808594 182.964844 526.761719 183.078125 526.671875 183.167969 C 526.578125 183.261719 526.46875 183.308594 526.335938 183.308594 C 526.207031 183.308594 526.09375 183.261719 526.003906 183.167969 C 525.910156 183.078125 525.863281 182.964844 525.863281 182.835938 L 525.863281 179.308594 C 525.863281 179.175781 525.910156 179.066406 526.003906 178.972656 C 526.09375 178.882812 526.207031 178.835938 526.335938 178.835938 C 526.46875 178.835938 526.578125 178.882812 526.671875 178.972656 C 526.761719 179.066406 526.808594 179.175781 526.808594 179.308594 Z M 526.808594 186.363281 L 526.808594 189.890625 C 526.808594 190.023438 526.761719 190.132812 526.671875 190.226562 C 526.578125 190.316406 526.46875 190.363281 526.335938 190.363281 C 526.207031 190.363281 526.09375 190.316406 526.003906 190.226562 C 525.910156 190.132812 525.863281 190.023438 525.863281 189.890625 L 525.863281 186.363281 C 525.863281 186.230469 525.910156 186.121094 526.003906 186.027344 C 526.09375 185.933594 526.207031 185.890625 526.335938 185.890625 C 526.46875 185.890625 526.578125 185.933594 526.671875 186.027344 C 526.761719 186.121094 526.808594 186.230469 526.808594 186.363281 Z M 526.808594 193.417969 L 526.808594 193.855469 C 526.808594 194.941406 526.648438 196 526.324219 197.039062 C 526.292969 197.171875 526.21875 197.269531 526.097656 197.335938 C 525.980469 197.40625 525.855469 197.417969 525.726562 197.378906 C 525.59375 197.335938 525.5 197.253906 525.441406 197.132812 C 525.382812 197.007812 525.375 196.882812 525.425781 196.757812 C 525.71875 195.8125 525.863281 194.84375 525.863281 193.855469 L 525.863281 193.417969 C 525.863281 193.289062 525.910156 193.175781 526.003906 193.085938 C 526.09375 192.992188 526.207031 192.945312 526.335938 192.945312 C 526.46875 192.945312 526.578125 192.992188 526.671875 193.085938 C 526.761719 193.175781 526.808594 193.289062 526.808594 193.417969 Z M 526.1875 112.3125 C 526.183594 112.429688 526.148438 112.527344 526.074219 112.617188 C 526 112.703125 525.90625 112.757812 525.796875 112.777344 C 525.683594 112.796875 525.574219 112.777344 525.476562 112.722656 C 525.378906 112.664062 525.308594 112.582031 525.269531 112.472656 C 524.882812 111.410156 524.324219 110.445312 523.597656 109.578125 C 523.515625 109.476562 523.476562 109.363281 523.488281 109.230469 C 523.5 109.101562 523.558594 108.996094 523.65625 108.910156 C 523.757812 108.828125 523.871094 108.792969 524.003906 108.804688 C 524.132812 108.816406 524.238281 108.871094 524.324219 108.96875 C 525.121094 109.921875 525.730469 110.984375 526.15625 112.148438 C 526.175781 112.203125 526.183594 112.257812 526.1875 112.3125 Z M 524.730469 200.015625 C 524.730469 200.121094 524.699219 200.214844 524.636719 200.300781 C 523.886719 201.285156 522.988281 202.117188 521.949219 202.792969 C 521.839844 202.867188 521.722656 202.886719 521.59375 202.859375 C 521.464844 202.832031 521.367188 202.765625 521.296875 202.65625 C 521.226562 202.546875 521.203125 202.425781 521.230469 202.300781 C 521.257812 202.171875 521.324219 202.074219 521.433594 202 C 522.382812 201.382812 523.199219 200.625 523.882812 199.722656 C 524.019531 199.542969 524.195312 199.492188 524.410156 199.5625 C 524.625 199.632812 524.730469 199.785156 524.730469 200.007812 Z M 521.757812 107.015625 C 521.757812 107.101562 521.734375 107.179688 521.691406 107.253906 C 521.625 107.367188 521.53125 107.4375 521.402344 107.472656 C 521.277344 107.503906 521.160156 107.488281 521.046875 107.421875 C 520.070312 106.847656 519.027344 106.460938 517.914062 106.257812 C 517.785156 106.234375 517.683594 106.167969 517.609375 106.058594 C 517.535156 105.953125 517.507812 105.835938 517.53125 105.707031 C 517.554688 105.578125 517.621094 105.476562 517.730469 105.402344 C 517.835938 105.328125 517.953125 105.300781 518.082031 105.324219 C 519.304688 105.550781 520.449219 105.976562 521.523438 106.605469 C 521.679688 106.699219 521.757812 106.835938 521.757812 107.015625 Z M 518.9375 203.785156 C 518.9375 204.03125 518.816406 204.1875 518.574219 204.242188 C 517.773438 204.429688 516.960938 204.523438 516.140625 204.523438 L 514.957031 204.523438 C 514.828125 204.523438 514.71875 204.476562 514.625 204.386719 C 514.53125 204.292969 514.488281 204.183594 514.488281 204.050781 C 514.488281 203.921875 514.53125 203.808594 514.625 203.71875 C 514.71875 203.625 514.828125 203.578125 514.957031 203.578125 L 516.140625 203.578125 C 516.890625 203.578125 517.628906 203.492188 518.359375 203.324219 C 518.488281 203.292969 518.605469 203.3125 518.71875 203.382812 C 518.828125 203.453125 518.898438 203.550781 518.925781 203.675781 C 518.9375 203.710938 518.941406 203.746094 518.9375 203.785156 Z M 514.957031 105.621094 C 514.957031 105.753906 514.910156 105.863281 514.816406 105.957031 C 514.726562 106.050781 514.613281 106.09375 514.484375 106.09375 L 510.957031 106.09375 C 510.828125 106.09375 510.71875 106.050781 510.625 105.957031 C 510.53125 105.863281 510.488281 105.753906 510.488281 105.621094 C 510.488281 105.492188 510.53125 105.382812 510.625 105.289062 C 510.71875 105.195312 510.828125 105.152344 510.957031 105.152344 L 514.484375 105.152344 C 514.613281 105.152344 514.726562 105.195312 514.816406 105.289062 C 514.910156 105.382812 514.957031 105.492188 514.957031 105.621094 Z M 511.910156 204.050781 C 511.910156 204.183594 511.863281 204.292969 511.773438 204.386719 C 511.679688 204.476562 511.570312 204.523438 511.4375 204.523438 L 507.921875 204.523438 C 507.789062 204.523438 507.679688 204.476562 507.585938 204.386719 C 507.492188 204.292969 507.449219 204.183594 507.449219 204.050781 C 507.449219 203.921875 507.492188 203.808594 507.585938 203.71875 C 507.679688 203.625 507.789062 203.578125 507.921875 203.578125 L 511.4375 203.578125 C 511.570312 203.578125 511.679688 203.625 511.773438 203.71875 C 511.863281 203.808594 511.910156 203.921875 511.910156 204.050781 Z M 507.894531 105.621094 C 507.894531 105.753906 507.851562 105.863281 507.757812 105.957031 C 507.664062 106.050781 507.554688 106.09375 507.425781 106.09375 L 503.90625 106.09375 C 503.777344 106.09375 503.664062 106.050781 503.574219 105.957031 C 503.480469 105.863281 503.433594 105.753906 503.433594 105.621094 C 503.433594 105.492188 503.480469 105.382812 503.574219 105.289062 C 503.664062 105.195312 503.777344 105.152344 503.90625 105.152344 L 507.429688 105.152344 C 507.5625 105.148438 507.675781 105.195312 507.765625 105.289062 C 507.859375 105.378906 507.90625 105.492188 507.90625 105.621094 Z M 504.851562 204.050781 C 504.851562 204.183594 504.804688 204.292969 504.710938 204.386719 C 504.621094 204.476562 504.507812 204.523438 504.378906 204.523438 L 500.863281 204.523438 C 500.730469 204.523438 500.621094 204.476562 500.527344 204.386719 C 500.4375 204.292969 500.390625 204.183594 500.390625 204.050781 C 500.390625 203.921875 500.4375 203.808594 500.527344 203.71875 C 500.621094 203.625 500.730469 203.578125 500.863281 203.578125 L 504.378906 203.578125 C 504.507812 203.578125 504.621094 203.625 504.710938 203.71875 C 504.804688 203.808594 504.851562 203.921875 504.851562 204.050781 Z M 500.835938 105.621094 C 500.835938 105.753906 500.789062 105.863281 500.699219 105.957031 C 500.605469 106.050781 500.496094 106.09375 500.363281 106.09375 L 499.210938 106.09375 C 498.453125 106.09375 497.707031 106.183594 496.96875 106.355469 C 496.839844 106.390625 496.71875 106.375 496.601562 106.304688 C 496.488281 106.238281 496.414062 106.140625 496.382812 106.007812 C 496.351562 105.878906 496.375 105.757812 496.445312 105.644531 C 496.519531 105.53125 496.621094 105.460938 496.753906 105.4375 C 497.558594 105.246094 498.378906 105.152344 499.210938 105.152344 L 500.363281 105.152344 C 500.5 105.144531 500.613281 105.1875 500.710938 105.28125 C 500.808594 105.375 500.855469 105.488281 500.855469 105.621094 Z M 497.820312 203.875 C 497.824219 203.90625 497.824219 203.933594 497.820312 203.964844 C 497.796875 204.09375 497.730469 204.195312 497.625 204.269531 C 497.515625 204.34375 497.398438 204.367188 497.269531 204.34375 C 496.046875 204.113281 494.902344 203.6875 493.832031 203.054688 C 493.730469 202.984375 493.667969 202.890625 493.640625 202.769531 C 493.613281 202.648438 493.632812 202.535156 493.691406 202.429688 C 493.753906 202.320312 493.84375 202.25 493.960938 202.214844 C 494.082031 202.179688 494.195312 202.1875 494.304688 202.238281 C 495.28125 202.816406 496.324219 203.210938 497.4375 203.421875 C 497.546875 203.441406 497.636719 203.496094 497.710938 203.582031 C 497.78125 203.664062 497.820312 203.765625 497.820312 203.875 Z M 494.128906 107.28125 C 494.128906 107.449219 494.058594 107.582031 493.917969 107.675781 C 492.96875 108.292969 492.15625 109.050781 491.472656 109.949219 C 491.394531 110.054688 491.289062 110.117188 491.160156 110.132812 C 491.03125 110.152344 490.914062 110.121094 490.808594 110.042969 C 490.707031 109.964844 490.644531 109.859375 490.628906 109.730469 C 490.609375 109.601562 490.640625 109.484375 490.71875 109.378906 C 491.46875 108.390625 492.359375 107.558594 493.398438 106.878906 C 493.507812 106.808594 493.625 106.785156 493.753906 106.8125 C 493.882812 106.839844 493.980469 106.90625 494.054688 107.015625 C 494.105469 107.097656 494.128906 107.183594 494.128906 107.28125 Z M 491.863281 200.375 C 491.859375 200.589844 491.753906 200.738281 491.550781 200.808594 C 491.34375 200.882812 491.171875 200.835938 491.03125 200.667969 C 490.234375 199.714844 489.625 198.65625 489.203125 197.488281 C 489.160156 197.363281 489.164062 197.242188 489.21875 197.125 C 489.273438 197.007812 489.363281 196.925781 489.484375 196.882812 C 489.609375 196.835938 489.730469 196.84375 489.847656 196.898438 C 489.964844 196.953125 490.046875 197.039062 490.089844 197.164062 C 490.472656 198.226562 491.023438 199.195312 491.742188 200.0625 C 491.824219 200.152344 491.863281 200.253906 491.863281 200.375 Z M 489.976562 112.785156 C 489.976562 112.835938 489.96875 112.882812 489.953125 112.925781 C 489.65625 113.867188 489.507812 114.832031 489.503906 115.820312 L 489.503906 116.292969 C 489.503906 116.421875 489.457031 116.535156 489.363281 116.625 C 489.273438 116.71875 489.160156 116.765625 489.03125 116.765625 C 488.902344 116.765625 488.789062 116.71875 488.699219 116.625 C 488.605469 116.535156 488.558594 116.421875 488.558594 116.292969 L 488.558594 115.820312 C 488.558594 114.742188 488.714844 113.6875 489.03125 112.660156 C 489.050781 112.527344 489.109375 112.421875 489.214844 112.34375 C 489.320312 112.265625 489.4375 112.234375 489.566406 112.25 C 489.699219 112.269531 489.800781 112.328125 489.882812 112.433594 C 489.960938 112.539062 489.992188 112.65625 489.976562 112.785156 Z M 489.503906 119.808594 L 489.503906 123.335938 C 489.503906 123.464844 489.457031 123.574219 489.363281 123.667969 C 489.273438 123.761719 489.160156 123.808594 489.03125 123.808594 C 488.902344 123.808594 488.789062 123.761719 488.699219 123.667969 C 488.605469 123.574219 488.558594 123.464844 488.558594 123.335938 L 488.558594 119.808594 C 488.558594 119.675781 488.605469 119.566406 488.699219 119.472656 C 488.789062 119.378906 488.902344 119.335938 489.03125 119.335938 C 489.160156 119.335938 489.273438 119.378906 489.363281 119.472656 C 489.457031 119.566406 489.503906 119.675781 489.503906 119.808594 Z M 489.503906 126.859375 L 489.503906 130.386719 C 489.503906 130.519531 489.457031 130.628906 489.363281 130.722656 C 489.273438 130.816406 489.160156 130.859375 489.03125 130.859375 C 488.902344 130.859375 488.789062 130.816406 488.699219 130.722656 C 488.605469 130.628906 488.558594 130.519531 488.558594 130.386719 L 488.558594 126.859375 C 488.558594 126.730469 488.605469 126.621094 488.699219 126.527344 C 488.789062 126.433594 488.902344 126.390625 489.03125 126.390625 C 489.160156 126.390625 489.273438 126.433594 489.363281 126.527344 C 489.457031 126.621094 489.503906 126.730469 489.503906 126.859375 Z M 489.503906 133.914062 L 489.503906 137.441406 C 489.503906 137.574219 489.457031 137.683594 489.363281 137.777344 C 489.273438 137.867188 489.160156 137.914062 489.03125 137.914062 C 488.902344 137.914062 488.789062 137.867188 488.699219 137.777344 C 488.605469 137.683594 488.558594 137.574219 488.558594 137.441406 L 488.558594 133.914062 C 488.558594 133.785156 488.605469 133.671875 488.699219 133.582031 C 488.789062 133.488281 488.902344 133.441406 489.03125 133.441406 C 489.160156 133.441406 489.273438 133.488281 489.363281 133.582031 C 489.457031 133.671875 489.503906 133.785156 489.503906 133.914062 Z M 489.503906 140.96875 L 489.503906 144.496094 C 489.503906 144.628906 489.457031 144.738281 489.363281 144.832031 C 489.273438 144.921875 489.160156 144.96875 489.03125 144.96875 C 488.902344 144.96875 488.789062 144.921875 488.699219 144.832031 C 488.605469 144.738281 488.558594 144.628906 488.558594 144.496094 L 488.558594 140.96875 C 488.558594 140.839844 488.605469 140.726562 488.699219 140.636719 C 488.789062 140.542969 488.902344 140.496094 489.03125 140.496094 C 489.160156 140.496094 489.273438 140.542969 489.363281 140.636719 C 489.457031 140.726562 489.503906 140.839844 489.503906 140.96875 Z M 489.503906 148.023438 L 489.503906 151.550781 C 489.503906 151.683594 489.457031 151.792969 489.363281 151.886719 C 489.273438 151.976562 489.160156 152.023438 489.03125 152.023438 C 488.902344 152.023438 488.789062 151.976562 488.699219 151.886719 C 488.605469 151.792969 488.558594 151.683594 488.558594 151.550781 L 488.558594 148.023438 C 488.558594 147.894531 488.605469 147.78125 488.699219 147.691406 C 488.789062 147.597656 488.902344 147.550781 489.03125 147.550781 C 489.160156 147.550781 489.273438 147.597656 489.363281 147.691406 C 489.457031 147.78125 489.503906 147.894531 489.503906 148.023438 Z M 489.503906 155.074219 L 489.503906 158.605469 C 489.503906 158.734375 489.457031 158.847656 489.363281 158.941406 C 489.273438 159.03125 489.160156 159.078125 489.03125 159.078125 C 488.902344 159.078125 488.789062 159.03125 488.699219 158.941406 C 488.605469 158.847656 488.558594 158.734375 488.558594 158.605469 L 488.558594 155.074219 C 488.558594 154.941406 488.605469 154.832031 488.699219 154.738281 C 488.789062 154.648438 488.902344 154.601562 489.03125 154.601562 C 489.160156 154.601562 489.273438 154.648438 489.363281 154.738281 C 489.457031 154.832031 489.503906 154.941406 489.503906 155.074219 Z M 489.503906 162.128906 L 489.503906 165.660156 C 489.503906 165.789062 489.457031 165.902344 489.363281 165.992188 C 489.273438 166.085938 489.160156 166.132812 489.03125 166.132812 C 488.902344 166.132812 488.789062 166.085938 488.699219 165.992188 C 488.605469 165.902344 488.558594 165.789062 488.558594 165.660156 L 488.558594 162.132812 C 488.558594 162.003906 488.605469 161.890625 488.699219 161.796875 C 488.789062 161.707031 488.902344 161.660156 489.03125 161.660156 C 489.160156 161.660156 489.273438 161.707031 489.363281 161.796875 C 489.457031 161.890625 489.503906 162.003906 489.503906 162.132812 Z M 489.503906 169.183594 L 489.503906 172.714844 C 489.503906 172.84375 489.457031 172.957031 489.363281 173.046875 C 489.273438 173.140625 489.160156 173.1875 489.03125 173.1875 C 488.902344 173.1875 488.789062 173.140625 488.699219 173.046875 C 488.605469 172.957031 488.558594 172.84375 488.558594 172.714844 L 488.558594 169.1875 C 488.558594 169.054688 488.605469 168.945312 488.699219 168.851562 C 488.789062 168.761719 488.902344 168.714844 489.03125 168.714844 C 489.160156 168.714844 489.273438 168.761719 489.363281 168.851562 C 489.457031 168.945312 489.503906 169.054688 489.503906 169.1875 Z M 489.503906 176.234375 L 489.503906 179.769531 C 489.503906 179.898438 489.457031 180.011719 489.363281 180.101562 C 489.273438 180.195312 489.160156 180.242188 489.03125 180.242188 C 488.902344 180.242188 488.789062 180.195312 488.699219 180.101562 C 488.605469 180.011719 488.558594 179.898438 488.558594 179.769531 L 488.558594 176.242188 C 488.558594 176.109375 488.605469 176 488.699219 175.90625 C 488.789062 175.816406 488.902344 175.769531 489.03125 175.769531 C 489.160156 175.769531 489.273438 175.816406 489.363281 175.90625 C 489.457031 176 489.503906 176.109375 489.503906 176.242188 Z M 489.503906 183.289062 L 489.503906 186.824219 C 489.503906 186.953125 489.457031 187.0625 489.363281 187.15625 C 489.273438 187.25 489.160156 187.292969 489.03125 187.292969 C 488.902344 187.292969 488.789062 187.25 488.699219 187.15625 C 488.605469 187.0625 488.558594 186.953125 488.558594 186.824219 L 488.558594 183.296875 C 488.558594 183.164062 488.605469 183.054688 488.699219 182.960938 C 488.789062 182.867188 488.902344 182.824219 489.03125 182.824219 C 489.160156 182.824219 489.273438 182.867188 489.363281 182.960938 C 489.457031 183.054688 489.503906 183.164062 489.503906 183.296875 Z M 489.503906 190.34375 L 489.503906 193.855469 C 489.503906 193.984375 489.457031 194.097656 489.363281 194.191406 C 489.273438 194.28125 489.160156 194.328125 489.03125 194.328125 C 488.902344 194.328125 488.789062 194.28125 488.699219 194.191406 C 488.605469 194.097656 488.558594 193.984375 488.558594 193.855469 L 488.558594 190.347656 C 488.558594 190.21875 488.605469 190.109375 488.699219 190.015625 C 488.789062 189.921875 488.902344 189.878906 489.03125 189.878906 C 489.160156 189.878906 489.273438 189.921875 489.363281 190.015625 C 489.457031 190.109375 489.503906 190.21875 489.503906 190.347656 Z M 489.503906 190.34375 " fill-opacity="1" fill-rule="nonzero"/></g></svg>