<svg xmlns="http://www.w3.org/2000/svg" xmlns:xlink="http://www.w3.org/1999/xlink" width="720" zoomAndPan="magnify" viewBox="0 0 540 269.999989" height="360" preserveAspectRatio="xMidYMid meet" version="1.0"><defs><g/><clipPath id="cbd09a9634"><path d="M 98 37.894531 L 209.695312 37.894531 L 209.695312 80.644531 L 98 80.644531 Z M 98 37.894531 " clip-rule="nonzero"/></clipPath><clipPath id="421fe11e25"><path d="M 163.28125 43.453125 L 194.78125 43.453125 L 194.78125 74.953125 L 163.28125 74.953125 Z M 163.28125 43.453125 " clip-rule="nonzero"/></clipPath><clipPath id="e8cebd86a7"><path d="M 487.910156 105.511719 L 526.910156 105.511719 L 526.910156 208.261719 L 487.910156 208.261719 Z M 487.910156 105.511719 " clip-rule="nonzero"/></clipPath><clipPath id="d183089587"><path d="M 491.71875 163.992188 L 523.21875 163.992188 L 523.21875 195.492188 L 491.71875 195.492188 Z M 491.71875 163.992188 " clip-rule="nonzero"/></clipPath></defs><path stroke-linecap="square" transform="matrix(1.080219, 0, 0, 1.078846, 0.00722418, -5.405484)" fill="none" stroke-linejoin="miter" d="M 349.998424 110.001788 L 349.998424 130.998612 " stroke="#000000" stroke-width="2" stroke-opacity="1" stroke-miterlimit="4"/><path stroke-linecap="square" transform="matrix(1.080219, 0, 0, 1.078846, 0.00722418, -5.405484)" fill="none" stroke-linejoin="miter" d="M 349.998424 139.000505 L 349.998424 160.000949 " stroke="#000000" stroke-width="2" stroke-opacity="1" stroke-miterlimit="4"/><path stroke-linecap="square" transform="matrix(1.080219, 0, 0, 1.078846, 0.00722418, -5.405484)" fill="none" stroke-linejoin="miter" d="M 336.000244 130.998612 L 364.000219 130.998612 " stroke="#000000" stroke-width="2" stroke-opacity="1" stroke-miterlimit="4"/><path stroke-linecap="square" transform="matrix(1.080219, 0, 0, 1.078846, 0.00722418, -5.405484)" fill="none" stroke-linejoin="miter" d="M 336.000244 139.000505 L 364.000219 139.000505 " stroke="#000000" stroke-width="2" stroke-opacity="1" stroke-miterlimit="4"/><path stroke-linecap="square" transform="matrix(1.080219, 0, 0, 1.078846, 0.00722418, -5.405484)" fill="none" stroke-linejoin="miter" d="M 349.998424 160.000949 L 349.998424 199.999554 " stroke="#000000" stroke-width="2" stroke-opacity="1" stroke-miterlimit="4"/><path stroke-linecap="square" transform="matrix(1.080219, 0, 0, 1.078846, 0.00722418, -5.405484)" fill="none" stroke-linejoin="miter" d="M 209.998549 160.000949 L 209.998549 199.999554 " stroke="#000000" stroke-width="2" stroke-opacity="1" stroke-miterlimit="4"/><path stroke-linecap="square" transform="matrix(1.080219, 0, 0, 1.078846, 0.00722418, -5.405484)" fill="none" stroke-linejoin="miter" d="M 349.998424 199.999554 L 349.998424 211.998773 " stroke="#000000" stroke-width="2" stroke-opacity="1" stroke-miterlimit="4"/><path stroke-linecap="square" transform="matrix(1.080219, 0, 0, 1.078846, 0.00722418, -5.405484)" fill="none" stroke-linejoin="miter" d="M 341.999464 211.998773 L 358.001 211.998773 L 349.998424 220.000666 Z M 341.999464 211.998773 " stroke="#000000" stroke-width="2" stroke-opacity="1" stroke-miterlimit="4"/><path stroke-linecap="square" transform="matrix(1.080219, 0, 0, 1.078846, 0.00722418, -5.405484)" fill="none" stroke-linejoin="miter" d="M 349.998424 59.999007 L 470.0009 59.999007 " stroke="#000000" stroke-width="2" stroke-opacity="1" stroke-miterlimit="4"/><path stroke-linecap="square" transform="matrix(1.080219, 0, 0, 1.078846, 0.00722418, -5.405484)" fill="none" stroke-linejoin="miter" d="M 349.998424 69.999563 L 349.998424 80.000119 " stroke="#000000" stroke-width="2" stroke-opacity="1" stroke-miterlimit="4"/><path stroke-linecap="square" transform="matrix(1.080219, 0, 0, 1.078846, 0.00722418, -5.405484)" fill="none" stroke-linejoin="miter" d="M 349.998424 59.999007 L 349.998424 110.001788 " stroke="#000000" stroke-width="2" stroke-opacity="1" stroke-miterlimit="4"/><path stroke-linecap="square" transform="matrix(1.080219, 0, 0, 1.078846, 0.00722418, -5.405484)" fill="none" stroke-linejoin="miter" d="M 310.000009 59.999007 L 349.998424 59.999007 " stroke="#000000" stroke-width="2" stroke-opacity="1" stroke-miterlimit="4"/><path stroke-linecap="square" transform="matrix(1.080219, 0, 0, 1.078846, 0.00722418, -5.405484)" fill="none" stroke-linejoin="miter" d="M 209.998549 59.999007 L 259.999279 59.999007 " stroke="#000000" stroke-width="2" stroke-opacity="1" stroke-miterlimit="4"/><path stroke-linecap="square" transform="matrix(1.080219, 0, 0, 1.078846, 0.00722418, -5.405484)" fill="none" stroke-linejoin="miter" d="M 209.998549 59.999007 L 209.998549 110.001788 " stroke="#000000" stroke-width="2" stroke-opacity="1" stroke-miterlimit="4"/><path stroke-linecap="square" transform="matrix(1.080219, 0, 0, 1.078846, 0.00722418, -5.405484)" fill="none" stroke-linejoin="miter" d="M 149.999119 59.999007 L 209.998549 59.999007 " stroke="#000000" stroke-width="2" stroke-opacity="1" stroke-miterlimit="4"/><path stroke-linecap="square" transform="matrix(1.080219, 0, 0, 1.078846, 0.00722418, -5.405484)" fill="none" stroke-linejoin="miter" d="M 50.001275 59.999007 L 99.998389 59.999007 " stroke="#000000" stroke-width="2" stroke-opacity="1" stroke-miterlimit="4"/><path stroke-linecap="square" transform="matrix(1.080219, 0, 0, 1.078846, 0.00722418, -5.405484)" fill="none" stroke-linejoin="miter" d="M 259.999279 59.999007 L 261.000957 59.999007 " stroke="#000000" stroke-width="2" stroke-opacity="1" stroke-miterlimit="4"/><path stroke-linecap="square" transform="matrix(1.080219, 0, 0, 1.078846, 0.00722418, -5.405484)" fill="none" stroke-linejoin="miter" d="M 308.998331 59.999007 L 310.000009 59.999007 " stroke="#000000" stroke-width="2" stroke-opacity="1" stroke-miterlimit="4"/><path stroke-linecap="square" transform="matrix(1.080219, 0, 0, 1.078846, 0.00722418, -5.405484)" fill="none" stroke-linejoin="miter" d="M 261.000957 59.999007 C 261.000957 59.473996 261.037119 58.956226 261.116675 58.438457 C 261.192614 57.924308 261.304715 57.424642 261.456594 56.939459 C 261.608473 56.454277 261.792898 55.990819 262.009868 55.556327 C 262.230454 55.118214 262.479969 54.716309 262.758414 54.34337 C 263.036859 53.970431 263.340617 53.640941 263.666072 53.347659 C 263.995143 53.057998 264.338679 52.808165 264.703911 52.609023 C 265.069144 52.40626 265.441609 52.257809 265.828539 52.152806 C 266.215469 52.051425 266.606015 52.000734 267.000177 52.000734 C 267.394339 52.000734 267.784885 52.051425 268.171815 52.152806 C 268.555128 52.257809 268.93121 52.40626 269.296442 52.609023 C 269.661675 52.808165 270.005211 53.057998 270.334282 53.347659 C 270.659737 53.640941 270.963495 53.970431 271.24194 54.34337 C 271.520385 54.716309 271.7699 55.118214 271.990486 55.556327 C 272.207456 55.990819 272.391881 56.454277 272.54376 56.939459 C 272.695639 57.424642 272.80774 57.924308 272.883679 58.438457 C 272.963235 58.956226 272.999397 59.473996 272.999397 59.999007 M 272.999397 59.999007 C 272.999397 59.473996 273.039175 58.956226 273.115114 58.438457 C 273.191054 57.924308 273.306771 57.424642 273.455034 56.939459 C 273.606913 56.454277 273.791337 55.990819 274.011923 55.556327 C 274.228893 55.118214 274.478409 54.716309 274.756853 54.34337 C 275.035298 53.970431 275.339056 53.640941 275.668127 53.347659 C 275.993582 53.057998 276.340734 52.808165 276.702351 52.609023 C 277.067584 52.40626 277.443665 52.257809 277.830595 52.152806 C 278.217525 52.051425 278.604454 52.000734 278.998616 52.000734 C 279.392779 52.000734 279.783325 52.051425 280.170254 52.152806 C 280.557184 52.257809 280.933265 52.40626 281.294882 52.609023 C 281.660115 52.808165 282.007267 53.057998 282.332722 53.347659 C 282.661793 53.640941 282.965551 53.970431 283.243996 54.34337 C 283.52244 54.716309 283.76834 55.118214 283.988926 55.556327 C 284.205896 55.990819 284.393936 56.454277 284.542199 56.939459 C 284.694078 57.424642 284.806179 57.924308 284.885735 58.438457 C 284.961675 58.956226 285.001452 59.473996 285.001452 59.999007 M 285.001452 59.999007 C 285.001452 59.473996 285.037614 58.956226 285.113554 58.438457 C 285.193109 57.924308 285.30521 57.424642 285.457089 56.939459 C 285.608968 56.454277 285.793393 55.990819 286.010363 55.556327 C 286.230949 55.118214 286.480464 54.716309 286.758909 54.34337 C 287.037354 53.970431 287.337496 53.640941 287.666567 53.347659 C 287.995638 53.057998 288.339174 52.808165 288.704407 52.609023 C 289.069639 52.40626 289.442104 52.257809 289.829034 52.152806 C 290.215964 52.051425 290.60651 52.000734 291.000672 52.000734 C 291.394834 52.000734 291.78538 52.051425 292.168694 52.152806 C 292.555624 52.257809 292.931705 52.40626 293.296938 52.609023 C 293.658554 52.808165 294.005706 53.057998 294.334777 53.347659 C 294.660232 53.640941 294.96399 53.970431 295.242435 54.34337 C 295.52088 54.716309 295.770395 55.118214 295.987365 55.556327 C 296.207951 55.990819 296.392376 56.454277 296.544255 56.939459 C 296.692518 57.424642 296.808235 57.924308 296.884175 58.438457 C 296.960114 58.956226 296.999892 59.473996 296.999892 59.999007 M 296.999892 59.999007 C 296.999892 59.473996 297.03967 58.956226 297.115609 58.438457 C 297.191549 57.924308 297.307266 57.424642 297.455529 56.939459 C 297.607408 56.454277 297.791832 55.990819 298.012418 55.556327 C 298.229388 55.118214 298.478904 54.716309 298.757349 54.34337 C 299.035793 53.970431 299.339551 53.640941 299.665006 53.347659 C 299.994077 53.057998 300.341229 52.808165 300.702846 52.609023 C 301.068079 52.40626 301.44416 52.257809 301.83109 52.152806 C 302.214404 52.051425 302.604949 52.000734 302.999112 52.000734 C 303.393274 52.000734 303.78382 52.051425 304.170749 52.152806 C 304.557679 52.257809 304.933761 52.40626 305.295377 52.609023 C 305.66061 52.808165 306.004146 53.057998 306.333217 53.347659 C 306.662288 53.640941 306.96243 53.970431 307.240875 54.34337 C 307.522936 54.716309 307.768835 55.118214 307.989421 55.556327 C 308.206391 55.990819 308.390815 56.454277 308.542694 56.939459 C 308.694573 57.424642 308.806675 57.924308 308.88623 58.438457 C 308.96217 58.956226 308.998331 59.473996 308.998331 59.999007 " stroke="#000000" stroke-width="2" stroke-opacity="1" stroke-miterlimit="4"/><path stroke-linecap="square" transform="matrix(1.080219, 0, 0, 1.078846, 0.00722418, -5.405484)" fill="none" stroke-linejoin="miter" d="M 50.001275 160.000949 L 50.001275 210.00011 " stroke="#000000" stroke-width="2" stroke-opacity="1" stroke-miterlimit="4"/><path stroke-linecap="square" transform="matrix(1.080219, 0, 0, 1.078846, 0.00722418, -5.405484)" fill="none" stroke-linejoin="miter" d="M 50.001275 59.999007 L 50.001275 119.998724 " stroke="#000000" stroke-width="2" stroke-opacity="1" stroke-miterlimit="4"/><path stroke-linecap="square" transform="matrix(1.080219, 0, 0, 1.078846, 0.00722418, -5.405484)" fill="none" stroke-linejoin="miter" d="M 470.0009 160.000949 L 470.0009 199.999554 " stroke="#000000" stroke-width="2" stroke-opacity="1" stroke-miterlimit="4"/><path stroke-linecap="square" transform="matrix(1.080219, 0, 0, 1.078846, 0.00722418, -5.405484)" fill="none" stroke-linejoin="miter" d="M 470.0009 59.999007 L 470.0009 110.001788 " stroke="#000000" stroke-width="2" stroke-opacity="1" stroke-miterlimit="4"/><path stroke-linecap="square" transform="matrix(1.080219, 0, 0, 1.078846, 0.00722418, -5.405484)" fill="none" stroke-linejoin="miter" d="M 470.0009 199.999554 L 470.0009 199.999554 " stroke="#000000" stroke-width="2" stroke-opacity="1" stroke-miterlimit="4"/><path stroke-linecap="square" transform="matrix(1.080219, 0, 0, 1.078846, 0.00722418, -5.405484)" fill="none" stroke-linejoin="miter" d="M 470.0009 199.999554 L 470.0009 208.001447 " stroke="#000000" stroke-width="2" stroke-opacity="1" stroke-miterlimit="4"/><path stroke-linecap="square" transform="matrix(1.080219, 0, 0, 1.078846, 0.00722418, -5.405484)" fill="none" stroke-linejoin="miter" d="M 461.998324 208.001447 L 477.999859 208.001447 L 470.0009 215.99972 Z M 461.998324 208.001447 " stroke="#000000" stroke-width="2" stroke-opacity="1" stroke-miterlimit="4"/><path stroke-linecap="square" transform="matrix(1.080219, 0, 0, 1.078846, 0.00722418, -5.405484)" fill="none" stroke-linejoin="miter" d="M 209.998549 199.999554 L 209.998549 211.998773 " stroke="#000000" stroke-width="2" stroke-opacity="1" stroke-miterlimit="4"/><path stroke-linecap="square" transform="matrix(1.080219, 0, 0, 1.078846, 0.00722418, -5.405484)" fill="none" stroke-linejoin="miter" d="M 201.999589 211.998773 L 218.001125 211.998773 L 209.998549 220.000666 Z M 201.999589 211.998773 " stroke="#000000" stroke-width="2" stroke-opacity="1" stroke-miterlimit="4"/><path stroke-linecap="square" transform="matrix(1.080219, 0, 0, 1.078846, 0.00722418, -5.405484)" fill="none" stroke-linejoin="miter" d="M 50.001275 210.00011 L 50.001275 211.998773 " stroke="#000000" stroke-width="2" stroke-opacity="1" stroke-miterlimit="4"/><path stroke-linecap="square" transform="matrix(1.080219, 0, 0, 1.078846, 0.00722418, -5.405484)" fill="none" stroke-linejoin="miter" d="M 41.998699 211.998773 L 58.000235 211.998773 L 50.001275 220.000666 Z M 41.998699 211.998773 " stroke="#000000" stroke-width="2" stroke-opacity="1" stroke-miterlimit="4"/><path stroke-linecap="square" transform="matrix(1.080219, 0, 0, 1.078846, 0.00722418, -5.405484)" fill="none" stroke-linejoin="miter" d="M 209.998549 110.001788 L 209.998549 130.998612 " stroke="#000000" stroke-width="2" stroke-opacity="1" stroke-miterlimit="4"/><path stroke-linecap="square" transform="matrix(1.080219, 0, 0, 1.078846, 0.00722418, -5.405484)" fill="none" stroke-linejoin="miter" d="M 209.998549 139.000505 L 209.998549 160.000949 " stroke="#000000" stroke-width="2" stroke-opacity="1" stroke-miterlimit="4"/><path stroke-linecap="square" transform="matrix(1.080219, 0, 0, 1.078846, 0.00722418, -5.405484)" fill="none" stroke-linejoin="miter" d="M 196.00037 130.998612 L 224.000345 130.998612 " stroke="#000000" stroke-width="2" stroke-opacity="1" stroke-miterlimit="4"/><path stroke-linecap="square" transform="matrix(1.080219, 0, 0, 1.078846, 0.00722418, -5.405484)" fill="none" stroke-linejoin="miter" d="M 196.00037 139.000505 L 224.000345 139.000505 " stroke="#000000" stroke-width="2" stroke-opacity="1" stroke-miterlimit="4"/><path stroke-linecap="square" transform="matrix(1.080219, 0, 0, 1.078846, 0.00722418, -5.405484)" fill="none" stroke-linejoin="miter" d="M 99.998389 59.999007 L 104.999547 59.999007 " stroke="#000000" stroke-width="2" stroke-opacity="1" stroke-miterlimit="4"/><path stroke-linecap="square" transform="matrix(1.080219, 0, 0, 1.078846, 0.00722418, -5.405484)" fill="none" stroke-linejoin="miter" d="M 145.001577 59.999007 L 149.999119 59.999007 " stroke="#000000" stroke-width="2" stroke-opacity="1" stroke-miterlimit="4"/><path stroke-linecap="square" transform="matrix(1.080219, 0, 0, 1.078846, 0.00722418, -5.405484)" fill="none" stroke-linejoin="miter" d="M 104.999547 59.999007 L 106.999287 59.999007 L 110.000705 53.000066 L 115.999924 67.001569 L 121.999144 53.000066 L 127.998364 67.001569 L 134.0012 53.000066 L 140.00042 67.001569 L 142.998221 59.999007 L 145.001577 59.999007 " stroke="#000000" stroke-width="2" stroke-opacity="1" stroke-miterlimit="4"/><path stroke-linecap="square" transform="matrix(1.080219, 0, 0, 1.078846, 0.00722418, -5.405484)" fill="none" stroke-linejoin="miter" d="M 470.0009 110.001788 L 470.0009 114.998446 " stroke="#000000" stroke-width="2" stroke-opacity="1" stroke-miterlimit="4"/><path stroke-linecap="square" transform="matrix(1.080219, 0, 0, 1.078846, 0.00722418, -5.405484)" fill="none" stroke-linejoin="miter" d="M 470.0009 155.000671 L 470.0009 160.000949 " stroke="#000000" stroke-width="2" stroke-opacity="1" stroke-miterlimit="4"/><path stroke-linecap="square" transform="matrix(1.080219, 0, 0, 1.078846, 0.00722418, -5.405484)" fill="none" stroke-linejoin="miter" d="M 470.0009 114.998446 L 470.0009 117.000729 L 463.000002 119.998724 L 477.001797 125.998334 L 463.000002 132.001564 L 477.001797 138.001174 L 463.000002 144.000783 L 477.001797 150.000393 L 470.0009 152.998387 L 470.0009 155.000671 " stroke="#000000" stroke-width="2" stroke-opacity="1" stroke-miterlimit="4"/><path stroke-linecap="square" transform="matrix(1.080219, 0, 0, 1.078846, 0.00722418, -5.405484)" fill="none" stroke-linejoin="miter" d="M 50.001275 119.998724 L 50.001275 128.000617 " stroke="#000000" stroke-width="2" stroke-opacity="1" stroke-miterlimit="4"/><path stroke-linecap="butt" transform="matrix(1.080219, 0, 0, 1.078846, 0.00722418, -5.405484)" fill="none" stroke-linejoin="miter" d="M 61.999714 139.999837 C 61.999714 140.789164 61.923775 141.567628 61.76828 142.342472 C 61.616401 143.113696 61.388582 143.863194 61.084824 144.590968 C 60.784683 145.318742 60.415834 146.010309 59.978277 146.665667 C 59.540721 147.321026 59.04169 147.929315 58.484801 148.486913 C 57.927911 149.04089 57.320395 149.540556 56.665869 149.978668 C 56.011343 150.416781 55.320655 150.786099 54.593806 151.086623 C 53.86334 151.387146 53.114794 151.615255 52.340934 151.770948 C 51.567075 151.92302 50.789599 151.999056 50.001275 151.999056 C 49.212951 151.999056 48.431859 151.92302 47.657999 151.770948 C 46.887756 151.615255 46.135593 151.387146 45.408744 151.086623 C 44.678278 150.786099 43.98759 150.416781 43.333064 149.978668 C 42.678538 149.540556 42.071022 149.04089 41.514133 148.486913 C 40.957243 147.929315 40.461828 147.321026 40.020656 146.665667 C 39.5831 146.010309 39.214251 145.318742 38.914109 144.590968 C 38.610351 143.863194 38.382533 143.113696 38.230654 142.342472 C 38.075159 141.567628 37.999219 140.789164 37.999219 139.999837 C 37.999219 139.21051 38.075159 138.432045 38.230654 137.657201 C 38.382533 136.885978 38.610351 136.136479 38.914109 135.408705 C 39.214251 134.680931 39.5831 133.989365 40.020656 133.334006 C 40.461828 132.678647 40.957243 132.070359 41.514133 131.516381 C 42.071022 130.958783 42.678538 130.459118 43.333064 130.021005 C 43.98759 129.582892 44.678278 129.213574 45.408744 128.91305 C 46.135593 128.612527 46.887756 128.384419 47.657999 128.232346 C 48.431859 128.076653 49.212951 128.000617 50.001275 128.000617 C 50.789599 128.000617 51.567075 128.076653 52.340934 128.232346 C 53.114794 128.384419 53.86334 128.612527 54.593806 128.91305 C 55.320655 129.213574 56.011343 129.582892 56.665869 130.021005 C 57.320395 130.459118 57.927911 130.958783 58.484801 131.516381 C 59.04169 132.070359 59.540721 132.678647 59.978277 133.334006 C 60.415834 133.989365 60.784683 134.680931 61.084824 135.408705 C 61.388582 136.136479 61.616401 136.885978 61.76828 137.657201 C 61.923775 138.432045 61.999714 139.21051 61.999714 139.999837 Z M 61.999714 139.999837 " stroke="#000000" stroke-width="2" stroke-opacity="1" stroke-miterlimit="4"/><path stroke-linecap="square" transform="matrix(1.080219, 0, 0, 1.078846, 0.00722418, -5.405484)" fill="none" stroke-linejoin="miter" d="M 50.001275 151.999056 L 50.001275 160.000949 " stroke="#000000" stroke-width="2" stroke-opacity="1" stroke-miterlimit="4"/><path stroke-linecap="square" transform="matrix(1.080219, 0, 0, 1.078846, 0.00722418, -5.405484)" fill="none" stroke-linejoin="miter" d="M 41.998699 139.999837 C 41.998699 139.739141 42.024012 139.478446 42.078255 139.221372 C 42.128881 138.960677 42.204821 138.710844 42.306073 138.468252 C 42.40371 138.225661 42.526659 137.997553 42.674922 137.776686 C 42.819569 137.55944 42.985912 137.356677 43.170337 137.172018 C 43.358378 136.987359 43.560883 136.820804 43.777853 136.672352 C 43.994823 136.527522 44.226257 136.404416 44.468541 136.303034 C 44.710824 136.205274 44.960339 136.129237 45.220703 136.078547 C 45.477451 136.024235 45.737815 135.99889 46.001795 135.99889 C 46.262159 135.99889 46.522523 136.024235 46.779271 136.078547 C 47.039635 136.129237 47.28915 136.205274 47.531433 136.303034 C 47.773716 136.404416 48.005151 136.527522 48.222121 136.672352 C 48.439091 136.820804 48.641596 136.987359 48.829637 137.172018 C 49.014061 137.356677 49.180405 137.55944 49.325052 137.776686 C 49.473315 137.997553 49.596264 138.225661 49.693901 138.468252 C 49.795153 138.710844 49.871093 138.960677 49.921719 139.221372 C 49.975962 139.478446 50.001275 139.739141 50.001275 139.999837 C 50.001275 140.264153 50.026588 140.521227 50.077214 140.781922 C 50.127841 141.038996 50.20378 141.288829 50.305033 141.531421 C 50.406285 141.774012 50.529235 142.00212 50.673882 142.222987 C 50.818528 142.440233 50.984872 142.642996 51.172913 142.827655 C 51.357337 143.015935 51.559842 143.178869 51.776812 143.327321 C 51.997399 143.472151 52.225217 143.595257 52.4675 143.696639 C 52.7134 143.7944 52.962915 143.870436 53.219663 143.924747 C 53.476411 143.975438 53.736775 144.000783 54.000755 144.000783 C 54.261119 144.000783 54.521483 143.975438 54.781847 143.924747 C 55.038594 143.870436 55.28811 143.7944 55.530393 143.696639 C 55.772676 143.595257 56.004111 143.472151 56.221081 143.327321 C 56.441667 143.178869 56.644172 143.015935 56.828597 142.827655 C 57.013021 142.642996 57.179365 142.440233 57.327628 142.222987 C 57.472274 142.00212 57.595224 141.774012 57.696477 141.531421 C 57.797729 141.288829 57.873669 141.038996 57.924295 140.781922 C 57.974921 140.521227 58.000235 140.264153 58.000235 139.999837 " stroke="#000000" stroke-width="2" stroke-opacity="1" stroke-miterlimit="4"/><path stroke-linecap="butt" transform="matrix(1.080219, 0, 0, 1.078846, 0.00722418, -5.405484)" fill-opacity="1" fill="#000000" fill-rule="nonzero" stroke-linejoin="miter" d="M 352.00178 59.999007 C 351.998164 60.266943 351.947537 60.520397 351.846285 60.766609 C 351.745032 61.009201 351.600385 61.226447 351.415961 61.414726 C 351.22792 61.603006 351.01095 61.747837 350.765051 61.849218 C 350.519152 61.9506 350.26602 62.00129 349.998424 62.00129 C 349.734444 62.00129 349.481312 61.9506 349.235413 61.849218 C 348.989513 61.747837 348.772544 61.603006 348.584503 61.414726 C 348.396462 61.226447 348.255432 61.009201 348.150563 60.766609 C 348.04931 60.520397 347.998684 60.266943 347.998684 59.999007 C 347.998684 59.734691 348.04931 59.481237 348.150563 59.235025 C 348.255432 58.988813 348.396462 58.771567 348.584503 58.586908 C 348.772544 58.398628 348.989513 58.253797 349.235413 58.152416 C 349.481312 58.051035 349.734444 58.000344 349.998424 58.000344 C 350.26602 58.000344 350.519152 58.051035 350.765051 58.152416 C 351.01095 58.253797 351.22792 58.398628 351.415961 58.586908 C 351.600385 58.771567 351.745032 58.988813 351.846285 59.235025 C 351.947537 59.481237 351.998164 59.734691 352.00178 59.999007 Z M 352.00178 59.999007 " stroke="#000000" stroke-width="2" stroke-opacity="1" stroke-miterlimit="4"/><path stroke-linecap="butt" transform="matrix(1.080219, 0, 0, 1.078846, 0.00722418, -5.405484)" fill-opacity="1" fill="#000000" fill-rule="nonzero" stroke-linejoin="miter" d="M 211.998289 59.999007 C 211.998289 60.266943 211.947663 60.520397 211.84641 60.766609 C 211.745157 61.009201 211.600511 61.226447 211.41247 61.414726 C 211.228045 61.603006 211.011075 61.747837 210.765176 61.849218 C 210.519277 61.9506 210.266145 62.00129 209.998549 62.00129 C 209.734569 62.00129 209.481437 61.9506 209.235538 61.849218 C 208.989639 61.747837 208.772669 61.603006 208.584628 61.414726 C 208.396587 61.226447 208.251941 61.009201 208.150688 60.766609 C 208.049435 60.520397 207.998809 60.266943 207.998809 59.999007 C 207.998809 59.734691 208.049435 59.481237 208.150688 59.235025 C 208.251941 58.988813 208.396587 58.771567 208.584628 58.586908 C 208.772669 58.398628 208.989639 58.253797 209.235538 58.152416 C 209.481437 58.051035 209.734569 58.000344 209.998549 58.000344 C 210.266145 58.000344 210.519277 58.051035 210.765176 58.152416 C 211.011075 58.253797 211.228045 58.398628 211.41247 58.586908 C 211.600511 58.771567 211.745157 58.988813 211.84641 59.235025 C 211.947663 59.481237 211.998289 59.734691 211.998289 59.999007 Z M 211.998289 59.999007 " stroke="#000000" stroke-width="2" stroke-opacity="1" stroke-miterlimit="4"/><g fill="#000000" fill-opacity="1"><g transform="translate(128.152544, 27.833432)"><g><path d="M 1.21875 -11.09375 L 5.28125 -11.09375 C 6.457031 -11.09375 7.382812 -10.804688 8.0625 -10.234375 C 8.75 -9.671875 9.09375 -8.835938 9.09375 -7.734375 C 9.09375 -6.960938 8.925781 -6.332031 8.59375 -5.84375 C 8.269531 -5.351562 7.804688 -4.957031 7.203125 -4.65625 L 9.71875 0 L 7.453125 0 L 5.3125 -4.125 L 3.25 -4.125 L 3.25 0 L 1.21875 0 Z M 4.734375 -5.8125 C 6.222656 -5.8125 6.96875 -6.414062 6.96875 -7.625 C 6.96875 -8.207031 6.796875 -8.644531 6.453125 -8.9375 C 6.117188 -9.238281 5.570312 -9.390625 4.8125 -9.390625 L 3.25 -9.390625 L 3.25 -5.8125 Z M 4.734375 -5.8125 "/></g></g></g><g fill="#000000" fill-opacity="1"><g transform="translate(138.06516, 27.833432)"><g><path d="M 3.171875 0.15625 C 2.660156 0.15625 2.195312 0.109375 1.78125 0.015625 C 1.363281 -0.078125 0.929688 -0.222656 0.484375 -0.421875 L 0.671875 -2.109375 C 1.109375 -1.847656 1.519531 -1.648438 1.90625 -1.515625 C 2.289062 -1.378906 2.691406 -1.3125 3.109375 -1.3125 C 3.910156 -1.3125 4.3125 -1.578125 4.3125 -2.109375 C 4.3125 -2.390625 4.203125 -2.609375 3.984375 -2.765625 C 3.773438 -2.921875 3.398438 -3.101562 2.859375 -3.3125 C 2.066406 -3.59375 1.488281 -3.914062 1.125 -4.28125 C 0.757812 -4.644531 0.578125 -5.140625 0.578125 -5.765625 C 0.578125 -6.453125 0.835938 -7.007812 1.359375 -7.4375 C 1.890625 -7.863281 2.601562 -8.078125 3.5 -8.078125 C 4.394531 -8.078125 5.210938 -7.875 5.953125 -7.46875 L 5.78125 -5.78125 C 5.382812 -6.050781 5.007812 -6.257812 4.65625 -6.40625 C 4.300781 -6.5625 3.925781 -6.640625 3.53125 -6.640625 C 3.195312 -6.640625 2.9375 -6.570312 2.75 -6.4375 C 2.5625 -6.300781 2.46875 -6.101562 2.46875 -5.84375 C 2.46875 -5.644531 2.519531 -5.484375 2.625 -5.359375 C 2.738281 -5.234375 2.894531 -5.117188 3.09375 -5.015625 C 3.300781 -4.910156 3.640625 -4.769531 4.109375 -4.59375 C 4.878906 -4.300781 5.429688 -3.976562 5.765625 -3.625 C 6.109375 -3.269531 6.28125 -2.796875 6.28125 -2.203125 C 6.28125 -1.453125 6.007812 -0.867188 5.46875 -0.453125 C 4.925781 -0.046875 4.160156 0.15625 3.171875 0.15625 Z M 3.171875 0.15625 "/></g></g></g><g fill="#000000" fill-opacity="1"><g transform="translate(144.763301, 27.833432)"><g/></g></g><g fill="#000000" fill-opacity="1"><g transform="translate(148.326143, 27.833432)"><g><path d="M 2.75 -3.640625 L 0.640625 -3.640625 L 0.640625 -5.140625 L 2.75 -5.140625 L 2.75 -7.25 L 4.375 -7.25 L 4.375 -5.140625 L 6.5 -5.140625 L 6.5 -3.640625 L 4.375 -3.640625 L 4.375 -1.515625 L 2.75 -1.515625 Z M 2.75 -3.640625 "/></g></g></g><g fill="#000000" fill-opacity="1"><g transform="translate(155.451828, 27.833432)"><g/></g></g><g fill="#000000" fill-opacity="1"><g transform="translate(159.014671, 27.833432)"><g><path d="M 0.921875 -11.09375 L 2.890625 -11.09375 L 2.890625 -9.125 L 0.921875 -9.125 Z M -0.03125 2.21875 C 0.332031 2.21875 0.582031 2.125 0.71875 1.9375 C 0.851562 1.757812 0.921875 1.429688 0.921875 0.953125 L 0.921875 -7.921875 L 2.890625 -7.921875 L 2.890625 1.765625 C 2.890625 2.554688 2.71875 3.097656 2.375 3.390625 C 2.03125 3.679688 1.492188 3.828125 0.765625 3.828125 L 0.140625 3.828125 Z M -0.03125 2.21875 "/></g></g></g><g fill="#000000" fill-opacity="1"><g transform="translate(162.815033, 27.833432)"><g><path d="M 3.84375 -5.6875 L 0.15625 -11.09375 L 2.40625 -11.09375 L 4.953125 -7.3125 L 7.515625 -11.09375 L 9.765625 -11.09375 L 6.0625 -5.6875 L 9.953125 0 L 7.703125 0 L 4.953125 -4.046875 L 2.21875 0 L -0.03125 0 Z M 3.84375 -5.6875 "/></g></g></g><g fill="#000000" fill-opacity="1"><g transform="translate(172.72765, 27.833432)"><g><path d="M 3.171875 0.15625 C 2.660156 0.15625 2.195312 0.109375 1.78125 0.015625 C 1.363281 -0.078125 0.929688 -0.222656 0.484375 -0.421875 L 0.671875 -2.109375 C 1.109375 -1.847656 1.519531 -1.648438 1.90625 -1.515625 C 2.289062 -1.378906 2.691406 -1.3125 3.109375 -1.3125 C 3.910156 -1.3125 4.3125 -1.578125 4.3125 -2.109375 C 4.3125 -2.390625 4.203125 -2.609375 3.984375 -2.765625 C 3.773438 -2.921875 3.398438 -3.101562 2.859375 -3.3125 C 2.066406 -3.59375 1.488281 -3.914062 1.125 -4.28125 C 0.757812 -4.644531 0.578125 -5.140625 0.578125 -5.765625 C 0.578125 -6.453125 0.835938 -7.007812 1.359375 -7.4375 C 1.890625 -7.863281 2.601562 -8.078125 3.5 -8.078125 C 4.394531 -8.078125 5.210938 -7.875 5.953125 -7.46875 L 5.78125 -5.78125 C 5.382812 -6.050781 5.007812 -6.257812 4.65625 -6.40625 C 4.300781 -6.5625 3.925781 -6.640625 3.53125 -6.640625 C 3.195312 -6.640625 2.9375 -6.570312 2.75 -6.4375 C 2.5625 -6.300781 2.46875 -6.101562 2.46875 -5.84375 C 2.46875 -5.644531 2.519531 -5.484375 2.625 -5.359375 C 2.738281 -5.234375 2.894531 -5.117188 3.09375 -5.015625 C 3.300781 -4.910156 3.640625 -4.769531 4.109375 -4.59375 C 4.878906 -4.300781 5.429688 -3.976562 5.765625 -3.625 C 6.109375 -3.269531 6.28125 -2.796875 6.28125 -2.203125 C 6.28125 -1.453125 6.007812 -0.867188 5.46875 -0.453125 C 4.925781 -0.046875 4.160156 0.15625 3.171875 0.15625 Z M 3.171875 0.15625 "/></g></g></g><g fill="#000000" fill-opacity="1"><g transform="translate(429.93367, 145.734598)"><g><path d="M 1.21875 -11.09375 L 5.28125 -11.09375 C 6.457031 -11.09375 7.382812 -10.804688 8.0625 -10.234375 C 8.75 -9.671875 9.09375 -8.835938 9.09375 -7.734375 C 9.09375 -6.960938 8.925781 -6.332031 8.59375 -5.84375 C 8.269531 -5.351562 7.804688 -4.957031 7.203125 -4.65625 L 9.71875 0 L 7.453125 0 L 5.3125 -4.125 L 3.25 -4.125 L 3.25 0 L 1.21875 0 Z M 4.734375 -5.8125 C 6.222656 -5.8125 6.96875 -6.414062 6.96875 -7.625 C 6.96875 -8.207031 6.796875 -8.644531 6.453125 -8.9375 C 6.117188 -9.238281 5.570312 -9.390625 4.8125 -9.390625 L 3.25 -9.390625 L 3.25 -5.8125 Z M 4.734375 -5.8125 "/></g></g></g><g fill="#000000" fill-opacity="1"><g transform="translate(439.846287, 145.734598)"><g><path d="M 1.21875 -11.09375 L 3.25 -11.09375 L 3.25 -1.8125 L 7.8125 -1.8125 L 7.8125 0 L 1.21875 0 Z M 1.21875 -11.09375 "/></g></g></g><g fill="#000000" fill-opacity="1"><g transform="translate(447.76371, 145.734598)"><g/></g></g><g fill="#000000" fill-opacity="1"><g transform="translate(451.326553, 145.734598)"><g><path d="M 2.75 -3.640625 L 0.640625 -3.640625 L 0.640625 -5.140625 L 2.75 -5.140625 L 2.75 -7.25 L 4.375 -7.25 L 4.375 -5.140625 L 6.5 -5.140625 L 6.5 -3.640625 L 4.375 -3.640625 L 4.375 -1.515625 L 2.75 -1.515625 Z M 2.75 -3.640625 "/></g></g></g><g fill="#000000" fill-opacity="1"><g transform="translate(458.452238, 145.734598)"><g/></g></g><g fill="#000000" fill-opacity="1"><g transform="translate(462.01508, 145.734598)"><g><path d="M 0.921875 -11.09375 L 2.890625 -11.09375 L 2.890625 -9.125 L 0.921875 -9.125 Z M -0.03125 2.21875 C 0.332031 2.21875 0.582031 2.125 0.71875 1.9375 C 0.851562 1.757812 0.921875 1.429688 0.921875 0.953125 L 0.921875 -7.921875 L 2.890625 -7.921875 L 2.890625 1.765625 C 2.890625 2.554688 2.71875 3.097656 2.375 3.390625 C 2.03125 3.679688 1.492188 3.828125 0.765625 3.828125 L 0.140625 3.828125 Z M -0.03125 2.21875 "/></g></g></g><g fill="#000000" fill-opacity="1"><g transform="translate(465.815443, 145.734598)"><g><path d="M 3.84375 -5.6875 L 0.15625 -11.09375 L 2.40625 -11.09375 L 4.953125 -7.3125 L 7.515625 -11.09375 L 9.765625 -11.09375 L 6.0625 -5.6875 L 9.953125 0 L 7.703125 0 L 4.953125 -4.046875 L 2.21875 0 L -0.03125 0 Z M 3.84375 -5.6875 "/></g></g></g><g fill="#000000" fill-opacity="1"><g transform="translate(475.728059, 145.734598)"><g><path d="M 1.21875 -11.09375 L 3.25 -11.09375 L 3.25 -1.8125 L 7.8125 -1.8125 L 7.8125 0 L 1.21875 0 Z M 1.21875 -11.09375 "/></g></g></g><g clip-path="url(#cbd09a9634)"><path fill="#000000" d="M 197.570312 80.644531 L 193.570312 80.644531 C 193.425781 80.644531 193.300781 80.59375 193.195312 80.492188 C 193.09375 80.386719 193.042969 80.265625 193.042969 80.117188 C 193.042969 79.972656 193.09375 79.847656 193.195312 79.746094 C 193.300781 79.640625 193.425781 79.589844 193.570312 79.589844 L 197.570312 79.589844 C 197.71875 79.589844 197.84375 79.640625 197.945312 79.746094 C 198.050781 79.847656 198.101562 79.972656 198.101562 80.117188 C 198.101562 80.265625 198.050781 80.386719 197.945312 80.492188 C 197.84375 80.59375 197.71875 80.644531 197.570312 80.644531 Z M 189.628906 80.644531 L 185.667969 80.644531 C 185.523438 80.644531 185.398438 80.59375 185.292969 80.492188 C 185.191406 80.386719 185.136719 80.265625 185.136719 80.117188 C 185.136719 79.972656 185.191406 79.847656 185.292969 79.746094 C 185.398438 79.640625 185.523438 79.589844 185.667969 79.589844 L 189.621094 79.589844 C 189.765625 79.589844 189.890625 79.640625 189.992188 79.746094 C 190.097656 79.847656 190.148438 79.972656 190.148438 80.117188 C 190.148438 80.265625 190.097656 80.386719 189.992188 80.492188 C 189.890625 80.59375 189.765625 80.644531 189.621094 80.644531 Z M 181.726562 80.644531 L 177.765625 80.644531 C 177.617188 80.644531 177.492188 80.59375 177.390625 80.492188 C 177.285156 80.386719 177.234375 80.265625 177.234375 80.117188 C 177.234375 79.972656 177.285156 79.847656 177.390625 79.746094 C 177.492188 79.640625 177.617188 79.589844 177.765625 79.589844 L 181.714844 79.589844 C 181.863281 79.589844 181.988281 79.640625 182.089844 79.746094 C 182.195312 79.847656 182.246094 79.972656 182.246094 80.117188 C 182.246094 80.265625 182.195312 80.386719 182.089844 80.492188 C 181.988281 80.59375 181.863281 80.644531 181.714844 80.644531 Z M 173.824219 80.644531 L 169.859375 80.644531 C 169.714844 80.644531 169.589844 80.59375 169.484375 80.492188 C 169.382812 80.386719 169.332031 80.265625 169.332031 80.117188 C 169.332031 79.972656 169.382812 79.847656 169.484375 79.746094 C 169.589844 79.640625 169.714844 79.589844 169.859375 79.589844 L 173.8125 79.589844 C 173.957031 79.589844 174.082031 79.640625 174.1875 79.746094 C 174.289062 79.847656 174.339844 79.972656 174.339844 80.117188 C 174.339844 80.265625 174.289062 80.386719 174.1875 80.492188 C 174.082031 80.59375 173.957031 80.644531 173.8125 80.644531 Z M 165.917969 80.644531 L 161.957031 80.644531 C 161.808594 80.644531 161.683594 80.59375 161.582031 80.492188 C 161.480469 80.386719 161.425781 80.265625 161.425781 80.117188 C 161.425781 79.972656 161.480469 79.847656 161.582031 79.746094 C 161.683594 79.640625 161.808594 79.589844 161.957031 79.589844 L 165.910156 79.589844 C 166.054688 79.589844 166.179688 79.640625 166.28125 79.746094 C 166.386719 79.847656 166.4375 79.972656 166.4375 80.117188 C 166.4375 80.265625 166.386719 80.386719 166.28125 80.492188 C 166.179688 80.59375 166.054688 80.644531 165.910156 80.644531 Z M 158.015625 80.644531 L 154.050781 80.644531 C 153.90625 80.644531 153.78125 80.59375 153.679688 80.492188 C 153.574219 80.386719 153.523438 80.265625 153.523438 80.117188 C 153.523438 79.972656 153.574219 79.847656 153.679688 79.746094 C 153.78125 79.640625 153.90625 79.589844 154.050781 79.589844 L 158.003906 79.589844 C 158.152344 79.589844 158.277344 79.640625 158.378906 79.746094 C 158.480469 79.847656 158.535156 79.972656 158.535156 80.117188 C 158.535156 80.265625 158.480469 80.386719 158.378906 80.492188 C 158.277344 80.59375 158.152344 80.644531 158.003906 80.644531 Z M 150.101562 80.644531 L 146.148438 80.644531 C 146.003906 80.644531 145.878906 80.59375 145.773438 80.492188 C 145.671875 80.386719 145.621094 80.265625 145.621094 80.117188 C 145.621094 79.972656 145.671875 79.847656 145.773438 79.746094 C 145.878906 79.640625 146.003906 79.589844 146.148438 79.589844 L 150.101562 79.589844 C 150.246094 79.589844 150.371094 79.640625 150.476562 79.746094 C 150.578125 79.847656 150.628906 79.972656 150.628906 80.117188 C 150.628906 80.265625 150.578125 80.386719 150.476562 80.492188 C 150.371094 80.59375 150.246094 80.644531 150.101562 80.644531 Z M 142.195312 80.644531 L 138.246094 80.644531 C 138.097656 80.644531 137.972656 80.59375 137.871094 80.492188 C 137.765625 80.386719 137.714844 80.265625 137.714844 80.117188 C 137.714844 79.972656 137.765625 79.847656 137.871094 79.746094 C 137.972656 79.640625 138.097656 79.589844 138.246094 79.589844 L 142.195312 79.589844 C 142.34375 79.589844 142.46875 79.640625 142.570312 79.746094 C 142.675781 79.847656 142.726562 79.972656 142.726562 80.117188 C 142.726562 80.265625 142.675781 80.386719 142.570312 80.492188 C 142.46875 80.59375 142.34375 80.644531 142.195312 80.644531 Z M 134.292969 80.644531 L 130.339844 80.644531 C 130.195312 80.644531 130.070312 80.59375 129.96875 80.492188 C 129.863281 80.386719 129.8125 80.265625 129.8125 80.117188 C 129.8125 79.972656 129.863281 79.847656 129.96875 79.746094 C 130.070312 79.640625 130.195312 79.589844 130.339844 79.589844 L 134.292969 79.589844 C 134.4375 79.589844 134.5625 79.640625 134.667969 79.746094 C 134.769531 79.847656 134.824219 79.972656 134.824219 80.117188 C 134.824219 80.265625 134.769531 80.386719 134.667969 80.492188 C 134.5625 80.59375 134.4375 80.644531 134.292969 80.644531 Z M 126.390625 80.644531 L 122.4375 80.644531 C 122.292969 80.644531 122.167969 80.59375 122.0625 80.492188 C 121.960938 80.386719 121.90625 80.265625 121.90625 80.117188 C 121.90625 79.972656 121.960938 79.847656 122.0625 79.746094 C 122.167969 79.640625 122.292969 79.589844 122.4375 79.589844 L 126.390625 79.589844 C 126.535156 79.589844 126.660156 79.640625 126.761719 79.746094 C 126.867188 79.847656 126.917969 79.972656 126.917969 80.117188 C 126.917969 80.265625 126.867188 80.386719 126.761719 80.492188 C 126.660156 80.59375 126.535156 80.644531 126.390625 80.644531 Z M 118.484375 80.644531 L 114.53125 80.644531 C 114.382812 80.644531 114.261719 80.59375 114.15625 80.492188 C 114.054688 80.386719 114 80.265625 114 80.117188 C 114 79.972656 114.054688 79.847656 114.15625 79.746094 C 114.261719 79.640625 114.382812 79.589844 114.53125 79.589844 L 118.484375 79.589844 C 118.632812 79.589844 118.757812 79.640625 118.859375 79.746094 C 118.964844 79.847656 119.015625 79.972656 119.015625 80.117188 C 119.015625 80.265625 118.964844 80.386719 118.859375 80.492188 C 118.757812 80.59375 118.632812 80.644531 118.484375 80.644531 Z M 110.578125 80.644531 L 110.089844 80.644531 C 108.875 80.648438 107.683594 80.46875 106.523438 80.105469 C 106.375 80.070312 106.261719 79.984375 106.1875 79.851562 C 106.113281 79.71875 106.097656 79.582031 106.144531 79.433594 C 106.1875 79.289062 106.28125 79.183594 106.417969 79.117188 C 106.554688 79.050781 106.695312 79.046875 106.839844 79.101562 C 107.898438 79.425781 108.980469 79.589844 110.089844 79.589844 L 110.578125 79.589844 C 110.726562 79.589844 110.851562 79.640625 110.953125 79.746094 C 111.058594 79.847656 111.109375 79.972656 111.109375 80.117188 C 111.109375 80.265625 111.058594 80.386719 110.953125 80.492188 C 110.851562 80.59375 110.726562 80.644531 110.578125 80.644531 Z M 201.453125 79.949219 C 201.324219 79.949219 201.210938 79.90625 201.113281 79.824219 C 201.011719 79.742188 200.953125 79.640625 200.929688 79.511719 C 200.910156 79.386719 200.929688 79.269531 200.992188 79.15625 C 201.058594 79.046875 201.152344 78.96875 201.273438 78.925781 C 202.464844 78.492188 203.542969 77.871094 204.515625 77.058594 C 204.628906 76.964844 204.757812 76.921875 204.902344 76.9375 C 205.050781 76.949219 205.167969 77.011719 205.261719 77.125 C 205.355469 77.234375 205.398438 77.363281 205.382812 77.507812 C 205.371094 77.65625 205.308594 77.773438 205.195312 77.867188 C 204.128906 78.757812 202.941406 79.441406 201.632812 79.917969 C 201.574219 79.9375 201.515625 79.949219 201.453125 79.949219 Z M 103.1875 78.324219 C 103.070312 78.324219 102.964844 78.289062 102.867188 78.21875 C 101.761719 77.378906 100.832031 76.378906 100.074219 75.214844 C 99.992188 75.09375 99.96875 74.960938 100 74.816406 C 100.03125 74.675781 100.105469 74.566406 100.230469 74.484375 C 100.351562 74.40625 100.484375 74.382812 100.628906 74.410156 C 100.769531 74.441406 100.882812 74.519531 100.960938 74.640625 C 101.652344 75.699219 102.503906 76.613281 103.515625 77.375 C 103.714844 77.53125 103.777344 77.726562 103.695312 77.964844 C 103.613281 78.203125 103.445312 78.324219 103.195312 78.324219 Z M 207.386719 75 C 207.292969 75 207.203125 74.976562 207.121094 74.925781 C 206.996094 74.855469 206.914062 74.746094 206.875 74.605469 C 206.839844 74.464844 206.855469 74.332031 206.929688 74.203125 C 207.574219 73.113281 208.007812 71.945312 208.238281 70.703125 C 208.265625 70.558594 208.339844 70.445312 208.457031 70.363281 C 208.578125 70.28125 208.710938 70.25 208.855469 70.277344 C 209 70.304688 209.113281 70.378906 209.195312 70.496094 C 209.277344 70.617188 209.308594 70.75 209.28125 70.894531 C 209.03125 72.257812 208.550781 73.539062 207.847656 74.738281 C 207.742188 74.914062 207.589844 75 207.386719 75 Z M 98.964844 71.851562 C 98.839844 71.851562 98.734375 71.8125 98.636719 71.738281 C 98.539062 71.660156 98.480469 71.5625 98.449219 71.445312 C 98.242188 70.546875 98.136719 69.640625 98.136719 68.722656 L 98.136719 67.402344 C 98.136719 67.253906 98.1875 67.132812 98.289062 67.027344 C 98.394531 66.925781 98.519531 66.875 98.664062 66.875 C 98.8125 66.875 98.9375 66.925781 99.039062 67.027344 C 99.144531 67.132812 99.195312 67.253906 99.195312 67.402344 L 99.195312 68.722656 C 99.195312 69.558594 99.289062 70.386719 99.480469 71.203125 C 99.511719 71.347656 99.492188 71.480469 99.414062 71.601562 C 99.335938 71.726562 99.226562 71.804688 99.085938 71.835938 C 99.046875 71.847656 99.003906 71.851562 98.964844 71.851562 Z M 208.949219 67.398438 C 208.800781 67.398438 208.675781 67.347656 208.574219 67.246094 C 208.46875 67.140625 208.417969 67.015625 208.417969 66.871094 L 208.417969 62.929688 C 208.417969 62.785156 208.46875 62.660156 208.574219 62.558594 C 208.675781 62.453125 208.800781 62.402344 208.949219 62.402344 C 209.09375 62.402344 209.21875 62.453125 209.320312 62.558594 C 209.425781 62.660156 209.476562 62.785156 209.476562 62.929688 L 209.476562 66.871094 C 209.476562 67.015625 209.425781 67.140625 209.320312 67.246094 C 209.21875 67.347656 209.09375 67.398438 208.949219 67.398438 Z M 98.664062 63.996094 C 98.519531 63.996094 98.394531 63.941406 98.289062 63.839844 C 98.1875 63.738281 98.136719 63.613281 98.136719 63.46875 L 98.136719 59.535156 C 98.136719 59.390625 98.1875 59.265625 98.289062 59.160156 C 98.394531 59.058594 98.519531 59.007812 98.664062 59.007812 C 98.8125 59.007812 98.9375 59.058594 99.039062 59.160156 C 99.144531 59.265625 99.195312 59.390625 99.195312 59.535156 L 99.195312 63.46875 C 99.195312 63.613281 99.144531 63.738281 99.039062 63.839844 C 98.9375 63.941406 98.8125 63.996094 98.664062 63.996094 Z M 208.949219 59.507812 C 208.800781 59.507812 208.675781 59.457031 208.574219 59.355469 C 208.46875 59.25 208.417969 59.125 208.417969 58.980469 L 208.417969 55.050781 C 208.417969 54.902344 208.46875 54.777344 208.574219 54.675781 C 208.675781 54.574219 208.800781 54.519531 208.949219 54.519531 C 209.09375 54.519531 209.21875 54.574219 209.320312 54.675781 C 209.425781 54.777344 209.476562 54.902344 209.476562 55.050781 L 209.476562 58.988281 C 209.476562 59.136719 209.425781 59.261719 209.324219 59.363281 C 209.21875 59.46875 209.09375 59.519531 208.949219 59.519531 Z M 98.664062 56.105469 C 98.519531 56.105469 98.394531 56.054688 98.289062 55.949219 C 98.1875 55.847656 98.136719 55.722656 98.136719 55.578125 L 98.136719 51.648438 C 98.136719 51.5 98.1875 51.378906 98.289062 51.273438 C 98.394531 51.171875 98.519531 51.121094 98.664062 51.121094 C 98.8125 51.121094 98.9375 51.171875 99.039062 51.273438 C 99.144531 51.378906 99.195312 51.5 99.195312 51.648438 L 99.195312 55.578125 C 99.195312 55.722656 99.144531 55.847656 99.039062 55.949219 C 98.9375 56.054688 98.8125 56.105469 98.664062 56.105469 Z M 208.949219 51.617188 C 208.800781 51.617188 208.675781 51.566406 208.574219 51.464844 C 208.46875 51.359375 208.417969 51.238281 208.417969 51.089844 L 208.417969 49.800781 C 208.417969 48.953125 208.320312 48.121094 208.128906 47.296875 C 208.085938 47.152344 208.105469 47.015625 208.183594 46.886719 C 208.257812 46.757812 208.371094 46.675781 208.515625 46.640625 C 208.660156 46.609375 208.796875 46.632812 208.925781 46.710938 C 209.050781 46.792969 209.128906 46.90625 209.15625 47.054688 C 209.371094 47.957031 209.476562 48.871094 209.476562 49.800781 L 209.476562 51.089844 C 209.484375 51.242188 209.433594 51.371094 209.328125 51.476562 C 209.226562 51.585938 209.097656 51.640625 208.949219 51.640625 Z M 98.859375 48.25 C 98.828125 48.25 98.796875 48.25 98.761719 48.25 C 98.617188 48.222656 98.503906 48.148438 98.421875 48.027344 C 98.339844 47.90625 98.3125 47.773438 98.339844 47.632812 C 98.59375 46.265625 99.074219 44.988281 99.78125 43.792969 C 99.859375 43.679688 99.96875 43.605469 100.101562 43.574219 C 100.238281 43.546875 100.363281 43.566406 100.484375 43.632812 C 100.601562 43.703125 100.683594 43.804688 100.722656 43.933594 C 100.765625 44.066406 100.753906 44.195312 100.695312 44.320312 C 100.046875 45.410156 99.605469 46.574219 99.371094 47.820312 C 99.347656 47.941406 99.289062 48.042969 99.191406 48.125 C 99.097656 48.203125 98.988281 48.246094 98.859375 48.25 Z M 207.089844 44.121094 C 206.898438 44.121094 206.753906 44.042969 206.648438 43.882812 C 205.957031 42.824219 205.105469 41.914062 204.097656 41.152344 C 203.980469 41.0625 203.914062 40.949219 203.894531 40.804688 C 203.875 40.660156 203.90625 40.527344 203.996094 40.414062 C 204.085938 40.296875 204.203125 40.226562 204.347656 40.207031 C 204.492188 40.1875 204.621094 40.222656 204.738281 40.3125 C 205.847656 41.148438 206.78125 42.144531 207.539062 43.304688 C 207.621094 43.429688 207.644531 43.558594 207.613281 43.703125 C 207.585938 43.847656 207.507812 43.957031 207.386719 44.035156 C 207.296875 44.09375 207.195312 44.125 207.089844 44.121094 Z M 102.785156 41.589844 C 102.542969 41.585938 102.378906 41.46875 102.296875 41.238281 C 102.214844 41.007812 102.269531 40.816406 102.457031 40.660156 C 103.523438 39.769531 104.710938 39.089844 106.019531 38.617188 C 106.160156 38.566406 106.292969 38.574219 106.425781 38.636719 C 106.558594 38.695312 106.648438 38.796875 106.699219 38.933594 C 106.75 39.070312 106.742188 39.203125 106.679688 39.335938 C 106.621094 39.46875 106.519531 39.558594 106.382812 39.609375 C 105.191406 40.035156 104.109375 40.648438 103.132812 41.457031 C 103.035156 41.542969 102.917969 41.589844 102.785156 41.589844 Z M 200.921875 39.480469 C 200.867188 39.480469 200.816406 39.472656 200.761719 39.457031 C 199.710938 39.125 198.628906 38.957031 197.523438 38.953125 L 196.992188 38.953125 C 196.847656 38.953125 196.722656 38.898438 196.621094 38.796875 C 196.515625 38.695312 196.464844 38.570312 196.464844 38.425781 C 196.464844 38.277344 196.515625 38.152344 196.621094 38.050781 C 196.722656 37.949219 196.847656 37.894531 196.992188 37.894531 L 197.523438 37.894531 C 198.730469 37.894531 199.910156 38.070312 201.066406 38.425781 C 201.210938 38.445312 201.328125 38.511719 201.417969 38.628906 C 201.507812 38.746094 201.542969 38.878906 201.523438 39.023438 C 201.503906 39.167969 201.433594 39.285156 201.316406 39.375 C 201.199219 39.464844 201.066406 39.5 200.921875 39.480469 Z M 193.054688 38.953125 L 189.105469 38.953125 C 188.957031 38.953125 188.832031 38.898438 188.730469 38.796875 C 188.625 38.695312 188.574219 38.570312 188.574219 38.425781 C 188.574219 38.277344 188.625 38.152344 188.730469 38.050781 C 188.832031 37.949219 188.957031 37.894531 189.105469 37.894531 L 193.054688 37.894531 C 193.203125 37.894531 193.328125 37.949219 193.429688 38.050781 C 193.53125 38.152344 193.585938 38.277344 193.585938 38.425781 C 193.585938 38.570312 193.53125 38.695312 193.429688 38.796875 C 193.328125 38.898438 193.203125 38.953125 193.054688 38.953125 Z M 185.152344 38.953125 L 181.199219 38.953125 C 181.054688 38.953125 180.929688 38.898438 180.824219 38.796875 C 180.722656 38.695312 180.671875 38.570312 180.671875 38.425781 C 180.671875 38.277344 180.722656 38.152344 180.824219 38.050781 C 180.929688 37.949219 181.054688 37.894531 181.199219 37.894531 L 185.152344 37.894531 C 185.296875 37.894531 185.421875 37.949219 185.527344 38.050781 C 185.628906 38.152344 185.679688 38.277344 185.679688 38.425781 C 185.679688 38.570312 185.628906 38.695312 185.527344 38.796875 C 185.421875 38.898438 185.296875 38.953125 185.152344 38.953125 Z M 177.246094 38.953125 L 173.296875 38.953125 C 173.148438 38.953125 173.023438 38.898438 172.921875 38.796875 C 172.816406 38.695312 172.765625 38.570312 172.765625 38.425781 C 172.765625 38.277344 172.816406 38.152344 172.921875 38.050781 C 173.023438 37.949219 173.148438 37.894531 173.296875 37.894531 L 177.246094 37.894531 C 177.394531 37.894531 177.519531 37.949219 177.621094 38.050781 C 177.726562 38.152344 177.777344 38.277344 177.777344 38.425781 C 177.777344 38.570312 177.726562 38.695312 177.621094 38.796875 C 177.519531 38.898438 177.394531 38.953125 177.246094 38.953125 Z M 169.34375 38.953125 L 165.390625 38.953125 C 165.246094 38.953125 165.121094 38.898438 165.019531 38.796875 C 164.914062 38.695312 164.863281 38.570312 164.863281 38.425781 C 164.863281 38.277344 164.914062 38.152344 165.019531 38.050781 C 165.121094 37.949219 165.246094 37.894531 165.390625 37.894531 L 169.34375 37.894531 C 169.488281 37.894531 169.613281 37.949219 169.71875 38.050781 C 169.820312 38.152344 169.875 38.277344 169.875 38.425781 C 169.875 38.570312 169.820312 38.695312 169.71875 38.796875 C 169.613281 38.898438 169.488281 38.953125 169.34375 38.953125 Z M 161.441406 38.953125 L 157.488281 38.953125 C 157.34375 38.953125 157.21875 38.898438 157.113281 38.796875 C 157.011719 38.695312 156.957031 38.570312 156.957031 38.425781 C 156.957031 38.277344 157.011719 38.152344 157.113281 38.050781 C 157.21875 37.949219 157.34375 37.894531 157.488281 37.894531 L 161.441406 37.894531 C 161.585938 37.894531 161.710938 37.949219 161.816406 38.050781 C 161.917969 38.152344 161.96875 38.277344 161.96875 38.425781 C 161.96875 38.570312 161.917969 38.695312 161.816406 38.796875 C 161.710938 38.898438 161.585938 38.953125 161.441406 38.953125 Z M 153.542969 38.953125 L 149.585938 38.953125 C 149.4375 38.953125 149.3125 38.898438 149.210938 38.796875 C 149.105469 38.695312 149.054688 38.570312 149.054688 38.425781 C 149.054688 38.277344 149.105469 38.152344 149.210938 38.050781 C 149.3125 37.949219 149.4375 37.894531 149.585938 37.894531 L 153.542969 37.894531 C 153.6875 37.894531 153.8125 37.949219 153.917969 38.050781 C 154.019531 38.152344 154.070312 38.277344 154.070312 38.425781 C 154.070312 38.570312 154.019531 38.695312 153.917969 38.796875 C 153.8125 38.898438 153.6875 38.953125 153.542969 38.953125 Z M 145.636719 38.953125 L 141.679688 38.953125 C 141.535156 38.953125 141.410156 38.898438 141.304688 38.796875 C 141.203125 38.695312 141.152344 38.570312 141.152344 38.425781 C 141.152344 38.277344 141.203125 38.152344 141.304688 38.050781 C 141.410156 37.949219 141.535156 37.894531 141.679688 37.894531 L 145.632812 37.894531 C 145.777344 37.894531 145.902344 37.949219 146.007812 38.050781 C 146.109375 38.152344 146.160156 38.277344 146.160156 38.425781 C 146.160156 38.570312 146.109375 38.695312 146.007812 38.796875 C 145.902344 38.898438 145.777344 38.953125 145.632812 38.953125 Z M 137.734375 38.953125 L 133.777344 38.953125 C 133.628906 38.953125 133.507812 38.898438 133.402344 38.796875 C 133.300781 38.695312 133.246094 38.570312 133.246094 38.425781 C 133.246094 38.277344 133.300781 38.152344 133.402344 38.050781 C 133.507812 37.949219 133.628906 37.894531 133.777344 37.894531 L 137.730469 37.894531 C 137.875 37.894531 138 37.949219 138.101562 38.050781 C 138.207031 38.152344 138.257812 38.277344 138.257812 38.425781 C 138.257812 38.570312 138.207031 38.695312 138.101562 38.796875 C 138 38.898438 137.875 38.953125 137.730469 38.953125 Z M 129.832031 38.953125 L 125.875 38.953125 C 125.726562 38.953125 125.601562 38.898438 125.5 38.796875 C 125.394531 38.695312 125.34375 38.570312 125.34375 38.425781 C 125.34375 38.277344 125.394531 38.152344 125.5 38.050781 C 125.601562 37.949219 125.726562 37.894531 125.875 37.894531 L 129.824219 37.894531 C 129.972656 37.894531 130.097656 37.949219 130.199219 38.050781 C 130.300781 38.152344 130.355469 38.277344 130.355469 38.425781 C 130.355469 38.570312 130.300781 38.695312 130.199219 38.796875 C 130.097656 38.898438 129.972656 38.953125 129.824219 38.953125 Z M 121.925781 38.953125 L 117.96875 38.953125 C 117.824219 38.953125 117.699219 38.898438 117.59375 38.796875 C 117.492188 38.695312 117.441406 38.570312 117.441406 38.425781 C 117.441406 38.277344 117.492188 38.152344 117.59375 38.050781 C 117.699219 37.949219 117.824219 37.894531 117.96875 37.894531 L 121.921875 37.894531 C 122.066406 37.894531 122.191406 37.949219 122.296875 38.050781 C 122.398438 38.152344 122.449219 38.277344 122.449219 38.425781 C 122.449219 38.570312 122.398438 38.695312 122.296875 38.796875 C 122.191406 38.898438 122.066406 38.953125 121.921875 38.953125 Z M 114.023438 38.953125 L 110.089844 38.953125 C 109.941406 38.953125 109.816406 38.898438 109.714844 38.796875 C 109.613281 38.695312 109.558594 38.570312 109.558594 38.425781 C 109.558594 38.277344 109.613281 38.152344 109.714844 38.050781 C 109.816406 37.949219 109.941406 37.894531 110.089844 37.894531 L 114.015625 37.894531 C 114.164062 37.894531 114.289062 37.949219 114.390625 38.050781 C 114.496094 38.152344 114.546875 38.277344 114.546875 38.425781 C 114.546875 38.570312 114.496094 38.695312 114.390625 38.796875 C 114.289062 38.898438 114.164062 38.953125 114.015625 38.953125 Z M 114.023438 38.953125 " fill-opacity="1" fill-rule="nonzero"/></g><g clip-path="url(#421fe11e25)"><path fill="#000000" d="M 167.03125 43.453125 C 164.972656 43.453125 163.28125 45.144531 163.28125 47.203125 L 163.28125 71.203125 C 163.28125 73.261719 164.972656 74.953125 167.03125 74.953125 L 191.03125 74.953125 C 193.089844 74.953125 194.78125 73.261719 194.78125 71.203125 L 194.78125 47.203125 C 194.78125 45.144531 193.089844 43.453125 191.03125 43.453125 Z M 167.03125 44.953125 L 191.03125 44.953125 C 192.273438 44.953125 193.28125 45.964844 193.28125 47.203125 L 193.28125 71.203125 C 193.28125 72.445312 192.273438 73.453125 191.03125 73.453125 L 167.03125 73.453125 C 165.792969 73.453125 164.78125 72.445312 164.78125 71.203125 L 164.78125 47.203125 C 164.78125 45.964844 165.792969 44.953125 167.03125 44.953125 Z M 172.8125 51.921875 L 171.753906 52.984375 L 177.972656 59.203125 L 171.753906 65.421875 L 172.8125 66.484375 L 179.03125 60.265625 L 185.253906 66.484375 L 186.3125 65.421875 L 180.09375 59.203125 L 186.3125 52.984375 L 185.253906 51.921875 L 179.03125 58.144531 Z M 172.8125 51.921875 " fill-opacity="1" fill-rule="nonzero"/></g><g clip-path="url(#e8cebd86a7)"><path fill="#000000" d="M 526.910156 116.65625 L 526.910156 120.335938 C 526.910156 120.46875 526.863281 120.585938 526.769531 120.679688 C 526.675781 120.773438 526.5625 120.820312 526.429688 120.820312 C 526.296875 120.820312 526.183594 120.773438 526.089844 120.679688 C 525.996094 120.585938 525.949219 120.46875 525.949219 120.335938 L 525.949219 116.65625 C 525.949219 116.523438 525.996094 116.410156 526.089844 116.3125 C 526.183594 116.21875 526.296875 116.171875 526.429688 116.171875 C 526.5625 116.171875 526.675781 116.21875 526.769531 116.3125 C 526.863281 116.410156 526.910156 116.523438 526.910156 116.65625 Z M 526.910156 123.960938 L 526.910156 127.601562 C 526.910156 127.738281 526.863281 127.851562 526.769531 127.945312 C 526.675781 128.042969 526.5625 128.089844 526.429688 128.089844 C 526.296875 128.089844 526.183594 128.042969 526.089844 127.945312 C 525.996094 127.851562 525.949219 127.738281 525.949219 127.601562 L 525.949219 123.96875 C 525.949219 123.835938 525.996094 123.71875 526.089844 123.625 C 526.183594 123.53125 526.296875 123.480469 526.429688 123.480469 C 526.5625 123.480469 526.675781 123.53125 526.769531 123.625 C 526.863281 123.71875 526.910156 123.835938 526.910156 123.96875 Z M 526.910156 131.226562 L 526.910156 134.871094 C 526.910156 135.003906 526.863281 135.117188 526.769531 135.214844 C 526.675781 135.308594 526.5625 135.355469 526.429688 135.355469 C 526.296875 135.355469 526.183594 135.308594 526.089844 135.214844 C 525.996094 135.117188 525.949219 135.003906 525.949219 134.871094 L 525.949219 131.234375 C 525.949219 131.101562 525.996094 130.988281 526.089844 130.890625 C 526.183594 130.796875 526.296875 130.75 526.429688 130.75 C 526.5625 130.75 526.675781 130.796875 526.769531 130.890625 C 526.863281 130.988281 526.910156 131.101562 526.910156 131.234375 Z M 526.910156 138.492188 L 526.910156 142.136719 C 526.910156 142.269531 526.863281 142.386719 526.769531 142.480469 C 526.675781 142.574219 526.5625 142.625 526.429688 142.625 C 526.296875 142.625 526.183594 142.574219 526.089844 142.480469 C 525.996094 142.386719 525.949219 142.269531 525.949219 142.136719 L 525.949219 138.503906 C 525.949219 138.367188 525.996094 138.253906 526.089844 138.160156 C 526.183594 138.0625 526.296875 138.015625 526.429688 138.015625 C 526.5625 138.015625 526.675781 138.0625 526.769531 138.160156 C 526.863281 138.253906 526.910156 138.367188 526.910156 138.503906 Z M 526.910156 145.761719 L 526.910156 149.402344 C 526.910156 149.539062 526.863281 149.652344 526.769531 149.746094 C 526.675781 149.84375 526.5625 149.890625 526.429688 149.890625 C 526.296875 149.890625 526.183594 149.84375 526.089844 149.746094 C 525.996094 149.652344 525.949219 149.539062 525.949219 149.402344 L 525.949219 145.769531 C 525.949219 145.636719 525.996094 145.519531 526.089844 145.425781 C 526.183594 145.332031 526.296875 145.285156 526.429688 145.285156 C 526.5625 145.285156 526.675781 145.332031 526.769531 145.425781 C 526.863281 145.519531 526.910156 145.636719 526.910156 145.769531 Z M 526.910156 153.027344 L 526.910156 156.671875 C 526.910156 156.804688 526.863281 156.917969 526.769531 157.015625 C 526.675781 157.109375 526.5625 157.15625 526.429688 157.15625 C 526.296875 157.15625 526.183594 157.109375 526.089844 157.015625 C 525.996094 156.917969 525.949219 156.804688 525.949219 156.671875 L 525.949219 153.039062 C 525.949219 152.902344 525.996094 152.789062 526.089844 152.691406 C 526.183594 152.597656 526.296875 152.550781 526.429688 152.550781 C 526.5625 152.550781 526.675781 152.597656 526.769531 152.691406 C 526.863281 152.789062 526.910156 152.902344 526.910156 153.039062 Z M 526.910156 160.304688 L 526.910156 163.9375 C 526.910156 164.070312 526.863281 164.1875 526.769531 164.28125 C 526.675781 164.378906 526.5625 164.425781 526.429688 164.425781 C 526.296875 164.425781 526.183594 164.378906 526.089844 164.28125 C 525.996094 164.1875 525.949219 164.070312 525.949219 163.9375 L 525.949219 160.304688 C 525.949219 160.167969 525.996094 160.054688 526.089844 159.960938 C 526.183594 159.863281 526.296875 159.816406 526.429688 159.816406 C 526.5625 159.816406 526.675781 159.863281 526.769531 159.960938 C 526.863281 160.054688 526.910156 160.167969 526.910156 160.304688 Z M 526.910156 167.570312 L 526.910156 171.203125 C 526.910156 171.339844 526.863281 171.453125 526.769531 171.550781 C 526.675781 171.644531 526.5625 171.691406 526.429688 171.691406 C 526.296875 171.691406 526.183594 171.644531 526.089844 171.550781 C 525.996094 171.453125 525.949219 171.339844 525.949219 171.203125 L 525.949219 167.570312 C 525.949219 167.4375 525.996094 167.320312 526.089844 167.226562 C 526.183594 167.132812 526.296875 167.085938 526.429688 167.085938 C 526.5625 167.085938 526.675781 167.132812 526.769531 167.226562 C 526.863281 167.320312 526.910156 167.4375 526.910156 167.570312 Z M 526.910156 174.839844 L 526.910156 178.472656 C 526.910156 178.605469 526.863281 178.722656 526.769531 178.816406 C 526.675781 178.910156 526.5625 178.957031 526.429688 178.957031 C 526.296875 178.957031 526.183594 178.910156 526.089844 178.816406 C 525.996094 178.722656 525.949219 178.605469 525.949219 178.472656 L 525.949219 174.839844 C 525.949219 174.703125 525.996094 174.589844 526.089844 174.496094 C 526.183594 174.398438 526.296875 174.351562 526.429688 174.351562 C 526.5625 174.351562 526.675781 174.398438 526.769531 174.496094 C 526.863281 174.589844 526.910156 174.703125 526.910156 174.839844 Z M 526.910156 182.105469 L 526.910156 185.738281 C 526.910156 185.875 526.863281 185.988281 526.769531 186.082031 C 526.675781 186.179688 526.5625 186.226562 526.429688 186.226562 C 526.296875 186.226562 526.183594 186.179688 526.089844 186.082031 C 525.996094 185.988281 525.949219 185.875 525.949219 185.738281 L 525.949219 182.105469 C 525.949219 181.972656 525.996094 181.855469 526.089844 181.761719 C 526.183594 181.667969 526.296875 181.617188 526.429688 181.617188 C 526.5625 181.617188 526.675781 181.667969 526.769531 181.761719 C 526.863281 181.855469 526.910156 181.972656 526.910156 182.105469 Z M 526.910156 189.371094 L 526.910156 193.007812 C 526.910156 193.144531 526.863281 193.257812 526.769531 193.351562 C 526.675781 193.449219 526.5625 193.496094 526.429688 193.496094 C 526.296875 193.496094 526.183594 193.449219 526.089844 193.351562 C 525.996094 193.257812 525.949219 193.144531 525.949219 193.007812 L 525.949219 189.371094 C 525.949219 189.238281 525.996094 189.125 526.089844 189.027344 C 526.183594 188.933594 526.296875 188.886719 526.429688 188.886719 C 526.5625 188.886719 526.675781 188.933594 526.769531 189.027344 C 526.863281 189.125 526.910156 189.238281 526.910156 189.371094 Z M 526.910156 196.640625 L 526.910156 197.09375 C 526.914062 198.210938 526.746094 199.304688 526.417969 200.371094 C 526.386719 200.507812 526.308594 200.609375 526.1875 200.679688 C 526.066406 200.75 525.9375 200.761719 525.804688 200.71875 C 525.671875 200.679688 525.578125 200.59375 525.515625 200.46875 C 525.457031 200.339844 525.449219 200.210938 525.5 200.082031 C 525.800781 199.109375 525.949219 198.113281 525.949219 197.09375 L 525.949219 196.640625 C 525.949219 196.507812 525.996094 196.394531 526.089844 196.296875 C 526.183594 196.203125 526.296875 196.15625 526.429688 196.15625 C 526.5625 196.15625 526.675781 196.203125 526.769531 196.296875 C 526.863281 196.394531 526.910156 196.507812 526.910156 196.640625 Z M 526.277344 113.089844 C 526.277344 113.207031 526.238281 113.3125 526.164062 113.402344 C 526.085938 113.492188 525.992188 113.546875 525.878906 113.570312 C 525.761719 113.589844 525.65625 113.570312 525.554688 113.511719 C 525.453125 113.453125 525.382812 113.367188 525.34375 113.253906 C 524.945312 112.160156 524.378906 111.164062 523.636719 110.273438 C 523.550781 110.167969 523.515625 110.050781 523.527344 109.917969 C 523.539062 109.78125 523.59375 109.671875 523.699219 109.585938 C 523.800781 109.5 523.917969 109.460938 524.050781 109.472656 C 524.183594 109.484375 524.292969 109.542969 524.375 109.644531 C 525.1875 110.628906 525.8125 111.71875 526.246094 112.921875 C 526.265625 112.976562 526.277344 113.03125 526.277344 113.089844 Z M 524.792969 203.4375 C 524.792969 203.546875 524.761719 203.644531 524.695312 203.730469 C 523.929688 204.746094 523.015625 205.605469 521.957031 206.300781 C 521.84375 206.375 521.722656 206.398438 521.59375 206.367188 C 521.464844 206.339844 521.363281 206.269531 521.289062 206.15625 C 521.21875 206.042969 521.195312 205.921875 521.222656 205.792969 C 521.25 205.660156 521.320312 205.558594 521.433594 205.484375 C 522.398438 204.847656 523.230469 204.066406 523.929688 203.136719 C 524.066406 202.953125 524.246094 202.898438 524.464844 202.972656 C 524.683594 203.046875 524.792969 203.199219 524.792969 203.433594 Z M 521.757812 107.632812 C 521.757812 107.722656 521.738281 107.800781 521.695312 107.878906 C 521.628906 107.992188 521.53125 108.070312 521.402344 108.101562 C 521.273438 108.136719 521.148438 108.121094 521.035156 108.050781 C 520.039062 107.460938 518.976562 107.058594 517.839844 106.851562 C 517.710938 106.824219 517.605469 106.757812 517.53125 106.648438 C 517.453125 106.535156 517.429688 106.414062 517.453125 106.28125 C 517.476562 106.152344 517.542969 106.046875 517.652344 105.96875 C 517.761719 105.894531 517.882812 105.867188 518.015625 105.890625 C 519.257812 106.121094 520.429688 106.5625 521.519531 107.210938 C 521.679688 107.304688 521.761719 107.445312 521.757812 107.632812 Z M 518.886719 207.320312 C 518.886719 207.578125 518.761719 207.734375 518.515625 207.792969 C 517.699219 207.988281 516.871094 208.082031 516.03125 208.082031 L 514.828125 208.082031 C 514.695312 208.082031 514.582031 208.035156 514.488281 207.941406 C 514.394531 207.84375 514.347656 207.730469 514.347656 207.597656 C 514.347656 207.460938 514.394531 207.347656 514.488281 207.253906 C 514.582031 207.15625 514.695312 207.109375 514.828125 207.109375 L 516.03125 207.109375 C 516.796875 207.109375 517.550781 207.019531 518.296875 206.847656 C 518.425781 206.816406 518.546875 206.835938 518.660156 206.90625 C 518.773438 206.976562 518.84375 207.078125 518.875 207.210938 C 518.882812 207.246094 518.886719 207.285156 518.886719 207.320312 Z M 514.828125 106.199219 C 514.828125 106.332031 514.777344 106.445312 514.683594 106.542969 C 514.589844 106.636719 514.476562 106.683594 514.34375 106.683594 L 510.75 106.683594 C 510.617188 106.683594 510.503906 106.636719 510.410156 106.542969 C 510.316406 106.445312 510.269531 106.332031 510.269531 106.199219 C 510.269531 106.0625 510.316406 105.949219 510.410156 105.855469 C 510.503906 105.757812 510.617188 105.710938 510.75 105.710938 L 514.34375 105.710938 C 514.476562 105.710938 514.589844 105.757812 514.683594 105.855469 C 514.777344 105.949219 514.828125 106.0625 514.828125 106.199219 Z M 511.722656 207.597656 C 511.722656 207.730469 511.671875 207.84375 511.578125 207.941406 C 511.484375 208.035156 511.371094 208.082031 511.238281 208.082031 L 507.652344 208.082031 C 507.519531 208.082031 507.40625 208.035156 507.3125 207.941406 C 507.21875 207.84375 507.171875 207.730469 507.171875 207.597656 C 507.171875 207.460938 507.21875 207.347656 507.3125 207.253906 C 507.40625 207.15625 507.519531 207.109375 507.652344 207.109375 L 511.238281 207.109375 C 511.371094 207.109375 511.484375 207.15625 511.578125 207.253906 C 511.671875 207.347656 511.722656 207.460938 511.722656 207.597656 Z M 507.628906 106.199219 C 507.628906 106.332031 507.582031 106.445312 507.488281 106.542969 C 507.394531 106.636719 507.28125 106.683594 507.148438 106.683594 L 503.558594 106.683594 C 503.425781 106.683594 503.3125 106.636719 503.21875 106.542969 C 503.125 106.445312 503.078125 106.332031 503.078125 106.199219 C 503.078125 106.0625 503.125 105.949219 503.21875 105.855469 C 503.3125 105.757812 503.425781 105.710938 503.558594 105.710938 L 507.152344 105.710938 C 507.289062 105.710938 507.402344 105.757812 507.496094 105.851562 C 507.589844 105.949219 507.636719 106.0625 507.636719 106.199219 Z M 504.523438 207.597656 C 504.523438 207.730469 504.476562 207.84375 504.382812 207.941406 C 504.289062 208.035156 504.175781 208.082031 504.042969 208.082031 L 500.457031 208.082031 C 500.324219 208.082031 500.210938 208.035156 500.117188 207.941406 C 500.023438 207.84375 499.976562 207.730469 499.976562 207.597656 C 499.976562 207.460938 500.023438 207.347656 500.117188 207.253906 C 500.210938 207.15625 500.324219 207.109375 500.457031 207.109375 L 504.042969 207.109375 C 504.175781 207.109375 504.289062 207.15625 504.382812 207.253906 C 504.476562 207.347656 504.523438 207.460938 504.523438 207.597656 Z M 500.429688 106.199219 C 500.429688 106.332031 500.382812 106.445312 500.289062 106.542969 C 500.195312 106.636719 500.082031 106.683594 499.949219 106.683594 L 498.769531 106.683594 C 498 106.683594 497.238281 106.773438 496.488281 106.953125 C 496.355469 106.988281 496.230469 106.972656 496.113281 106.902344 C 495.996094 106.832031 495.921875 106.730469 495.890625 106.59375 C 495.859375 106.460938 495.878906 106.335938 495.953125 106.21875 C 496.027344 106.105469 496.132812 106.03125 496.265625 106.003906 C 497.089844 105.808594 497.925781 105.710938 498.769531 105.710938 L 499.949219 105.710938 C 500.085938 105.707031 500.203125 105.75 500.300781 105.847656 C 500.398438 105.941406 500.449219 106.058594 500.449219 106.199219 Z M 497.355469 207.417969 C 497.359375 207.445312 497.359375 207.476562 497.355469 207.507812 C 497.332031 207.640625 497.265625 207.742188 497.152344 207.820312 C 497.042969 207.894531 496.921875 207.921875 496.792969 207.894531 C 495.546875 207.660156 494.378906 207.21875 493.289062 206.570312 C 493.1875 206.496094 493.121094 206.398438 493.09375 206.273438 C 493.066406 206.152344 493.082031 206.035156 493.144531 205.925781 C 493.210938 205.8125 493.300781 205.742188 493.421875 205.703125 C 493.542969 205.664062 493.65625 205.675781 493.769531 205.730469 C 494.765625 206.324219 495.828125 206.730469 496.964844 206.945312 C 497.074219 206.96875 497.167969 207.023438 497.242188 207.109375 C 497.316406 207.199219 497.355469 207.300781 497.355469 207.417969 Z M 493.589844 107.90625 C 493.589844 108.082031 493.519531 108.214844 493.375 108.3125 C 492.410156 108.949219 491.578125 109.730469 490.882812 110.65625 C 490.800781 110.765625 490.695312 110.828125 490.5625 110.84375 C 490.433594 110.863281 490.3125 110.832031 490.207031 110.75 C 490.101562 110.667969 490.039062 110.5625 490.019531 110.429688 C 490.003906 110.292969 490.035156 110.175781 490.113281 110.066406 C 490.875 109.046875 491.789062 108.191406 492.847656 107.492188 C 492.957031 107.417969 493.078125 107.394531 493.210938 107.421875 C 493.339844 107.449219 493.441406 107.519531 493.511719 107.632812 C 493.566406 107.714844 493.59375 107.808594 493.589844 107.90625 Z M 491.28125 203.808594 C 491.277344 204.03125 491.171875 204.179688 490.960938 204.257812 C 490.75 204.332031 490.574219 204.28125 490.433594 204.109375 C 489.621094 203.128906 489 202.035156 488.570312 200.832031 C 488.523438 200.707031 488.527344 200.582031 488.585938 200.460938 C 488.640625 200.339844 488.730469 200.253906 488.855469 200.210938 C 488.980469 200.164062 489.105469 200.167969 489.222656 200.226562 C 489.34375 200.28125 489.429688 200.375 489.472656 200.5 C 489.863281 201.597656 490.425781 202.59375 491.160156 203.488281 C 491.238281 203.578125 491.28125 203.683594 491.28125 203.808594 Z M 489.355469 113.578125 C 489.355469 113.625 489.347656 113.675781 489.335938 113.722656 C 489.03125 114.691406 488.878906 115.683594 488.875 116.703125 L 488.875 117.1875 C 488.875 117.324219 488.828125 117.4375 488.734375 117.53125 C 488.640625 117.628906 488.527344 117.675781 488.394531 117.675781 C 488.261719 117.675781 488.148438 117.628906 488.050781 117.53125 C 487.957031 117.4375 487.910156 117.324219 487.910156 117.1875 L 487.910156 116.703125 C 487.910156 115.589844 488.070312 114.507812 488.394531 113.445312 C 488.410156 113.3125 488.472656 113.203125 488.582031 113.121094 C 488.6875 113.039062 488.804688 113.007812 488.9375 113.023438 C 489.070312 113.042969 489.179688 113.105469 489.261719 113.214844 C 489.34375 113.320312 489.375 113.441406 489.355469 113.578125 Z M 488.875 120.808594 L 488.875 124.445312 C 488.875 124.578125 488.828125 124.691406 488.734375 124.789062 C 488.640625 124.882812 488.527344 124.929688 488.394531 124.929688 C 488.261719 124.929688 488.148438 124.882812 488.050781 124.789062 C 487.957031 124.691406 487.910156 124.578125 487.910156 124.445312 L 487.910156 120.808594 C 487.910156 120.675781 487.957031 120.5625 488.050781 120.464844 C 488.148438 120.371094 488.261719 120.324219 488.394531 120.324219 C 488.527344 120.324219 488.640625 120.371094 488.734375 120.464844 C 488.828125 120.5625 488.875 120.675781 488.875 120.808594 Z M 488.875 128.078125 L 488.875 131.710938 C 488.875 131.84375 488.828125 131.960938 488.734375 132.054688 C 488.640625 132.148438 488.527344 132.195312 488.394531 132.195312 C 488.261719 132.195312 488.148438 132.148438 488.050781 132.054688 C 487.957031 131.960938 487.910156 131.84375 487.910156 131.710938 L 487.910156 128.078125 C 487.910156 127.941406 487.957031 127.828125 488.050781 127.734375 C 488.148438 127.636719 488.261719 127.589844 488.394531 127.589844 C 488.527344 127.589844 488.640625 127.636719 488.734375 127.734375 C 488.828125 127.828125 488.875 127.941406 488.875 128.078125 Z M 488.875 135.34375 L 488.875 138.976562 C 488.875 139.113281 488.828125 139.226562 488.734375 139.320312 C 488.640625 139.417969 488.527344 139.464844 488.394531 139.464844 C 488.261719 139.464844 488.148438 139.417969 488.050781 139.320312 C 487.957031 139.226562 487.910156 139.113281 487.910156 138.976562 L 487.910156 135.34375 C 487.910156 135.210938 487.957031 135.09375 488.050781 135 C 488.148438 134.90625 488.261719 134.855469 488.394531 134.855469 C 488.527344 134.855469 488.640625 134.90625 488.734375 135 C 488.828125 135.09375 488.875 135.210938 488.875 135.34375 Z M 488.875 142.609375 L 488.875 146.246094 C 488.875 146.378906 488.828125 146.492188 488.734375 146.589844 C 488.640625 146.683594 488.527344 146.730469 488.394531 146.730469 C 488.261719 146.730469 488.148438 146.683594 488.050781 146.589844 C 487.957031 146.492188 487.910156 146.378906 487.910156 146.246094 L 487.910156 142.609375 C 487.910156 142.476562 487.957031 142.363281 488.050781 142.265625 C 488.148438 142.171875 488.261719 142.125 488.394531 142.125 C 488.527344 142.125 488.640625 142.171875 488.734375 142.265625 C 488.828125 142.363281 488.875 142.476562 488.875 142.609375 Z M 488.875 149.878906 L 488.875 153.511719 C 488.875 153.644531 488.828125 153.761719 488.734375 153.855469 C 488.640625 153.949219 488.527344 154 488.394531 154 C 488.261719 154 488.148438 153.949219 488.050781 153.855469 C 487.957031 153.761719 487.910156 153.644531 487.910156 153.511719 L 487.910156 149.878906 C 487.910156 149.742188 487.957031 149.628906 488.050781 149.535156 C 488.148438 149.4375 488.261719 149.390625 488.394531 149.390625 C 488.527344 149.390625 488.640625 149.4375 488.734375 149.535156 C 488.828125 149.628906 488.875 149.742188 488.875 149.878906 Z M 488.875 157.140625 L 488.875 160.777344 C 488.875 160.914062 488.828125 161.027344 488.734375 161.121094 C 488.640625 161.21875 488.527344 161.265625 488.394531 161.265625 C 488.261719 161.265625 488.148438 161.21875 488.050781 161.121094 C 487.957031 161.027344 487.910156 160.914062 487.910156 160.777344 L 487.910156 157.140625 C 487.910156 157.007812 487.957031 156.890625 488.050781 156.796875 C 488.148438 156.703125 488.261719 156.652344 488.394531 156.652344 C 488.527344 156.652344 488.640625 156.703125 488.734375 156.796875 C 488.828125 156.890625 488.875 157.007812 488.875 157.140625 Z M 488.875 164.40625 L 488.875 168.046875 C 488.875 168.179688 488.828125 168.296875 488.734375 168.390625 C 488.640625 168.484375 488.527344 168.53125 488.394531 168.53125 C 488.261719 168.53125 488.148438 168.484375 488.050781 168.390625 C 487.957031 168.296875 487.910156 168.179688 487.910156 168.046875 L 487.910156 164.414062 C 487.910156 164.277344 487.957031 164.164062 488.050781 164.066406 C 488.148438 163.972656 488.261719 163.925781 488.394531 163.925781 C 488.527344 163.925781 488.640625 163.972656 488.734375 164.066406 C 488.828125 164.164062 488.875 164.277344 488.875 164.414062 Z M 488.875 171.675781 L 488.875 175.3125 C 488.875 175.449219 488.828125 175.5625 488.734375 175.65625 C 488.640625 175.753906 488.527344 175.800781 488.394531 175.800781 C 488.261719 175.800781 488.148438 175.753906 488.050781 175.65625 C 487.957031 175.5625 487.910156 175.449219 487.910156 175.3125 L 487.910156 171.679688 C 487.910156 171.546875 487.957031 171.429688 488.050781 171.335938 C 488.148438 171.238281 488.261719 171.191406 488.394531 171.191406 C 488.527344 171.191406 488.640625 171.238281 488.734375 171.335938 C 488.828125 171.429688 488.875 171.546875 488.875 171.679688 Z M 488.875 178.941406 L 488.875 182.578125 C 488.875 182.714844 488.828125 182.828125 488.734375 182.925781 C 488.640625 183.019531 488.527344 183.066406 488.394531 183.066406 C 488.261719 183.066406 488.148438 183.019531 488.050781 182.925781 C 487.957031 182.828125 487.910156 182.714844 487.910156 182.578125 L 487.910156 178.945312 C 487.910156 178.8125 487.957031 178.699219 488.050781 178.601562 C 488.148438 178.507812 488.261719 178.460938 488.394531 178.460938 C 488.527344 178.460938 488.640625 178.507812 488.734375 178.601562 C 488.828125 178.699219 488.875 178.8125 488.875 178.945312 Z M 488.875 186.207031 L 488.875 189.847656 C 488.875 189.980469 488.828125 190.097656 488.734375 190.191406 C 488.640625 190.285156 488.527344 190.332031 488.394531 190.332031 C 488.261719 190.332031 488.148438 190.285156 488.050781 190.191406 C 487.957031 190.097656 487.910156 189.980469 487.910156 189.847656 L 487.910156 186.214844 C 487.910156 186.078125 487.957031 185.964844 488.050781 185.871094 C 488.148438 185.773438 488.261719 185.726562 488.394531 185.726562 C 488.527344 185.726562 488.640625 185.773438 488.734375 185.871094 C 488.828125 185.964844 488.875 186.078125 488.875 186.214844 Z M 488.875 193.476562 L 488.875 197.09375 C 488.875 197.226562 488.828125 197.339844 488.734375 197.4375 C 488.640625 197.53125 488.527344 197.578125 488.394531 197.578125 C 488.261719 197.578125 488.148438 197.53125 488.050781 197.4375 C 487.957031 197.339844 487.910156 197.226562 487.910156 197.09375 L 487.910156 193.480469 C 487.910156 193.347656 487.957031 193.230469 488.050781 193.136719 C 488.148438 193.042969 488.261719 192.992188 488.394531 192.992188 C 488.527344 192.992188 488.640625 193.042969 488.734375 193.136719 C 488.828125 193.230469 488.875 193.347656 488.875 193.480469 Z M 488.875 193.476562 " fill-opacity="1" fill-rule="nonzero"/></g><g clip-path="url(#d183089587)"><path fill="#000000" d="M 495.46875 163.992188 C 493.410156 163.992188 491.71875 165.679688 491.71875 167.742188 L 491.71875 191.742188 C 491.71875 193.800781 493.410156 195.492188 495.46875 195.492188 L 519.46875 195.492188 C 521.527344 195.492188 523.21875 193.800781 523.21875 191.742188 L 523.21875 167.742188 C 523.21875 165.679688 521.527344 163.992188 519.46875 163.992188 Z M 495.46875 165.492188 L 519.46875 165.492188 C 520.710938 165.492188 521.71875 166.5 521.71875 167.742188 L 521.71875 191.742188 C 521.71875 192.980469 520.710938 193.992188 519.46875 193.992188 L 495.46875 193.992188 C 494.230469 193.992188 493.21875 192.980469 493.21875 191.742188 L 493.21875 167.742188 C 493.21875 166.5 494.230469 165.492188 495.46875 165.492188 Z M 501.25 172.460938 L 500.191406 173.519531 L 506.410156 179.742188 L 500.191406 185.960938 L 501.25 187.019531 L 507.46875 180.800781 L 513.691406 187.019531 L 514.75 185.960938 L 508.53125 179.742188 L 514.75 173.519531 L 513.691406 172.460938 L 507.46875 178.679688 Z M 501.25 172.460938 " fill-opacity="1" fill-rule="nonzero"/></g></svg>