<svg xmlns="http://www.w3.org/2000/svg" xmlns:xlink="http://www.w3.org/1999/xlink" width="720" zoomAndPan="magnify" viewBox="0 0 540 269.999989" height="360" preserveAspectRatio="xMidYMid meet" version="1.0"><defs><g/><clipPath id="df8a758ac1"><path d="M 163.28125 43.453125 L 194.78125 43.453125 L 194.78125 74.953125 L 163.28125 74.953125 Z M 163.28125 43.453125 " clip-rule="nonzero"/></clipPath><clipPath id="d9ecc84016"><path d="M 487.910156 105.511719 L 526.910156 105.511719 L 526.910156 208.261719 L 487.910156 208.261719 Z M 487.910156 105.511719 " clip-rule="nonzero"/></clipPath><clipPath id="cf35632de2"><path d="M 491.71875 163.992188 L 523.21875 163.992188 L 523.21875 195.492188 L 491.71875 195.492188 Z M 491.71875 163.992188 " clip-rule="nonzero"/></clipPath><clipPath id="773226fdf5"><path d="M 95.59375 38.699219 L 202.84375 38.699219 L 202.84375 79.949219 L 95.59375 79.949219 Z M 95.59375 38.699219 " clip-rule="nonzero"/></clipPath></defs><path stroke-linecap="square" transform="matrix(1.079973, 0, 0, 1.078846, 0.00677182, -5.405484)" fill="none" stroke-linejoin="miter" d="M 290.00028 59.999007 L 290.00028 110.001788 " stroke="#000000" stroke-width="2" stroke-opacity="1" stroke-miterlimit="4"/><path stroke-linecap="square" transform="matrix(1.079973, 0, 0, 1.078846, 0.00677182, -5.405484)" fill="none" stroke-linejoin="miter" d="M 400.000146 59.999007 L 469.999731 59.999007 " stroke="#000000" stroke-width="2" stroke-opacity="1" stroke-miterlimit="4"/><path stroke-linecap="square" transform="matrix(1.079973, 0, 0, 1.078846, 0.00677182, -5.405484)" fill="none" stroke-linejoin="miter" d="M 239.999026 59.999007 L 349.998892 59.999007 " stroke="#000000" stroke-width="2" stroke-opacity="1" stroke-miterlimit="4"/><path stroke-linecap="square" transform="matrix(1.079973, 0, 0, 1.078846, 0.00677182, -5.405484)" fill="none" stroke-linejoin="miter" d="M 150.001109 59.999007 L 190.001389 59.999007 " stroke="#000000" stroke-width="2" stroke-opacity="1" stroke-miterlimit="4"/><path stroke-linecap="square" transform="matrix(1.079973, 0, 0, 1.078846, 0.00677182, -5.405484)" fill="none" stroke-linejoin="miter" d="M 349.998892 59.999007 L 351.000798 59.999007 " stroke="#000000" stroke-width="2" stroke-opacity="1" stroke-miterlimit="4"/><path stroke-linecap="square" transform="matrix(1.079973, 0, 0, 1.078846, 0.00677182, -5.405484)" fill="none" stroke-linejoin="miter" d="M 398.99824 59.999007 L 400.000146 59.999007 " stroke="#000000" stroke-width="2" stroke-opacity="1" stroke-miterlimit="4"/><path stroke-linecap="square" transform="matrix(1.079973, 0, 0, 1.078846, 0.00677182, -5.405484)" fill="none" stroke-linejoin="miter" d="M 351.000798 59.999007 C 351.000798 59.473996 351.036968 58.956226 351.116541 58.438457 C 351.192498 57.924308 351.304625 57.424642 351.456538 56.939459 C 351.608452 56.454277 351.792918 55.990819 352.009938 55.556327 C 352.230574 55.118214 352.480146 54.716309 352.758654 54.34337 C 353.037162 53.970431 353.337372 53.640941 353.666518 53.347659 C 353.995664 53.057998 354.339278 52.808165 354.704594 52.609023 C 355.066293 52.40626 355.44246 52.257809 355.829478 52.152806 C 356.216496 52.051425 356.60713 52.000734 357.001382 52.000734 C 357.395634 52.000734 357.782652 52.051425 358.16967 52.152806 C 358.556687 52.257809 358.932854 52.40626 359.294553 52.609023 C 359.659869 52.808165 360.0071 53.057998 360.332629 53.347659 C 360.661775 53.640941 360.965602 53.970431 361.24411 54.34337 C 361.522618 54.716309 361.768574 55.118214 361.98921 55.556327 C 362.206229 55.990819 362.390696 56.454277 362.542609 56.939459 C 362.694523 57.424642 362.806649 57.924308 362.886223 58.438457 C 362.96218 58.956226 362.99835 59.473996 362.99835 59.999007 M 362.99835 59.999007 C 362.99835 59.473996 363.038137 58.956226 363.114093 58.438457 C 363.193667 57.924308 363.305794 57.424642 363.457707 56.939459 C 363.606004 56.454277 363.79047 55.990819 364.011107 55.556327 C 364.231743 55.118214 364.477698 54.716309 364.756206 54.34337 C 365.034714 53.970431 365.338542 53.640941 365.667688 53.347659 C 365.993217 53.057998 366.340447 52.808165 366.702146 52.609023 C 367.067462 52.40626 367.443629 52.257809 367.830647 52.152806 C 368.214048 52.051425 368.604682 52.000734 368.998934 52.000734 C 369.393186 52.000734 369.783821 52.051425 370.170839 52.152806 C 370.557856 52.257809 370.930406 52.40626 371.295722 52.609023 C 371.661038 52.808165 372.004652 53.057998 372.333798 53.347659 C 372.659327 53.640941 372.963154 53.970431 373.241662 54.34337 C 373.52017 54.716309 373.769743 55.118214 373.990379 55.556327 C 374.207398 55.990819 374.391865 56.454277 374.543778 56.939459 C 374.695692 57.424642 374.807818 57.924308 374.883775 58.438457 C 374.963349 58.956226 374.999519 59.473996 374.999519 59.999007 M 374.999519 59.999007 C 374.999519 59.473996 375.039306 58.956226 375.115262 58.438457 C 375.191219 57.924308 375.306963 57.424642 375.455259 56.939459 C 375.607173 56.454277 375.791639 55.990819 376.012276 55.556327 C 376.229295 55.118214 376.478867 54.716309 376.757375 54.34337 C 377.035884 53.970431 377.339711 53.640941 377.66524 53.347659 C 377.994386 53.057998 378.341617 52.808165 378.703315 52.609023 C 379.068631 52.40626 379.444798 52.257809 379.828199 52.152806 C 380.215217 52.051425 380.605852 52.000734 381.000103 52.000734 C 381.394355 52.000734 381.78499 52.051425 382.172008 52.152806 C 382.555409 52.257809 382.931575 52.40626 383.296891 52.609023 C 383.65859 52.808165 384.005821 53.057998 384.334967 53.347659 C 384.660496 53.640941 384.964323 53.970431 385.242831 54.34337 C 385.521339 54.716309 385.770912 55.118214 385.987931 55.556327 C 386.208567 55.990819 386.393034 56.454277 386.544947 56.939459 C 386.693244 57.424642 386.808987 57.924308 386.884944 58.438457 C 386.960901 58.956226 387.000688 59.473996 387.000688 59.999007 M 387.000688 59.999007 C 387.000688 59.473996 387.036858 58.956226 387.116432 58.438457 C 387.192388 57.924308 387.304515 57.424642 387.456428 56.939459 C 387.608342 56.454277 387.792808 55.990819 388.009828 55.556327 C 388.230464 55.118214 388.480036 54.716309 388.758544 54.34337 C 389.037053 53.970431 389.337263 53.640941 389.666409 53.347659 C 389.995555 53.057998 390.339169 52.808165 390.704484 52.609023 C 391.066183 52.40626 391.44235 52.257809 391.829368 52.152806 C 392.216386 52.051425 392.607021 52.000734 393.001272 52.000734 C 393.395524 52.000734 393.782542 52.051425 394.16956 52.152806 C 394.556578 52.257809 394.932744 52.40626 395.294443 52.609023 C 395.659759 52.808165 396.00699 53.057998 396.332519 53.347659 C 396.661665 53.640941 396.965492 53.970431 397.244 54.34337 C 397.522508 54.716309 397.768464 55.118214 397.9891 55.556327 C 398.206119 55.990819 398.394203 56.454277 398.542499 56.939459 C 398.694413 57.424642 398.80654 57.924308 398.886113 58.438457 C 398.96207 58.956226 398.99824 59.473996 398.99824 59.999007 " stroke="#000000" stroke-width="2" stroke-opacity="1" stroke-miterlimit="4"/><path stroke-linecap="square" transform="matrix(1.079973, 0, 0, 1.078846, 0.00677182, -5.405484)" fill="none" stroke-linejoin="miter" d="M 290.00028 160.000949 L 290.00028 210.00011 " stroke="#000000" stroke-width="2" stroke-opacity="1" stroke-miterlimit="4"/><path stroke-linecap="square" transform="matrix(1.079973, 0, 0, 1.078846, 0.00677182, -5.405484)" fill="none" stroke-linejoin="miter" d="M 290.00028 110.001788 L 290.00028 130.998612 " stroke="#000000" stroke-width="2" stroke-opacity="1" stroke-miterlimit="4"/><path stroke-linecap="square" transform="matrix(1.079973, 0, 0, 1.078846, 0.00677182, -5.405484)" fill="none" stroke-linejoin="miter" d="M 290.00028 139.000505 L 290.00028 160.000949 " stroke="#000000" stroke-width="2" stroke-opacity="1" stroke-miterlimit="4"/><path stroke-linecap="square" transform="matrix(1.079973, 0, 0, 1.078846, 0.00677182, -5.405484)" fill="none" stroke-linejoin="miter" d="M 275.998916 130.998612 L 304.001644 130.998612 " stroke="#000000" stroke-width="2" stroke-opacity="1" stroke-miterlimit="4"/><path stroke-linecap="square" transform="matrix(1.079973, 0, 0, 1.078846, 0.00677182, -5.405484)" fill="none" stroke-linejoin="miter" d="M 275.998916 139.000505 L 304.001644 139.000505 " stroke="#000000" stroke-width="2" stroke-opacity="1" stroke-miterlimit="4"/><path stroke-linecap="square" transform="matrix(1.079973, 0, 0, 1.078846, 0.00677182, -5.405484)" fill="none" stroke-linejoin="miter" d="M 290.00028 199.999554 L 290.00028 211.998773 " stroke="#000000" stroke-width="2" stroke-opacity="1" stroke-miterlimit="4"/><path stroke-linecap="square" transform="matrix(1.079973, 0, 0, 1.078846, 0.00677182, -5.405484)" fill="none" stroke-linejoin="miter" d="M 281.999501 211.998773 L 298.00106 211.998773 L 290.00028 220.000666 Z M 281.999501 211.998773 " stroke="#000000" stroke-width="2" stroke-opacity="1" stroke-miterlimit="4"/><path stroke-linecap="square" transform="matrix(1.079973, 0, 0, 1.078846, 0.00677182, -5.405484)" fill="none" stroke-linejoin="miter" d="M 49.998601 59.999007 L 99.999855 59.999007 " stroke="#000000" stroke-width="2" stroke-opacity="1" stroke-miterlimit="4"/><path stroke-linecap="square" transform="matrix(1.079973, 0, 0, 1.078846, 0.00677182, -5.405484)" fill="none" stroke-linejoin="miter" d="M 190.001389 59.999007 L 190.999678 59.999007 " stroke="#000000" stroke-width="2" stroke-opacity="1" stroke-miterlimit="4"/><path stroke-linecap="square" transform="matrix(1.079973, 0, 0, 1.078846, 0.00677182, -5.405484)" fill="none" stroke-linejoin="miter" d="M 239.000737 59.999007 L 239.999026 59.999007 " stroke="#000000" stroke-width="2" stroke-opacity="1" stroke-miterlimit="4"/><path stroke-linecap="square" transform="matrix(1.079973, 0, 0, 1.078846, 0.00677182, -5.405484)" fill="none" stroke-linejoin="miter" d="M 190.999678 59.999007 C 190.999678 59.473996 191.039465 58.956226 191.115422 58.438457 C 191.191378 57.924308 191.307122 57.424642 191.455419 56.939459 C 191.607332 56.454277 191.791799 55.990819 192.012435 55.556327 C 192.229454 55.118214 192.479026 54.716309 192.757535 54.34337 C 193.036043 53.970431 193.33987 53.640941 193.665399 53.347659 C 193.994545 53.057998 194.338159 52.808165 194.703475 52.609023 C 195.06879 52.40626 195.44134 52.257809 195.828358 52.152806 C 196.215376 52.051425 196.606011 52.000734 197.000262 52.000734 C 197.394514 52.000734 197.785149 52.051425 198.172167 52.152806 C 198.555568 52.257809 198.931735 52.40626 199.29705 52.609023 C 199.658749 52.808165 200.00598 53.057998 200.335126 53.347659 C 200.660655 53.640941 200.964482 53.970431 201.24299 54.34337 C 201.521499 54.716309 201.771071 55.118214 201.98809 55.556327 C 202.208726 55.990819 202.393193 56.454277 202.541489 56.939459 C 202.693403 57.424642 202.809147 57.924308 202.885103 58.438457 C 202.96106 58.956226 203.000847 59.473996 203.000847 59.999007 M 203.000847 59.999007 C 203.000847 59.473996 203.037017 58.956226 203.116591 58.438457 C 203.192547 57.924308 203.304674 57.424642 203.456588 56.939459 C 203.608501 56.454277 203.792968 55.990819 204.009987 55.556327 C 204.230623 55.118214 204.480195 54.716309 204.758704 54.34337 C 205.037212 53.970431 205.337422 53.640941 205.666568 53.347659 C 205.995714 53.057998 206.339328 52.808165 206.704644 52.609023 C 207.066343 52.40626 207.442509 52.257809 207.829527 52.152806 C 208.216545 52.051425 208.60718 52.000734 209.001432 52.000734 C 209.395683 52.000734 209.782701 52.051425 210.169719 52.152806 C 210.556737 52.257809 210.932904 52.40626 211.294602 52.609023 C 211.659918 52.808165 212.007149 53.057998 212.332678 53.347659 C 212.661824 53.640941 212.965651 53.970431 213.244159 54.34337 C 213.522668 54.716309 213.768623 55.118214 213.989259 55.556327 C 214.206279 55.990819 214.390745 56.454277 214.542658 56.939459 C 214.694572 57.424642 214.806699 57.924308 214.886272 58.438457 C 214.962229 58.956226 214.998399 59.473996 214.998399 59.999007 M 214.998399 59.999007 C 214.998399 59.473996 215.038186 58.956226 215.114143 58.438457 C 215.193716 57.924308 215.305843 57.424642 215.457757 56.939459 C 215.606053 56.454277 215.79052 55.990819 216.011156 55.556327 C 216.231792 55.118214 216.477748 54.716309 216.756256 54.34337 C 217.034764 53.970431 217.338591 53.640941 217.667737 53.347659 C 217.993266 53.057998 218.340497 52.808165 218.702196 52.609023 C 219.067512 52.40626 219.443678 52.257809 219.830696 52.152806 C 220.214097 52.051425 220.604732 52.000734 220.998984 52.000734 C 221.393235 52.000734 221.78387 52.051425 222.170888 52.152806 C 222.557906 52.257809 222.930456 52.40626 223.295772 52.609023 C 223.661087 52.808165 224.004701 53.057998 224.333847 53.347659 C 224.659376 53.640941 224.963203 53.970431 225.241712 54.34337 C 225.52022 54.716309 225.769792 55.118214 225.990428 55.556327 C 226.207448 55.990819 226.391914 56.454277 226.543828 56.939459 C 226.695741 57.424642 226.807868 57.924308 226.883825 58.438457 C 226.959781 58.956226 226.999568 59.473996 226.999568 59.999007 M 226.999568 59.999007 C 226.999568 59.473996 227.039355 58.956226 227.115312 58.438457 C 227.191269 57.924308 227.307012 57.424642 227.455309 56.939459 C 227.607222 56.454277 227.791689 55.990819 228.012325 55.556327 C 228.229344 55.118214 228.478917 54.716309 228.757425 54.34337 C 229.035933 53.970431 229.33976 53.640941 229.665289 53.347659 C 229.994435 53.057998 230.341666 52.808165 230.703365 52.609023 C 231.068681 52.40626 231.444847 52.257809 231.828248 52.152806 C 232.215266 52.051425 232.605901 52.000734 233.000153 52.000734 C 233.394404 52.000734 233.785039 52.051425 234.172057 52.152806 C 234.555458 52.257809 234.931625 52.40626 235.296941 52.609023 C 235.65864 52.808165 236.00587 53.057998 236.335016 53.347659 C 236.660545 53.640941 236.964373 53.970431 237.242881 54.34337 C 237.521389 54.716309 237.770961 55.118214 237.98798 55.556327 C 238.208617 55.990819 238.393083 56.454277 238.544997 56.939459 C 238.693293 57.424642 238.809037 57.924308 238.884994 58.438457 C 238.96095 58.956226 239.000737 59.473996 239.000737 59.999007 " stroke="#000000" stroke-width="2" stroke-opacity="1" stroke-miterlimit="4"/><path stroke-linecap="square" transform="matrix(1.079973, 0, 0, 1.078846, 0.00677182, -5.405484)" fill="none" stroke-linejoin="miter" d="M 49.998601 160.000949 L 49.998601 210.00011 " stroke="#000000" stroke-width="2" stroke-opacity="1" stroke-miterlimit="4"/><path stroke-linecap="square" transform="matrix(1.079973, 0, 0, 1.078846, 0.00677182, -5.405484)" fill="none" stroke-linejoin="miter" d="M 49.998601 59.999007 L 49.998601 119.998724 " stroke="#000000" stroke-width="2" stroke-opacity="1" stroke-miterlimit="4"/><path stroke-linecap="square" transform="matrix(1.079973, 0, 0, 1.078846, 0.00677182, -5.405484)" fill="none" stroke-linejoin="miter" d="M 469.999731 160.000949 L 469.999731 199.999554 " stroke="#000000" stroke-width="2" stroke-opacity="1" stroke-miterlimit="4"/><path stroke-linecap="square" transform="matrix(1.079973, 0, 0, 1.078846, 0.00677182, -5.405484)" fill="none" stroke-linejoin="miter" d="M 469.999731 59.999007 L 469.999731 110.001788 " stroke="#000000" stroke-width="2" stroke-opacity="1" stroke-miterlimit="4"/><path stroke-linecap="square" transform="matrix(1.079973, 0, 0, 1.078846, 0.00677182, -5.405484)" fill="none" stroke-linejoin="miter" d="M 469.999731 199.999554 L 469.999731 199.999554 " stroke="#000000" stroke-width="2" stroke-opacity="1" stroke-miterlimit="4"/><path stroke-linecap="square" transform="matrix(1.079973, 0, 0, 1.078846, 0.00677182, -5.405484)" fill="none" stroke-linejoin="miter" d="M 469.999731 199.999554 L 469.999731 208.001447 " stroke="#000000" stroke-width="2" stroke-opacity="1" stroke-miterlimit="4"/><path stroke-linecap="square" transform="matrix(1.079973, 0, 0, 1.078846, 0.00677182, -5.405484)" fill="none" stroke-linejoin="miter" d="M 461.998952 208.001447 L 478.000511 208.001447 L 469.999731 215.99972 Z M 461.998952 208.001447 " stroke="#000000" stroke-width="2" stroke-opacity="1" stroke-miterlimit="4"/><path stroke-linecap="square" transform="matrix(1.079973, 0, 0, 1.078846, 0.00677182, -5.405484)" fill="none" stroke-linejoin="miter" d="M 49.998601 210.00011 L 49.998601 211.998773 " stroke="#000000" stroke-width="2" stroke-opacity="1" stroke-miterlimit="4"/><path stroke-linecap="square" transform="matrix(1.079973, 0, 0, 1.078846, 0.00677182, -5.405484)" fill="none" stroke-linejoin="miter" d="M 42.001438 211.998773 L 57.99938 211.998773 L 49.998601 220.000666 Z M 42.001438 211.998773 " stroke="#000000" stroke-width="2" stroke-opacity="1" stroke-miterlimit="4"/><path stroke-linecap="square" transform="matrix(1.079973, 0, 0, 1.078846, 0.00677182, -5.405484)" fill="none" stroke-linejoin="miter" d="M 99.999855 59.999007 L 104.998534 59.999007 " stroke="#000000" stroke-width="2" stroke-opacity="1" stroke-miterlimit="4"/><path stroke-linecap="square" transform="matrix(1.079973, 0, 0, 1.078846, 0.00677182, -5.405484)" fill="none" stroke-linejoin="miter" d="M 144.998813 59.999007 L 150.001109 59.999007 " stroke="#000000" stroke-width="2" stroke-opacity="1" stroke-miterlimit="4"/><path stroke-linecap="square" transform="matrix(1.079973, 0, 0, 1.078846, 0.00677182, -5.405484)" fill="none" stroke-linejoin="miter" d="M 104.998534 59.999007 L 106.998728 59.999007 L 110.000829 53.000066 L 116.001414 67.001569 L 121.998381 53.000066 L 127.998966 67.001569 L 133.99955 53.000066 L 140.000135 67.001569 L 142.998619 59.999007 L 144.998813 59.999007 " stroke="#000000" stroke-width="2" stroke-opacity="1" stroke-miterlimit="4"/><path stroke-linecap="square" transform="matrix(1.079973, 0, 0, 1.078846, 0.00677182, -5.405484)" fill="none" stroke-linejoin="miter" d="M 469.999731 110.001788 L 469.999731 114.998446 " stroke="#000000" stroke-width="2" stroke-opacity="1" stroke-miterlimit="4"/><path stroke-linecap="square" transform="matrix(1.079973, 0, 0, 1.078846, 0.00677182, -5.405484)" fill="none" stroke-linejoin="miter" d="M 469.999731 155.000671 L 469.999731 160.000949 " stroke="#000000" stroke-width="2" stroke-opacity="1" stroke-miterlimit="4"/><path stroke-linecap="square" transform="matrix(1.079973, 0, 0, 1.078846, 0.00677182, -5.405484)" fill="none" stroke-linejoin="miter" d="M 469.999731 114.998446 L 469.999731 117.000729 L 463.000858 119.998724 L 476.998605 125.998334 L 463.000858 132.001564 L 476.998605 138.001174 L 463.000858 144.000783 L 476.998605 150.000393 L 469.999731 152.998387 L 469.999731 155.000671 " stroke="#000000" stroke-width="2" stroke-opacity="1" stroke-miterlimit="4"/><path stroke-linecap="square" transform="matrix(1.079973, 0, 0, 1.078846, 0.00677182, -5.405484)" fill="none" stroke-linejoin="miter" d="M 49.998601 119.998724 L 49.998601 128.000617 " stroke="#000000" stroke-width="2" stroke-opacity="1" stroke-miterlimit="4"/><path stroke-linecap="butt" transform="matrix(1.079973, 0, 0, 1.078846, 0.00677182, -5.405484)" fill="none" stroke-linejoin="miter" d="M 61.99977 139.999837 C 61.99977 140.789164 61.923813 141.567628 61.768283 142.342472 C 61.616369 143.113696 61.388499 143.863194 61.088289 144.590968 C 60.784462 145.318742 60.415529 146.010309 59.977873 146.665667 C 59.540217 147.321026 59.041073 147.929315 58.484057 148.486913 C 57.92704 149.04089 57.323003 149.540556 56.668328 149.978668 C 56.010036 150.416781 55.319191 150.786099 54.592177 151.086623 C 53.865162 151.387146 53.112828 151.615255 52.34241 151.770948 C 51.568374 151.92302 50.787104 151.999056 49.998601 151.999056 C 49.213714 151.999056 48.432445 151.92302 47.658409 151.770948 C 46.884373 151.615255 46.135657 151.387146 45.408642 151.086623 C 44.681627 150.786099 43.987165 150.416781 43.33249 149.978668 C 42.677815 149.540556 42.070161 149.04089 41.513145 148.486913 C 40.956129 147.929315 40.460601 147.321026 40.022945 146.665667 C 39.58529 146.010309 39.216357 145.318742 38.91253 144.590968 C 38.61232 143.863194 38.38445 143.113696 38.228919 142.342472 C 38.077005 141.567628 38.001049 140.789164 38.001049 139.999837 C 38.001049 139.21051 38.077005 138.432045 38.228919 137.657201 C 38.38445 136.885978 38.61232 136.136479 38.91253 135.408705 C 39.216357 134.680931 39.58529 133.989365 40.022945 133.334006 C 40.460601 132.678647 40.956129 132.070359 41.513145 131.516381 C 42.070161 130.958783 42.677815 130.459118 43.33249 130.021005 C 43.987165 129.582892 44.681627 129.213574 45.408642 128.91305 C 46.135657 128.612527 46.884373 128.384419 47.658409 128.232346 C 48.432445 128.076653 49.213714 128.000617 49.998601 128.000617 C 50.787104 128.000617 51.568374 128.076653 52.34241 128.232346 C 53.112828 128.384419 53.865162 128.612527 54.592177 128.91305 C 55.319191 129.213574 56.010036 129.582892 56.668328 130.021005 C 57.323003 130.459118 57.92704 130.958783 58.484057 131.516381 C 59.041073 132.070359 59.540217 132.678647 59.977873 133.334006 C 60.415529 133.989365 60.784462 134.680931 61.088289 135.408705 C 61.388499 136.136479 61.616369 136.885978 61.768283 137.657201 C 61.923813 138.432045 61.99977 139.21051 61.99977 139.999837 Z M 61.99977 139.999837 " stroke="#000000" stroke-width="2" stroke-opacity="1" stroke-miterlimit="4"/><path stroke-linecap="square" transform="matrix(1.079973, 0, 0, 1.078846, 0.00677182, -5.405484)" fill="none" stroke-linejoin="miter" d="M 49.998601 151.999056 L 49.998601 160.000949 " stroke="#000000" stroke-width="2" stroke-opacity="1" stroke-miterlimit="4"/><path stroke-linecap="square" transform="matrix(1.079973, 0, 0, 1.078846, 0.00677182, -5.405484)" fill="none" stroke-linejoin="miter" d="M 42.001438 139.999837 C 42.001438 139.739141 42.026757 139.478446 42.077395 139.221372 C 42.128033 138.960677 42.20399 138.710844 42.305265 138.468252 C 42.406541 138.225661 42.529519 137.997553 42.674198 137.776686 C 42.818878 137.55944 42.985259 137.356677 43.173343 137.172018 C 43.357809 136.987359 43.560361 136.820804 43.77738 136.672352 C 43.994399 136.527522 44.225887 136.404416 44.468225 136.303034 C 44.710563 136.205274 44.963752 136.129237 45.220558 136.078547 C 45.477365 136.024235 45.737788 135.99889 45.998211 135.99889 C 46.262251 135.99889 46.522674 136.024235 46.779481 136.078547 C 47.036287 136.129237 47.289476 136.205274 47.531814 136.303034 C 47.774153 136.404416 48.00564 136.527522 48.222659 136.672352 C 48.439679 136.820804 48.64223 136.987359 48.826696 137.172018 C 49.01478 137.356677 49.181161 137.55944 49.325841 137.776686 C 49.47052 137.997553 49.593498 138.225661 49.694774 138.468252 C 49.796049 138.710844 49.872006 138.960677 49.922644 139.221372 C 49.973282 139.478446 49.998601 139.739141 49.998601 139.999837 C 49.998601 140.264153 50.02392 140.521227 50.078175 140.781922 C 50.128812 141.038996 50.204769 141.288829 50.306045 141.531421 C 50.403704 141.774012 50.526681 142.00212 50.674978 142.222987 C 50.819657 142.440233 50.986039 142.642996 51.170505 142.827655 C 51.358589 143.015935 51.56114 143.178869 51.778159 143.327321 C 51.995179 143.472151 52.226666 143.595257 52.469004 143.696639 C 52.711342 143.7944 52.960915 143.870436 53.221338 143.924747 C 53.478144 143.975438 53.738567 144.000783 53.99899 144.000783 C 54.263031 144.000783 54.523454 143.975438 54.78026 143.924747 C 55.037066 143.870436 55.286639 143.7944 55.528977 143.696639 C 55.774932 143.595257 56.002802 143.472151 56.223439 143.327321 C 56.440458 143.178869 56.643009 143.015935 56.827476 142.827655 C 57.015559 142.642996 57.178324 142.440233 57.32662 142.222987 C 57.4713 142.00212 57.594277 141.774012 57.695553 141.531421 C 57.796829 141.288829 57.872786 141.038996 57.923423 140.781922 C 57.974061 140.521227 57.99938 140.264153 57.99938 139.999837 " stroke="#000000" stroke-width="2" stroke-opacity="1" stroke-miterlimit="4"/><path stroke-linecap="butt" transform="matrix(1.079973, 0, 0, 1.078846, 0.00677182, -5.405484)" fill-opacity="1" fill="#000000" fill-rule="nonzero" stroke-linejoin="miter" d="M 292.000475 59.999007 C 292.000475 60.266943 291.949837 60.520397 291.848562 60.766609 C 291.747286 61.009201 291.602606 61.226447 291.414523 61.414726 C 291.22644 61.603006 291.00942 61.747837 290.767082 61.849218 C 290.521127 61.9506 290.264321 62.00129 290.00028 62.00129 C 289.73624 62.00129 289.479434 61.9506 289.233479 61.849218 C 288.99114 61.747837 288.774121 61.603006 288.586038 61.414726 C 288.397954 61.226447 288.253275 61.009201 288.151999 60.766609 C 288.050723 60.520397 288.000085 60.266943 288.000085 59.999007 C 288.000085 59.734691 288.050723 59.481237 288.151999 59.235025 C 288.253275 58.988813 288.397954 58.771567 288.586038 58.586908 C 288.774121 58.398628 288.99114 58.253797 289.233479 58.152416 C 289.479434 58.051035 289.73624 58.000344 290.00028 58.000344 C 290.264321 58.000344 290.521127 58.051035 290.767082 58.152416 C 291.00942 58.253797 291.22644 58.398628 291.414523 58.586908 C 291.602606 58.771567 291.747286 58.988813 291.848562 59.235025 C 291.949837 59.481237 292.000475 59.734691 292.000475 59.999007 Z M 292.000475 59.999007 " stroke="#000000" stroke-width="2" stroke-opacity="1" stroke-miterlimit="4"/><g clip-path="url(#df8a758ac1)"><path fill="#000000" d="M 167.03125 43.453125 C 164.972656 43.453125 163.28125 45.144531 163.28125 47.203125 L 163.28125 71.203125 C 163.28125 73.261719 164.972656 74.953125 167.03125 74.953125 L 191.03125 74.953125 C 193.089844 74.953125 194.78125 73.261719 194.78125 71.203125 L 194.78125 47.203125 C 194.78125 45.144531 193.089844 43.453125 191.03125 43.453125 Z M 167.03125 44.953125 L 191.03125 44.953125 C 192.273438 44.953125 193.28125 45.964844 193.28125 47.203125 L 193.28125 71.203125 C 193.28125 72.445312 192.273438 73.453125 191.03125 73.453125 L 167.03125 73.453125 C 165.792969 73.453125 164.78125 72.445312 164.78125 71.203125 L 164.78125 47.203125 C 164.78125 45.964844 165.792969 44.953125 167.03125 44.953125 Z M 172.8125 51.921875 L 171.753906 52.984375 L 177.972656 59.203125 L 171.753906 65.421875 L 172.8125 66.484375 L 179.03125 60.265625 L 185.253906 66.484375 L 186.3125 65.421875 L 180.09375 59.203125 L 186.3125 52.984375 L 185.253906 51.921875 L 179.03125 58.144531 Z M 172.8125 51.921875 " fill-opacity="1" fill-rule="nonzero"/></g><g clip-path="url(#d9ecc84016)"><path fill="#000000" d="M 526.910156 116.65625 L 526.910156 120.335938 C 526.910156 120.46875 526.863281 120.585938 526.769531 120.679688 C 526.675781 120.773438 526.5625 120.820312 526.429688 120.820312 C 526.296875 120.820312 526.183594 120.773438 526.089844 120.679688 C 525.996094 120.585938 525.949219 120.46875 525.949219 120.335938 L 525.949219 116.65625 C 525.949219 116.523438 525.996094 116.410156 526.089844 116.3125 C 526.183594 116.21875 526.296875 116.171875 526.429688 116.171875 C 526.5625 116.171875 526.675781 116.21875 526.769531 116.3125 C 526.863281 116.410156 526.910156 116.523438 526.910156 116.65625 Z M 526.910156 123.960938 L 526.910156 127.601562 C 526.910156 127.738281 526.863281 127.851562 526.769531 127.945312 C 526.675781 128.042969 526.5625 128.089844 526.429688 128.089844 C 526.296875 128.089844 526.183594 128.042969 526.089844 127.945312 C 525.996094 127.851562 525.949219 127.738281 525.949219 127.601562 L 525.949219 123.96875 C 525.949219 123.835938 525.996094 123.71875 526.089844 123.625 C 526.183594 123.53125 526.296875 123.480469 526.429688 123.480469 C 526.5625 123.480469 526.675781 123.53125 526.769531 123.625 C 526.863281 123.71875 526.910156 123.835938 526.910156 123.96875 Z M 526.910156 131.226562 L 526.910156 134.871094 C 526.910156 135.003906 526.863281 135.117188 526.769531 135.214844 C 526.675781 135.308594 526.5625 135.355469 526.429688 135.355469 C 526.296875 135.355469 526.183594 135.308594 526.089844 135.214844 C 525.996094 135.117188 525.949219 135.003906 525.949219 134.871094 L 525.949219 131.234375 C 525.949219 131.101562 525.996094 130.988281 526.089844 130.890625 C 526.183594 130.796875 526.296875 130.75 526.429688 130.75 C 526.5625 130.75 526.675781 130.796875 526.769531 130.890625 C 526.863281 130.988281 526.910156 131.101562 526.910156 131.234375 Z M 526.910156 138.492188 L 526.910156 142.136719 C 526.910156 142.269531 526.863281 142.386719 526.769531 142.480469 C 526.675781 142.574219 526.5625 142.625 526.429688 142.625 C 526.296875 142.625 526.183594 142.574219 526.089844 142.480469 C 525.996094 142.386719 525.949219 142.269531 525.949219 142.136719 L 525.949219 138.503906 C 525.949219 138.367188 525.996094 138.253906 526.089844 138.160156 C 526.183594 138.0625 526.296875 138.015625 526.429688 138.015625 C 526.5625 138.015625 526.675781 138.0625 526.769531 138.160156 C 526.863281 138.253906 526.910156 138.367188 526.910156 138.503906 Z M 526.910156 145.761719 L 526.910156 149.402344 C 526.910156 149.539062 526.863281 149.652344 526.769531 149.746094 C 526.675781 149.84375 526.5625 149.890625 526.429688 149.890625 C 526.296875 149.890625 526.183594 149.84375 526.089844 149.746094 C 525.996094 149.652344 525.949219 149.539062 525.949219 149.402344 L 525.949219 145.769531 C 525.949219 145.636719 525.996094 145.519531 526.089844 145.425781 C 526.183594 145.332031 526.296875 145.285156 526.429688 145.285156 C 526.5625 145.285156 526.675781 145.332031 526.769531 145.425781 C 526.863281 145.519531 526.910156 145.636719 526.910156 145.769531 Z M 526.910156 153.027344 L 526.910156 156.671875 C 526.910156 156.804688 526.863281 156.917969 526.769531 157.015625 C 526.675781 157.109375 526.5625 157.15625 526.429688 157.15625 C 526.296875 157.15625 526.183594 157.109375 526.089844 157.015625 C 525.996094 156.917969 525.949219 156.804688 525.949219 156.671875 L 525.949219 153.039062 C 525.949219 152.902344 525.996094 152.789062 526.089844 152.691406 C 526.183594 152.597656 526.296875 152.550781 526.429688 152.550781 C 526.5625 152.550781 526.675781 152.597656 526.769531 152.691406 C 526.863281 152.789062 526.910156 152.902344 526.910156 153.039062 Z M 526.910156 160.304688 L 526.910156 163.9375 C 526.910156 164.070312 526.863281 164.1875 526.769531 164.28125 C 526.675781 164.378906 526.5625 164.425781 526.429688 164.425781 C 526.296875 164.425781 526.183594 164.378906 526.089844 164.28125 C 525.996094 164.1875 525.949219 164.070312 525.949219 163.9375 L 525.949219 160.304688 C 525.949219 160.167969 525.996094 160.054688 526.089844 159.960938 C 526.183594 159.863281 526.296875 159.816406 526.429688 159.816406 C 526.5625 159.816406 526.675781 159.863281 526.769531 159.960938 C 526.863281 160.054688 526.910156 160.167969 526.910156 160.304688 Z M 526.910156 167.570312 L 526.910156 171.203125 C 526.910156 171.339844 526.863281 171.453125 526.769531 171.550781 C 526.675781 171.644531 526.5625 171.691406 526.429688 171.691406 C 526.296875 171.691406 526.183594 171.644531 526.089844 171.550781 C 525.996094 171.453125 525.949219 171.339844 525.949219 171.203125 L 525.949219 167.570312 C 525.949219 167.4375 525.996094 167.320312 526.089844 167.226562 C 526.183594 167.132812 526.296875 167.085938 526.429688 167.085938 C 526.5625 167.085938 526.675781 167.132812 526.769531 167.226562 C 526.863281 167.320312 526.910156 167.4375 526.910156 167.570312 Z M 526.910156 174.839844 L 526.910156 178.472656 C 526.910156 178.605469 526.863281 178.722656 526.769531 178.816406 C 526.675781 178.910156 526.5625 178.957031 526.429688 178.957031 C 526.296875 178.957031 526.183594 178.910156 526.089844 178.816406 C 525.996094 178.722656 525.949219 178.605469 525.949219 178.472656 L 525.949219 174.839844 C 525.949219 174.703125 525.996094 174.589844 526.089844 174.496094 C 526.183594 174.398438 526.296875 174.351562 526.429688 174.351562 C 526.5625 174.351562 526.675781 174.398438 526.769531 174.496094 C 526.863281 174.589844 526.910156 174.703125 526.910156 174.839844 Z M 526.910156 182.105469 L 526.910156 185.738281 C 526.910156 185.875 526.863281 185.988281 526.769531 186.082031 C 526.675781 186.179688 526.5625 186.226562 526.429688 186.226562 C 526.296875 186.226562 526.183594 186.179688 526.089844 186.082031 C 525.996094 185.988281 525.949219 185.875 525.949219 185.738281 L 525.949219 182.105469 C 525.949219 181.972656 525.996094 181.855469 526.089844 181.761719 C 526.183594 181.667969 526.296875 181.617188 526.429688 181.617188 C 526.5625 181.617188 526.675781 181.667969 526.769531 181.761719 C 526.863281 181.855469 526.910156 181.972656 526.910156 182.105469 Z M 526.910156 189.371094 L 526.910156 193.007812 C 526.910156 193.144531 526.863281 193.257812 526.769531 193.351562 C 526.675781 193.449219 526.5625 193.496094 526.429688 193.496094 C 526.296875 193.496094 526.183594 193.449219 526.089844 193.351562 C 525.996094 193.257812 525.949219 193.144531 525.949219 193.007812 L 525.949219 189.371094 C 525.949219 189.238281 525.996094 189.125 526.089844 189.027344 C 526.183594 188.933594 526.296875 188.886719 526.429688 188.886719 C 526.5625 188.886719 526.675781 188.933594 526.769531 189.027344 C 526.863281 189.125 526.910156 189.238281 526.910156 189.371094 Z M 526.910156 196.640625 L 526.910156 197.09375 C 526.914062 198.210938 526.746094 199.304688 526.417969 200.371094 C 526.386719 200.507812 526.308594 200.609375 526.1875 200.679688 C 526.066406 200.75 525.9375 200.761719 525.804688 200.71875 C 525.671875 200.679688 525.578125 200.59375 525.515625 200.46875 C 525.457031 200.339844 525.449219 200.210938 525.5 200.082031 C 525.800781 199.109375 525.949219 198.113281 525.949219 197.09375 L 525.949219 196.640625 C 525.949219 196.507812 525.996094 196.394531 526.089844 196.296875 C 526.183594 196.203125 526.296875 196.15625 526.429688 196.15625 C 526.5625 196.15625 526.675781 196.203125 526.769531 196.296875 C 526.863281 196.394531 526.910156 196.507812 526.910156 196.640625 Z M 526.277344 113.089844 C 526.277344 113.207031 526.238281 113.3125 526.164062 113.402344 C 526.085938 113.492188 525.992188 113.546875 525.878906 113.570312 C 525.761719 113.589844 525.65625 113.570312 525.554688 113.511719 C 525.453125 113.453125 525.382812 113.367188 525.34375 113.253906 C 524.945312 112.160156 524.378906 111.164062 523.636719 110.273438 C 523.550781 110.167969 523.515625 110.050781 523.527344 109.917969 C 523.539062 109.78125 523.59375 109.671875 523.699219 109.585938 C 523.800781 109.5 523.917969 109.460938 524.050781 109.472656 C 524.183594 109.484375 524.292969 109.542969 524.375 109.644531 C 525.1875 110.628906 525.8125 111.71875 526.246094 112.921875 C 526.265625 112.976562 526.277344 113.03125 526.277344 113.089844 Z M 524.792969 203.4375 C 524.792969 203.546875 524.761719 203.644531 524.695312 203.730469 C 523.929688 204.746094 523.015625 205.605469 521.957031 206.300781 C 521.84375 206.375 521.722656 206.398438 521.59375 206.367188 C 521.464844 206.339844 521.363281 206.269531 521.289062 206.15625 C 521.21875 206.042969 521.195312 205.921875 521.222656 205.792969 C 521.25 205.660156 521.320312 205.558594 521.433594 205.484375 C 522.398438 204.847656 523.230469 204.066406 523.929688 203.136719 C 524.066406 202.953125 524.246094 202.898438 524.464844 202.972656 C 524.683594 203.046875 524.792969 203.199219 524.792969 203.433594 Z M 521.757812 107.632812 C 521.757812 107.722656 521.738281 107.800781 521.695312 107.878906 C 521.628906 107.992188 521.53125 108.070312 521.402344 108.101562 C 521.273438 108.136719 521.148438 108.121094 521.035156 108.050781 C 520.039062 107.460938 518.976562 107.058594 517.839844 106.851562 C 517.710938 106.824219 517.605469 106.757812 517.53125 106.648438 C 517.453125 106.535156 517.429688 106.414062 517.453125 106.28125 C 517.476562 106.152344 517.542969 106.046875 517.652344 105.96875 C 517.761719 105.894531 517.882812 105.867188 518.015625 105.890625 C 519.257812 106.121094 520.429688 106.5625 521.519531 107.210938 C 521.679688 107.304688 521.761719 107.445312 521.757812 107.632812 Z M 518.886719 207.320312 C 518.886719 207.578125 518.761719 207.734375 518.515625 207.792969 C 517.699219 207.988281 516.871094 208.082031 516.03125 208.082031 L 514.828125 208.082031 C 514.695312 208.082031 514.582031 208.035156 514.488281 207.941406 C 514.394531 207.84375 514.347656 207.730469 514.347656 207.597656 C 514.347656 207.460938 514.394531 207.347656 514.488281 207.253906 C 514.582031 207.15625 514.695312 207.109375 514.828125 207.109375 L 516.03125 207.109375 C 516.796875 207.109375 517.550781 207.019531 518.296875 206.847656 C 518.425781 206.816406 518.546875 206.835938 518.660156 206.90625 C 518.773438 206.976562 518.84375 207.078125 518.875 207.210938 C 518.882812 207.246094 518.886719 207.285156 518.886719 207.320312 Z M 514.828125 106.199219 C 514.828125 106.332031 514.777344 106.445312 514.683594 106.542969 C 514.589844 106.636719 514.476562 106.683594 514.34375 106.683594 L 510.75 106.683594 C 510.617188 106.683594 510.503906 106.636719 510.410156 106.542969 C 510.316406 106.445312 510.269531 106.332031 510.269531 106.199219 C 510.269531 106.0625 510.316406 105.949219 510.410156 105.855469 C 510.503906 105.757812 510.617188 105.710938 510.75 105.710938 L 514.34375 105.710938 C 514.476562 105.710938 514.589844 105.757812 514.683594 105.855469 C 514.777344 105.949219 514.828125 106.0625 514.828125 106.199219 Z M 511.722656 207.597656 C 511.722656 207.730469 511.671875 207.84375 511.578125 207.941406 C 511.484375 208.035156 511.371094 208.082031 511.238281 208.082031 L 507.652344 208.082031 C 507.519531 208.082031 507.40625 208.035156 507.3125 207.941406 C 507.21875 207.84375 507.171875 207.730469 507.171875 207.597656 C 507.171875 207.460938 507.21875 207.347656 507.3125 207.253906 C 507.40625 207.15625 507.519531 207.109375 507.652344 207.109375 L 511.238281 207.109375 C 511.371094 207.109375 511.484375 207.15625 511.578125 207.253906 C 511.671875 207.347656 511.722656 207.460938 511.722656 207.597656 Z M 507.628906 106.199219 C 507.628906 106.332031 507.582031 106.445312 507.488281 106.542969 C 507.394531 106.636719 507.28125 106.683594 507.148438 106.683594 L 503.558594 106.683594 C 503.425781 106.683594 503.3125 106.636719 503.21875 106.542969 C 503.125 106.445312 503.078125 106.332031 503.078125 106.199219 C 503.078125 106.0625 503.125 105.949219 503.21875 105.855469 C 503.3125 105.757812 503.425781 105.710938 503.558594 105.710938 L 507.152344 105.710938 C 507.289062 105.710938 507.402344 105.757812 507.496094 105.851562 C 507.589844 105.949219 507.636719 106.0625 507.636719 106.199219 Z M 504.523438 207.597656 C 504.523438 207.730469 504.476562 207.84375 504.382812 207.941406 C 504.289062 208.035156 504.175781 208.082031 504.042969 208.082031 L 500.457031 208.082031 C 500.324219 208.082031 500.210938 208.035156 500.117188 207.941406 C 500.023438 207.84375 499.976562 207.730469 499.976562 207.597656 C 499.976562 207.460938 500.023438 207.347656 500.117188 207.253906 C 500.210938 207.15625 500.324219 207.109375 500.457031 207.109375 L 504.042969 207.109375 C 504.175781 207.109375 504.289062 207.15625 504.382812 207.253906 C 504.476562 207.347656 504.523438 207.460938 504.523438 207.597656 Z M 500.429688 106.199219 C 500.429688 106.332031 500.382812 106.445312 500.289062 106.542969 C 500.195312 106.636719 500.082031 106.683594 499.949219 106.683594 L 498.769531 106.683594 C 498 106.683594 497.238281 106.773438 496.488281 106.953125 C 496.355469 106.988281 496.230469 106.972656 496.113281 106.902344 C 495.996094 106.832031 495.921875 106.730469 495.890625 106.59375 C 495.859375 106.460938 495.878906 106.335938 495.953125 106.21875 C 496.027344 106.105469 496.132812 106.03125 496.265625 106.003906 C 497.089844 105.808594 497.925781 105.710938 498.769531 105.710938 L 499.949219 105.710938 C 500.085938 105.707031 500.203125 105.75 500.300781 105.847656 C 500.398438 105.941406 500.449219 106.058594 500.449219 106.199219 Z M 497.355469 207.417969 C 497.359375 207.445312 497.359375 207.476562 497.355469 207.507812 C 497.332031 207.640625 497.265625 207.742188 497.152344 207.820312 C 497.042969 207.894531 496.921875 207.921875 496.792969 207.894531 C 495.546875 207.660156 494.378906 207.21875 493.289062 206.570312 C 493.1875 206.496094 493.121094 206.398438 493.09375 206.273438 C 493.066406 206.152344 493.082031 206.035156 493.144531 205.925781 C 493.210938 205.8125 493.300781 205.742188 493.421875 205.703125 C 493.542969 205.664062 493.65625 205.675781 493.769531 205.730469 C 494.765625 206.324219 495.828125 206.730469 496.964844 206.945312 C 497.074219 206.96875 497.167969 207.023438 497.242188 207.109375 C 497.316406 207.199219 497.355469 207.300781 497.355469 207.417969 Z M 493.589844 107.90625 C 493.589844 108.082031 493.519531 108.214844 493.375 108.3125 C 492.410156 108.949219 491.578125 109.730469 490.882812 110.65625 C 490.800781 110.765625 490.695312 110.828125 490.5625 110.84375 C 490.433594 110.863281 490.3125 110.832031 490.207031 110.75 C 490.101562 110.667969 490.039062 110.5625 490.019531 110.429688 C 490.003906 110.292969 490.035156 110.175781 490.113281 110.066406 C 490.875 109.046875 491.789062 108.191406 492.847656 107.492188 C 492.957031 107.417969 493.078125 107.394531 493.210938 107.421875 C 493.339844 107.449219 493.441406 107.519531 493.511719 107.632812 C 493.566406 107.714844 493.59375 107.808594 493.589844 107.90625 Z M 491.28125 203.808594 C 491.277344 204.03125 491.171875 204.179688 490.960938 204.257812 C 490.75 204.332031 490.574219 204.28125 490.433594 204.109375 C 489.621094 203.128906 489 202.035156 488.570312 200.832031 C 488.523438 200.707031 488.527344 200.582031 488.585938 200.460938 C 488.640625 200.339844 488.730469 200.253906 488.855469 200.210938 C 488.980469 200.164062 489.105469 200.167969 489.222656 200.226562 C 489.34375 200.28125 489.429688 200.375 489.472656 200.5 C 489.863281 201.597656 490.425781 202.59375 491.160156 203.488281 C 491.238281 203.578125 491.28125 203.683594 491.28125 203.808594 Z M 489.355469 113.578125 C 489.355469 113.625 489.347656 113.675781 489.335938 113.722656 C 489.03125 114.691406 488.878906 115.683594 488.875 116.703125 L 488.875 117.1875 C 488.875 117.324219 488.828125 117.4375 488.734375 117.53125 C 488.640625 117.628906 488.527344 117.675781 488.394531 117.675781 C 488.261719 117.675781 488.148438 117.628906 488.050781 117.53125 C 487.957031 117.4375 487.910156 117.324219 487.910156 117.1875 L 487.910156 116.703125 C 487.910156 115.589844 488.070312 114.507812 488.394531 113.445312 C 488.410156 113.3125 488.472656 113.203125 488.582031 113.121094 C 488.6875 113.039062 488.804688 113.007812 488.9375 113.023438 C 489.070312 113.042969 489.179688 113.105469 489.261719 113.214844 C 489.34375 113.320312 489.375 113.441406 489.355469 113.578125 Z M 488.875 120.808594 L 488.875 124.445312 C 488.875 124.578125 488.828125 124.691406 488.734375 124.789062 C 488.640625 124.882812 488.527344 124.929688 488.394531 124.929688 C 488.261719 124.929688 488.148438 124.882812 488.050781 124.789062 C 487.957031 124.691406 487.910156 124.578125 487.910156 124.445312 L 487.910156 120.808594 C 487.910156 120.675781 487.957031 120.5625 488.050781 120.464844 C 488.148438 120.371094 488.261719 120.324219 488.394531 120.324219 C 488.527344 120.324219 488.640625 120.371094 488.734375 120.464844 C 488.828125 120.5625 488.875 120.675781 488.875 120.808594 Z M 488.875 128.078125 L 488.875 131.710938 C 488.875 131.84375 488.828125 131.960938 488.734375 132.054688 C 488.640625 132.148438 488.527344 132.195312 488.394531 132.195312 C 488.261719 132.195312 488.148438 132.148438 488.050781 132.054688 C 487.957031 131.960938 487.910156 131.84375 487.910156 131.710938 L 487.910156 128.078125 C 487.910156 127.941406 487.957031 127.828125 488.050781 127.734375 C 488.148438 127.636719 488.261719 127.589844 488.394531 127.589844 C 488.527344 127.589844 488.640625 127.636719 488.734375 127.734375 C 488.828125 127.828125 488.875 127.941406 488.875 128.078125 Z M 488.875 135.34375 L 488.875 138.976562 C 488.875 139.113281 488.828125 139.226562 488.734375 139.320312 C 488.640625 139.417969 488.527344 139.464844 488.394531 139.464844 C 488.261719 139.464844 488.148438 139.417969 488.050781 139.320312 C 487.957031 139.226562 487.910156 139.113281 487.910156 138.976562 L 487.910156 135.34375 C 487.910156 135.210938 487.957031 135.09375 488.050781 135 C 488.148438 134.90625 488.261719 134.855469 488.394531 134.855469 C 488.527344 134.855469 488.640625 134.90625 488.734375 135 C 488.828125 135.09375 488.875 135.210938 488.875 135.34375 Z M 488.875 142.609375 L 488.875 146.246094 C 488.875 146.378906 488.828125 146.492188 488.734375 146.589844 C 488.640625 146.683594 488.527344 146.730469 488.394531 146.730469 C 488.261719 146.730469 488.148438 146.683594 488.050781 146.589844 C 487.957031 146.492188 487.910156 146.378906 487.910156 146.246094 L 487.910156 142.609375 C 487.910156 142.476562 487.957031 142.363281 488.050781 142.265625 C 488.148438 142.171875 488.261719 142.125 488.394531 142.125 C 488.527344 142.125 488.640625 142.171875 488.734375 142.265625 C 488.828125 142.363281 488.875 142.476562 488.875 142.609375 Z M 488.875 149.878906 L 488.875 153.511719 C 488.875 153.644531 488.828125 153.761719 488.734375 153.855469 C 488.640625 153.949219 488.527344 154 488.394531 154 C 488.261719 154 488.148438 153.949219 488.050781 153.855469 C 487.957031 153.761719 487.910156 153.644531 487.910156 153.511719 L 487.910156 149.878906 C 487.910156 149.742188 487.957031 149.628906 488.050781 149.535156 C 488.148438 149.4375 488.261719 149.390625 488.394531 149.390625 C 488.527344 149.390625 488.640625 149.4375 488.734375 149.535156 C 488.828125 149.628906 488.875 149.742188 488.875 149.878906 Z M 488.875 157.140625 L 488.875 160.777344 C 488.875 160.914062 488.828125 161.027344 488.734375 161.121094 C 488.640625 161.21875 488.527344 161.265625 488.394531 161.265625 C 488.261719 161.265625 488.148438 161.21875 488.050781 161.121094 C 487.957031 161.027344 487.910156 160.914062 487.910156 160.777344 L 487.910156 157.140625 C 487.910156 157.007812 487.957031 156.890625 488.050781 156.796875 C 488.148438 156.703125 488.261719 156.652344 488.394531 156.652344 C 488.527344 156.652344 488.640625 156.703125 488.734375 156.796875 C 488.828125 156.890625 488.875 157.007812 488.875 157.140625 Z M 488.875 164.40625 L 488.875 168.046875 C 488.875 168.179688 488.828125 168.296875 488.734375 168.390625 C 488.640625 168.484375 488.527344 168.53125 488.394531 168.53125 C 488.261719 168.53125 488.148438 168.484375 488.050781 168.390625 C 487.957031 168.296875 487.910156 168.179688 487.910156 168.046875 L 487.910156 164.414062 C 487.910156 164.277344 487.957031 164.164062 488.050781 164.066406 C 488.148438 163.972656 488.261719 163.925781 488.394531 163.925781 C 488.527344 163.925781 488.640625 163.972656 488.734375 164.066406 C 488.828125 164.164062 488.875 164.277344 488.875 164.414062 Z M 488.875 171.675781 L 488.875 175.3125 C 488.875 175.449219 488.828125 175.5625 488.734375 175.65625 C 488.640625 175.753906 488.527344 175.800781 488.394531 175.800781 C 488.261719 175.800781 488.148438 175.753906 488.050781 175.65625 C 487.957031 175.5625 487.910156 175.449219 487.910156 175.3125 L 487.910156 171.679688 C 487.910156 171.546875 487.957031 171.429688 488.050781 171.335938 C 488.148438 171.238281 488.261719 171.191406 488.394531 171.191406 C 488.527344 171.191406 488.640625 171.238281 488.734375 171.335938 C 488.828125 171.429688 488.875 171.546875 488.875 171.679688 Z M 488.875 178.941406 L 488.875 182.578125 C 488.875 182.714844 488.828125 182.828125 488.734375 182.925781 C 488.640625 183.019531 488.527344 183.066406 488.394531 183.066406 C 488.261719 183.066406 488.148438 183.019531 488.050781 182.925781 C 487.957031 182.828125 487.910156 182.714844 487.910156 182.578125 L 487.910156 178.945312 C 487.910156 178.8125 487.957031 178.699219 488.050781 178.601562 C 488.148438 178.507812 488.261719 178.460938 488.394531 178.460938 C 488.527344 178.460938 488.640625 178.507812 488.734375 178.601562 C 488.828125 178.699219 488.875 178.8125 488.875 178.945312 Z M 488.875 186.207031 L 488.875 189.847656 C 488.875 189.980469 488.828125 190.097656 488.734375 190.191406 C 488.640625 190.285156 488.527344 190.332031 488.394531 190.332031 C 488.261719 190.332031 488.148438 190.285156 488.050781 190.191406 C 487.957031 190.097656 487.910156 189.980469 487.910156 189.847656 L 487.910156 186.214844 C 487.910156 186.078125 487.957031 185.964844 488.050781 185.871094 C 488.148438 185.773438 488.261719 185.726562 488.394531 185.726562 C 488.527344 185.726562 488.640625 185.773438 488.734375 185.871094 C 488.828125 185.964844 488.875 186.078125 488.875 186.214844 Z M 488.875 193.476562 L 488.875 197.09375 C 488.875 197.226562 488.828125 197.339844 488.734375 197.4375 C 488.640625 197.53125 488.527344 197.578125 488.394531 197.578125 C 488.261719 197.578125 488.148438 197.53125 488.050781 197.4375 C 487.957031 197.339844 487.910156 197.226562 487.910156 197.09375 L 487.910156 193.480469 C 487.910156 193.347656 487.957031 193.230469 488.050781 193.136719 C 488.148438 193.042969 488.261719 192.992188 488.394531 192.992188 C 488.527344 192.992188 488.640625 193.042969 488.734375 193.136719 C 488.828125 193.230469 488.875 193.347656 488.875 193.480469 Z M 488.875 193.476562 " fill-opacity="1" fill-rule="nonzero"/></g><g clip-path="url(#cf35632de2)"><path fill="#000000" d="M 495.46875 163.992188 C 493.410156 163.992188 491.71875 165.679688 491.71875 167.742188 L 491.71875 191.742188 C 491.71875 193.800781 493.410156 195.492188 495.46875 195.492188 L 519.46875 195.492188 C 521.527344 195.492188 523.21875 193.800781 523.21875 191.742188 L 523.21875 167.742188 C 523.21875 165.679688 521.527344 163.992188 519.46875 163.992188 Z M 495.46875 165.492188 L 519.46875 165.492188 C 520.710938 165.492188 521.71875 166.5 521.71875 167.742188 L 521.71875 191.742188 C 521.71875 192.980469 520.710938 193.992188 519.46875 193.992188 L 495.46875 193.992188 C 494.230469 193.992188 493.21875 192.980469 493.21875 191.742188 L 493.21875 167.742188 C 493.21875 166.5 494.230469 165.492188 495.46875 165.492188 Z M 501.25 172.460938 L 500.191406 173.519531 L 506.410156 179.742188 L 500.191406 185.960938 L 501.25 187.019531 L 507.46875 180.800781 L 513.691406 187.019531 L 514.75 185.960938 L 508.53125 179.742188 L 514.75 173.519531 L 513.691406 172.460938 L 507.46875 178.679688 Z M 501.25 172.460938 " fill-opacity="1" fill-rule="nonzero"/></g><g fill="#000000" fill-opacity="1"><g transform="translate(228.4099, 44.030777)"><g><path d="M 1.28125 -11.625 L 3.40625 -11.625 L 3.40625 -1.890625 L 8.1875 -1.890625 L 8.1875 0 L 1.28125 0 Z M 1.28125 -11.625 "/></g></g></g><g fill="#000000" fill-opacity="1"><g transform="translate(395.380906, 44.030777)"><g><path d="M 1.28125 -11.625 L 3.40625 -11.625 L 3.40625 -1.890625 L 8.1875 -1.890625 L 8.1875 0 L 1.28125 0 Z M 1.28125 -11.625 "/></g></g></g><g fill="#000000" fill-opacity="1"><g transform="translate(274.566696, 145.419157)"><g><path d="M 6.546875 0.234375 C 5.367188 0.234375 4.328125 -0.015625 3.421875 -0.515625 C 2.523438 -1.015625 1.828125 -1.71875 1.328125 -2.625 C 0.828125 -3.539062 0.578125 -4.601562 0.578125 -5.8125 C 0.578125 -7.007812 0.832031 -8.0625 1.34375 -8.96875 C 1.863281 -9.882812 2.578125 -10.59375 3.484375 -11.09375 C 4.398438 -11.601562 5.441406 -11.859375 6.609375 -11.859375 C 7.722656 -11.859375 8.722656 -11.628906 9.609375 -11.171875 L 9.390625 -9.15625 C 8.910156 -9.363281 8.453125 -9.523438 8.015625 -9.640625 C 7.578125 -9.753906 7.101562 -9.8125 6.59375 -9.8125 C 5.40625 -9.8125 4.492188 -9.445312 3.859375 -8.71875 C 3.222656 -7.988281 2.90625 -7.019531 2.90625 -5.8125 C 2.90625 -4.601562 3.21875 -3.632812 3.84375 -2.90625 C 4.46875 -2.175781 5.367188 -1.8125 6.546875 -1.8125 C 7.066406 -1.8125 7.546875 -1.863281 7.984375 -1.96875 C 8.421875 -2.082031 8.890625 -2.25 9.390625 -2.46875 L 9.609375 -0.453125 C 8.648438 0.00390625 7.628906 0.234375 6.546875 0.234375 Z M 6.546875 0.234375 "/></g></g></g><g fill="#000000" fill-opacity="1"><g transform="translate(128.152544, 27.833432)"><g><path d="M 1.21875 -11.09375 L 5.28125 -11.09375 C 6.457031 -11.09375 7.382812 -10.804688 8.0625 -10.234375 C 8.75 -9.671875 9.09375 -8.835938 9.09375 -7.734375 C 9.09375 -6.960938 8.925781 -6.332031 8.59375 -5.84375 C 8.269531 -5.351562 7.804688 -4.957031 7.203125 -4.65625 L 9.71875 0 L 7.453125 0 L 5.3125 -4.125 L 3.25 -4.125 L 3.25 0 L 1.21875 0 Z M 4.734375 -5.8125 C 6.222656 -5.8125 6.96875 -6.414062 6.96875 -7.625 C 6.96875 -8.207031 6.796875 -8.644531 6.453125 -8.9375 C 6.117188 -9.238281 5.570312 -9.390625 4.8125 -9.390625 L 3.25 -9.390625 L 3.25 -5.8125 Z M 4.734375 -5.8125 "/></g></g></g><g fill="#000000" fill-opacity="1"><g transform="translate(138.06516, 27.833432)"><g><path d="M 3.171875 0.15625 C 2.660156 0.15625 2.195312 0.109375 1.78125 0.015625 C 1.363281 -0.078125 0.929688 -0.222656 0.484375 -0.421875 L 0.671875 -2.109375 C 1.109375 -1.847656 1.519531 -1.648438 1.90625 -1.515625 C 2.289062 -1.378906 2.691406 -1.3125 3.109375 -1.3125 C 3.910156 -1.3125 4.3125 -1.578125 4.3125 -2.109375 C 4.3125 -2.390625 4.203125 -2.609375 3.984375 -2.765625 C 3.773438 -2.921875 3.398438 -3.101562 2.859375 -3.3125 C 2.066406 -3.59375 1.488281 -3.914062 1.125 -4.28125 C 0.757812 -4.644531 0.578125 -5.140625 0.578125 -5.765625 C 0.578125 -6.453125 0.835938 -7.007812 1.359375 -7.4375 C 1.890625 -7.863281 2.601562 -8.078125 3.5 -8.078125 C 4.394531 -8.078125 5.210938 -7.875 5.953125 -7.46875 L 5.78125 -5.78125 C 5.382812 -6.050781 5.007812 -6.257812 4.65625 -6.40625 C 4.300781 -6.5625 3.925781 -6.640625 3.53125 -6.640625 C 3.195312 -6.640625 2.9375 -6.570312 2.75 -6.4375 C 2.5625 -6.300781 2.46875 -6.101562 2.46875 -5.84375 C 2.46875 -5.644531 2.519531 -5.484375 2.625 -5.359375 C 2.738281 -5.234375 2.894531 -5.117188 3.09375 -5.015625 C 3.300781 -4.910156 3.640625 -4.769531 4.109375 -4.59375 C 4.878906 -4.300781 5.429688 -3.976562 5.765625 -3.625 C 6.109375 -3.269531 6.28125 -2.796875 6.28125 -2.203125 C 6.28125 -1.453125 6.007812 -0.867188 5.46875 -0.453125 C 4.925781 -0.046875 4.160156 0.15625 3.171875 0.15625 Z M 3.171875 0.15625 "/></g></g></g><g fill="#000000" fill-opacity="1"><g transform="translate(144.763301, 27.833432)"><g/></g></g><g fill="#000000" fill-opacity="1"><g transform="translate(148.326143, 27.833432)"><g><path d="M 2.75 -3.640625 L 0.640625 -3.640625 L 0.640625 -5.140625 L 2.75 -5.140625 L 2.75 -7.25 L 4.375 -7.25 L 4.375 -5.140625 L 6.5 -5.140625 L 6.5 -3.640625 L 4.375 -3.640625 L 4.375 -1.515625 L 2.75 -1.515625 Z M 2.75 -3.640625 "/></g></g></g><g fill="#000000" fill-opacity="1"><g transform="translate(155.451828, 27.833432)"><g/></g></g><g fill="#000000" fill-opacity="1"><g transform="translate(159.014671, 27.833432)"><g><path d="M 0.921875 -11.09375 L 2.890625 -11.09375 L 2.890625 -9.125 L 0.921875 -9.125 Z M -0.03125 2.21875 C 0.332031 2.21875 0.582031 2.125 0.71875 1.9375 C 0.851562 1.757812 0.921875 1.429688 0.921875 0.953125 L 0.921875 -7.921875 L 2.890625 -7.921875 L 2.890625 1.765625 C 2.890625 2.554688 2.71875 3.097656 2.375 3.390625 C 2.03125 3.679688 1.492188 3.828125 0.765625 3.828125 L 0.140625 3.828125 Z M -0.03125 2.21875 "/></g></g></g><g fill="#000000" fill-opacity="1"><g transform="translate(162.815033, 27.833432)"><g><path d="M 3.84375 -5.6875 L 0.15625 -11.09375 L 2.40625 -11.09375 L 4.953125 -7.3125 L 7.515625 -11.09375 L 9.765625 -11.09375 L 6.0625 -5.6875 L 9.953125 0 L 7.703125 0 L 4.953125 -4.046875 L 2.21875 0 L -0.03125 0 Z M 3.84375 -5.6875 "/></g></g></g><g fill="#000000" fill-opacity="1"><g transform="translate(172.72765, 27.833432)"><g><path d="M 3.171875 0.15625 C 2.660156 0.15625 2.195312 0.109375 1.78125 0.015625 C 1.363281 -0.078125 0.929688 -0.222656 0.484375 -0.421875 L 0.671875 -2.109375 C 1.109375 -1.847656 1.519531 -1.648438 1.90625 -1.515625 C 2.289062 -1.378906 2.691406 -1.3125 3.109375 -1.3125 C 3.910156 -1.3125 4.3125 -1.578125 4.3125 -2.109375 C 4.3125 -2.390625 4.203125 -2.609375 3.984375 -2.765625 C 3.773438 -2.921875 3.398438 -3.101562 2.859375 -3.3125 C 2.066406 -3.59375 1.488281 -3.914062 1.125 -4.28125 C 0.757812 -4.644531 0.578125 -5.140625 0.578125 -5.765625 C 0.578125 -6.453125 0.835938 -7.007812 1.359375 -7.4375 C 1.890625 -7.863281 2.601562 -8.078125 3.5 -8.078125 C 4.394531 -8.078125 5.210938 -7.875 5.953125 -7.46875 L 5.78125 -5.78125 C 5.382812 -6.050781 5.007812 -6.257812 4.65625 -6.40625 C 4.300781 -6.5625 3.925781 -6.640625 3.53125 -6.640625 C 3.195312 -6.640625 2.9375 -6.570312 2.75 -6.4375 C 2.5625 -6.300781 2.46875 -6.101562 2.46875 -5.84375 C 2.46875 -5.644531 2.519531 -5.484375 2.625 -5.359375 C 2.738281 -5.234375 2.894531 -5.117188 3.09375 -5.015625 C 3.300781 -4.910156 3.640625 -4.769531 4.109375 -4.59375 C 4.878906 -4.300781 5.429688 -3.976562 5.765625 -3.625 C 6.109375 -3.269531 6.28125 -2.796875 6.28125 -2.203125 C 6.28125 -1.453125 6.007812 -0.867188 5.46875 -0.453125 C 4.925781 -0.046875 4.160156 0.15625 3.171875 0.15625 Z M 3.171875 0.15625 "/></g></g></g><g fill="#000000" fill-opacity="1"><g transform="translate(429.93367, 145.734598)"><g><path d="M 1.21875 -11.09375 L 5.28125 -11.09375 C 6.457031 -11.09375 7.382812 -10.804688 8.0625 -10.234375 C 8.75 -9.671875 9.09375 -8.835938 9.09375 -7.734375 C 9.09375 -6.960938 8.925781 -6.332031 8.59375 -5.84375 C 8.269531 -5.351562 7.804688 -4.957031 7.203125 -4.65625 L 9.71875 0 L 7.453125 0 L 5.3125 -4.125 L 3.25 -4.125 L 3.25 0 L 1.21875 0 Z M 4.734375 -5.8125 C 6.222656 -5.8125 6.96875 -6.414062 6.96875 -7.625 C 6.96875 -8.207031 6.796875 -8.644531 6.453125 -8.9375 C 6.117188 -9.238281 5.570312 -9.390625 4.8125 -9.390625 L 3.25 -9.390625 L 3.25 -5.8125 Z M 4.734375 -5.8125 "/></g></g></g><g fill="#000000" fill-opacity="1"><g transform="translate(439.846287, 145.734598)"><g><path d="M 1.21875 -11.09375 L 3.25 -11.09375 L 3.25 -1.8125 L 7.8125 -1.8125 L 7.8125 0 L 1.21875 0 Z M 1.21875 -11.09375 "/></g></g></g><g fill="#000000" fill-opacity="1"><g transform="translate(447.76371, 145.734598)"><g/></g></g><g fill="#000000" fill-opacity="1"><g transform="translate(451.326553, 145.734598)"><g><path d="M 2.75 -3.640625 L 0.640625 -3.640625 L 0.640625 -5.140625 L 2.75 -5.140625 L 2.75 -7.25 L 4.375 -7.25 L 4.375 -5.140625 L 6.5 -5.140625 L 6.5 -3.640625 L 4.375 -3.640625 L 4.375 -1.515625 L 2.75 -1.515625 Z M 2.75 -3.640625 "/></g></g></g><g fill="#000000" fill-opacity="1"><g transform="translate(458.452238, 145.734598)"><g/></g></g><g fill="#000000" fill-opacity="1"><g transform="translate(462.01508, 145.734598)"><g><path d="M 0.921875 -11.09375 L 2.890625 -11.09375 L 2.890625 -9.125 L 0.921875 -9.125 Z M -0.03125 2.21875 C 0.332031 2.21875 0.582031 2.125 0.71875 1.9375 C 0.851562 1.757812 0.921875 1.429688 0.921875 0.953125 L 0.921875 -7.921875 L 2.890625 -7.921875 L 2.890625 1.765625 C 2.890625 2.554688 2.71875 3.097656 2.375 3.390625 C 2.03125 3.679688 1.492188 3.828125 0.765625 3.828125 L 0.140625 3.828125 Z M -0.03125 2.21875 "/></g></g></g><g fill="#000000" fill-opacity="1"><g transform="translate(465.815443, 145.734598)"><g><path d="M 3.84375 -5.6875 L 0.15625 -11.09375 L 2.40625 -11.09375 L 4.953125 -7.3125 L 7.515625 -11.09375 L 9.765625 -11.09375 L 6.0625 -5.6875 L 9.953125 0 L 7.703125 0 L 4.953125 -4.046875 L 2.21875 0 L -0.03125 0 Z M 3.84375 -5.6875 "/></g></g></g><g fill="#000000" fill-opacity="1"><g transform="translate(475.728059, 145.734598)"><g><path d="M 1.21875 -11.09375 L 3.25 -11.09375 L 3.25 -1.8125 L 7.8125 -1.8125 L 7.8125 0 L 1.21875 0 Z M 1.21875 -11.09375 "/></g></g></g><g clip-path="url(#773226fdf5)"><path fill="#000000" d="M 107.226562 38.699219 L 111.066406 38.699219 C 111.207031 38.699219 111.328125 38.746094 111.425781 38.847656 C 111.523438 38.945312 111.574219 39.066406 111.574219 39.207031 C 111.574219 39.347656 111.523438 39.46875 111.425781 39.566406 C 111.328125 39.667969 111.207031 39.714844 111.066406 39.714844 L 107.226562 39.714844 C 107.085938 39.714844 106.96875 39.667969 106.867188 39.566406 C 106.769531 39.46875 106.71875 39.347656 106.71875 39.207031 C 106.71875 39.066406 106.769531 38.945312 106.867188 38.847656 C 106.96875 38.746094 107.085938 38.699219 107.226562 38.699219 Z M 114.847656 38.699219 L 118.652344 38.699219 C 118.792969 38.699219 118.910156 38.746094 119.011719 38.847656 C 119.109375 38.945312 119.160156 39.066406 119.160156 39.207031 C 119.160156 39.347656 119.109375 39.46875 119.011719 39.566406 C 118.910156 39.667969 118.792969 39.714844 118.652344 39.714844 L 114.859375 39.714844 C 114.71875 39.714844 114.597656 39.667969 114.5 39.566406 C 114.402344 39.46875 114.351562 39.347656 114.351562 39.207031 C 114.351562 39.066406 114.402344 38.945312 114.5 38.847656 C 114.597656 38.746094 114.71875 38.699219 114.859375 38.699219 Z M 122.433594 38.699219 L 126.238281 38.699219 C 126.378906 38.699219 126.496094 38.746094 126.597656 38.847656 C 126.695312 38.945312 126.746094 39.066406 126.746094 39.207031 C 126.746094 39.347656 126.695312 39.46875 126.597656 39.566406 C 126.496094 39.667969 126.378906 39.714844 126.238281 39.714844 L 122.445312 39.714844 C 122.304688 39.714844 122.183594 39.667969 122.085938 39.566406 C 121.984375 39.46875 121.9375 39.347656 121.9375 39.207031 C 121.9375 39.066406 121.984375 38.945312 122.085938 38.847656 C 122.183594 38.746094 122.304688 38.699219 122.445312 38.699219 Z M 130.019531 38.699219 L 133.824219 38.699219 C 133.964844 38.699219 134.082031 38.746094 134.183594 38.847656 C 134.28125 38.945312 134.332031 39.066406 134.332031 39.207031 C 134.332031 39.347656 134.28125 39.46875 134.183594 39.566406 C 134.082031 39.667969 133.964844 39.714844 133.824219 39.714844 L 130.03125 39.714844 C 129.890625 39.714844 129.769531 39.667969 129.671875 39.566406 C 129.570312 39.46875 129.523438 39.347656 129.523438 39.207031 C 129.523438 39.066406 129.570312 38.945312 129.671875 38.847656 C 129.769531 38.746094 129.890625 38.699219 130.03125 38.699219 Z M 137.605469 38.699219 L 141.410156 38.699219 C 141.550781 38.699219 141.667969 38.746094 141.769531 38.847656 C 141.867188 38.945312 141.917969 39.066406 141.917969 39.207031 C 141.917969 39.347656 141.867188 39.46875 141.769531 39.566406 C 141.667969 39.667969 141.550781 39.714844 141.410156 39.714844 L 137.617188 39.714844 C 137.476562 39.714844 137.355469 39.667969 137.257812 39.566406 C 137.15625 39.46875 137.109375 39.347656 137.109375 39.207031 C 137.109375 39.066406 137.15625 38.945312 137.257812 38.847656 C 137.355469 38.746094 137.476562 38.699219 137.617188 38.699219 Z M 145.191406 38.699219 L 148.996094 38.699219 C 149.132812 38.699219 149.253906 38.746094 149.355469 38.847656 C 149.453125 38.945312 149.503906 39.066406 149.503906 39.207031 C 149.503906 39.347656 149.453125 39.46875 149.355469 39.566406 C 149.253906 39.667969 149.132812 39.714844 148.996094 39.714844 L 145.203125 39.714844 C 145.0625 39.714844 144.941406 39.667969 144.84375 39.566406 C 144.742188 39.46875 144.695312 39.347656 144.695312 39.207031 C 144.695312 39.066406 144.742188 38.945312 144.84375 38.847656 C 144.941406 38.746094 145.0625 38.699219 145.203125 38.699219 Z M 152.789062 38.699219 L 156.578125 38.699219 C 156.71875 38.699219 156.839844 38.746094 156.9375 38.847656 C 157.039062 38.945312 157.089844 39.066406 157.089844 39.207031 C 157.089844 39.347656 157.039062 39.46875 156.9375 39.566406 C 156.839844 39.667969 156.71875 39.714844 156.578125 39.714844 L 152.789062 39.714844 C 152.648438 39.714844 152.527344 39.667969 152.429688 39.566406 C 152.328125 39.46875 152.277344 39.347656 152.277344 39.207031 C 152.277344 39.066406 152.328125 38.945312 152.429688 38.847656 C 152.527344 38.746094 152.648438 38.699219 152.789062 38.699219 Z M 160.371094 38.699219 L 164.164062 38.699219 C 164.304688 38.699219 164.425781 38.746094 164.523438 38.847656 C 164.625 38.945312 164.671875 39.066406 164.671875 39.207031 C 164.671875 39.347656 164.625 39.46875 164.523438 39.566406 C 164.425781 39.667969 164.304688 39.714844 164.164062 39.714844 L 160.371094 39.714844 C 160.234375 39.714844 160.113281 39.667969 160.011719 39.566406 C 159.914062 39.46875 159.863281 39.347656 159.863281 39.207031 C 159.863281 39.066406 159.914062 38.945312 160.011719 38.847656 C 160.113281 38.746094 160.234375 38.699219 160.371094 38.699219 Z M 167.957031 38.699219 L 171.75 38.699219 C 171.890625 38.699219 172.011719 38.746094 172.109375 38.847656 C 172.210938 38.945312 172.257812 39.066406 172.257812 39.207031 C 172.257812 39.347656 172.210938 39.46875 172.109375 39.566406 C 172.011719 39.667969 171.890625 39.714844 171.75 39.714844 L 167.957031 39.714844 C 167.816406 39.714844 167.699219 39.667969 167.597656 39.566406 C 167.5 39.46875 167.449219 39.347656 167.449219 39.207031 C 167.449219 39.066406 167.5 38.945312 167.597656 38.847656 C 167.699219 38.746094 167.816406 38.699219 167.957031 38.699219 Z M 175.542969 38.699219 L 179.335938 38.699219 C 179.476562 38.699219 179.597656 38.746094 179.695312 38.847656 C 179.796875 38.945312 179.84375 39.066406 179.84375 39.207031 C 179.84375 39.347656 179.796875 39.46875 179.695312 39.566406 C 179.597656 39.667969 179.476562 39.714844 179.335938 39.714844 L 175.542969 39.714844 C 175.402344 39.714844 175.285156 39.667969 175.183594 39.566406 C 175.085938 39.46875 175.035156 39.347656 175.035156 39.207031 C 175.035156 39.066406 175.085938 38.945312 175.183594 38.847656 C 175.285156 38.746094 175.402344 38.699219 175.542969 38.699219 Z M 183.128906 38.699219 L 186.925781 38.699219 C 187.066406 38.699219 187.183594 38.746094 187.285156 38.847656 C 187.382812 38.945312 187.433594 39.066406 187.433594 39.207031 C 187.433594 39.347656 187.382812 39.46875 187.285156 39.566406 C 187.183594 39.667969 187.066406 39.714844 186.925781 39.714844 L 183.128906 39.714844 C 182.988281 39.714844 182.871094 39.667969 182.769531 39.566406 C 182.671875 39.46875 182.621094 39.347656 182.621094 39.207031 C 182.621094 39.066406 182.671875 38.945312 182.769531 38.847656 C 182.871094 38.746094 182.988281 38.699219 183.128906 38.699219 Z M 190.71875 38.699219 L 191.1875 38.699219 C 192.355469 38.695312 193.496094 38.871094 194.609375 39.21875 C 194.753906 39.253906 194.859375 39.335938 194.933594 39.464844 C 195.003906 39.59375 195.019531 39.726562 194.976562 39.867188 C 194.929688 40.007812 194.84375 40.109375 194.710938 40.171875 C 194.578125 40.238281 194.445312 40.242188 194.308594 40.191406 C 193.292969 39.875 192.25 39.714844 191.1875 39.714844 L 190.71875 39.714844 C 190.578125 39.714844 190.457031 39.667969 190.359375 39.566406 C 190.257812 39.46875 190.210938 39.347656 190.210938 39.207031 C 190.210938 39.066406 190.257812 38.945312 190.359375 38.847656 C 190.457031 38.746094 190.578125 38.699219 190.71875 38.699219 Z M 103.503906 39.371094 C 103.625 39.371094 103.734375 39.410156 103.828125 39.488281 C 103.925781 39.570312 103.980469 39.667969 104.003906 39.792969 C 104.023438 39.914062 104.003906 40.027344 103.941406 40.132812 C 103.882812 40.242188 103.792969 40.316406 103.675781 40.359375 C 102.53125 40.777344 101.496094 41.375 100.5625 42.160156 C 100.453125 42.25 100.332031 42.289062 100.191406 42.277344 C 100.050781 42.265625 99.9375 42.203125 99.84375 42.097656 C 99.753906 41.988281 99.714844 41.863281 99.730469 41.726562 C 99.742188 41.585938 99.800781 41.46875 99.910156 41.378906 C 100.933594 40.519531 102.074219 39.859375 103.328125 39.402344 C 103.386719 39.378906 103.445312 39.371094 103.503906 39.371094 Z M 197.8125 40.9375 C 197.925781 40.9375 198.027344 40.972656 198.117188 41.039062 C 199.179688 41.851562 200.074219 42.816406 200.800781 43.9375 C 200.875 44.054688 200.898438 44.183594 200.871094 44.320312 C 200.839844 44.460938 200.769531 44.566406 200.648438 44.640625 C 200.53125 44.71875 200.40625 44.742188 200.269531 44.714844 C 200.128906 44.683594 200.023438 44.609375 199.945312 44.492188 C 199.285156 43.46875 198.46875 42.589844 197.5 41.851562 C 197.304688 41.703125 197.246094 41.515625 197.324219 41.285156 C 197.402344 41.054688 197.5625 40.9375 197.804688 40.9375 Z M 97.808594 44.148438 C 97.898438 44.148438 97.984375 44.171875 98.0625 44.214844 C 98.183594 44.285156 98.261719 44.390625 98.296875 44.527344 C 98.332031 44.664062 98.316406 44.792969 98.246094 44.914062 C 97.628906 45.964844 97.210938 47.089844 96.988281 48.292969 C 96.964844 48.429688 96.894531 48.539062 96.777344 48.621094 C 96.664062 48.699219 96.535156 48.726562 96.398438 48.703125 C 96.261719 48.675781 96.152344 48.605469 96.070312 48.492188 C 95.992188 48.375 95.964844 48.246094 95.988281 48.109375 C 96.230469 46.792969 96.691406 45.554688 97.367188 44.398438 C 97.464844 44.230469 97.613281 44.144531 97.808594 44.148438 Z M 201.863281 47.183594 C 202.132812 47.183594 202.296875 47.316406 202.359375 47.578125 C 202.558594 48.441406 202.660156 49.316406 202.660156 50.203125 L 202.660156 51.476562 C 202.660156 51.617188 202.609375 51.738281 202.511719 51.835938 C 202.414062 51.9375 202.292969 51.988281 202.152344 51.988281 C 202.011719 51.988281 201.890625 51.9375 201.792969 51.835938 C 201.695312 51.738281 201.644531 51.617188 201.644531 51.476562 L 201.644531 50.203125 C 201.644531 49.394531 201.550781 48.597656 201.371094 47.808594 C 201.339844 47.671875 201.359375 47.542969 201.433594 47.425781 C 201.507812 47.304688 201.613281 47.230469 201.75 47.199219 C 201.785156 47.1875 201.824219 47.183594 201.863281 47.183594 Z M 96.308594 51.480469 C 96.449219 51.480469 96.570312 51.53125 96.667969 51.628906 C 96.769531 51.730469 96.816406 51.847656 96.816406 51.988281 L 96.816406 55.792969 C 96.816406 55.933594 96.769531 56.050781 96.667969 56.152344 C 96.570312 56.25 96.449219 56.300781 96.308594 56.300781 C 96.167969 56.300781 96.050781 56.25 95.949219 56.152344 C 95.851562 56.050781 95.800781 55.933594 95.800781 55.792969 L 95.800781 51.988281 C 95.800781 51.847656 95.851562 51.730469 95.949219 51.628906 C 96.050781 51.53125 96.167969 51.480469 96.308594 51.480469 Z M 202.152344 54.765625 C 202.292969 54.765625 202.414062 54.816406 202.511719 54.914062 C 202.609375 55.011719 202.660156 55.132812 202.660156 55.273438 L 202.660156 59.066406 C 202.660156 59.207031 202.609375 59.328125 202.511719 59.429688 C 202.414062 59.527344 202.292969 59.578125 202.152344 59.578125 C 202.011719 59.578125 201.890625 59.527344 201.792969 59.429688 C 201.695312 59.328125 201.644531 59.207031 201.644531 59.066406 L 201.644531 55.273438 C 201.644531 55.132812 201.695312 55.011719 201.792969 54.914062 C 201.890625 54.816406 202.011719 54.765625 202.152344 54.765625 Z M 96.308594 59.09375 C 96.449219 59.09375 96.570312 59.144531 96.667969 59.242188 C 96.769531 59.34375 96.816406 59.460938 96.816406 59.601562 L 96.816406 63.398438 C 96.816406 63.539062 96.769531 63.65625 96.667969 63.757812 C 96.570312 63.855469 96.449219 63.90625 96.308594 63.90625 C 96.167969 63.90625 96.050781 63.855469 95.949219 63.757812 C 95.851562 63.65625 95.800781 63.539062 95.800781 63.398438 L 95.800781 59.59375 C 95.800781 59.453125 95.851562 59.332031 95.949219 59.234375 C 96.046875 59.132812 96.167969 59.082031 96.308594 59.082031 Z M 202.152344 62.378906 C 202.292969 62.378906 202.414062 62.429688 202.511719 62.527344 C 202.609375 62.628906 202.660156 62.746094 202.660156 62.886719 L 202.660156 66.679688 C 202.660156 66.820312 202.609375 66.941406 202.511719 67.039062 C 202.414062 67.136719 202.292969 67.1875 202.152344 67.1875 C 202.011719 67.1875 201.890625 67.136719 201.792969 67.039062 C 201.695312 66.941406 201.644531 66.820312 201.644531 66.679688 L 201.644531 62.886719 C 201.644531 62.746094 201.695312 62.628906 201.792969 62.527344 C 201.890625 62.429688 202.011719 62.378906 202.152344 62.378906 Z M 96.308594 66.707031 C 96.449219 66.707031 96.570312 66.757812 96.667969 66.855469 C 96.769531 66.957031 96.816406 67.074219 96.816406 67.214844 L 96.816406 68.460938 C 96.816406 69.277344 96.910156 70.082031 97.097656 70.878906 C 97.136719 71.015625 97.117188 71.148438 97.042969 71.273438 C 96.96875 71.398438 96.863281 71.476562 96.722656 71.507812 C 96.582031 71.542969 96.453125 71.519531 96.332031 71.441406 C 96.210938 71.363281 96.136719 71.253906 96.109375 71.113281 C 95.902344 70.242188 95.800781 69.355469 95.800781 68.460938 L 95.800781 67.214844 C 95.796875 67.070312 95.84375 66.949219 95.941406 66.84375 C 96.042969 66.738281 96.164062 66.6875 96.308594 66.6875 Z M 201.964844 69.957031 C 201.996094 69.957031 202.027344 69.957031 202.058594 69.957031 C 202.195312 69.984375 202.304688 70.054688 202.386719 70.171875 C 202.464844 70.289062 202.492188 70.414062 202.464844 70.554688 C 202.21875 71.871094 201.757812 73.105469 201.078125 74.257812 C 201.003906 74.367188 200.902344 74.4375 200.773438 74.46875 C 200.644531 74.496094 200.523438 74.476562 200.40625 74.410156 C 200.292969 74.34375 200.214844 74.246094 200.175781 74.121094 C 200.136719 73.992188 200.144531 73.871094 200.203125 73.75 C 200.824219 72.699219 201.246094 71.574219 201.472656 70.375 C 201.496094 70.253906 201.554688 70.15625 201.644531 70.078125 C 201.738281 70 201.84375 69.960938 201.964844 69.957031 Z M 98.09375 73.941406 C 98.273438 73.941406 98.417969 74.015625 98.515625 74.171875 C 99.179688 75.191406 99.996094 76.070312 100.964844 76.804688 C 101.074219 76.890625 101.140625 77.003906 101.160156 77.140625 C 101.179688 77.28125 101.144531 77.40625 101.0625 77.519531 C 100.976562 77.632812 100.863281 77.699219 100.726562 77.71875 C 100.585938 77.734375 100.460938 77.703125 100.347656 77.617188 C 99.285156 76.8125 98.390625 75.847656 97.660156 74.726562 C 97.582031 74.609375 97.558594 74.480469 97.589844 74.34375 C 97.617188 74.207031 97.691406 74.097656 97.808594 74.023438 C 97.894531 73.964844 97.988281 73.9375 98.09375 73.941406 Z M 198.195312 76.382812 C 198.429688 76.386719 198.585938 76.5 198.667969 76.722656 C 198.746094 76.945312 198.695312 77.128906 198.515625 77.28125 C 197.488281 78.140625 196.347656 78.796875 195.09375 79.253906 C 194.960938 79.300781 194.832031 79.292969 194.703125 79.234375 C 194.578125 79.175781 194.488281 79.078125 194.441406 78.949219 C 194.394531 78.816406 194.398438 78.6875 194.457031 78.558594 C 194.515625 78.429688 194.613281 78.34375 194.746094 78.296875 C 195.886719 77.882812 196.929688 77.289062 197.863281 76.511719 C 197.957031 76.429688 198.070312 76.382812 198.195312 76.382812 Z M 104.011719 78.421875 C 104.0625 78.421875 104.113281 78.429688 104.164062 78.441406 C 105.175781 78.761719 106.210938 78.925781 107.273438 78.929688 L 107.78125 78.929688 C 107.921875 78.929688 108.042969 78.980469 108.140625 79.078125 C 108.238281 79.179688 108.289062 79.296875 108.289062 79.4375 C 108.289062 79.578125 108.238281 79.699219 108.140625 79.796875 C 108.042969 79.898438 107.921875 79.949219 107.78125 79.949219 L 107.273438 79.949219 C 106.113281 79.949219 104.980469 79.78125 103.875 79.4375 C 103.734375 79.417969 103.621094 79.351562 103.535156 79.242188 C 103.449219 79.128906 103.417969 79 103.4375 78.859375 C 103.453125 78.71875 103.519531 78.605469 103.632812 78.519531 C 103.746094 78.433594 103.871094 78.402344 104.011719 78.421875 Z M 111.5625 78.929688 L 115.355469 78.929688 C 115.496094 78.929688 115.613281 78.980469 115.714844 79.078125 C 115.8125 79.179688 115.863281 79.296875 115.863281 79.4375 C 115.863281 79.578125 115.8125 79.699219 115.714844 79.796875 C 115.613281 79.898438 115.496094 79.949219 115.355469 79.949219 L 111.5625 79.949219 C 111.421875 79.949219 111.300781 79.898438 111.203125 79.796875 C 111.101562 79.699219 111.054688 79.578125 111.054688 79.4375 C 111.054688 79.296875 111.101562 79.179688 111.203125 79.078125 C 111.300781 78.980469 111.421875 78.929688 111.5625 78.929688 Z M 119.148438 78.929688 L 122.941406 78.929688 C 123.082031 78.929688 123.199219 78.980469 123.300781 79.078125 C 123.398438 79.179688 123.449219 79.296875 123.449219 79.4375 C 123.449219 79.578125 123.398438 79.699219 123.300781 79.796875 C 123.199219 79.898438 123.082031 79.949219 122.941406 79.949219 L 119.148438 79.949219 C 119.007812 79.949219 118.886719 79.898438 118.789062 79.796875 C 118.6875 79.699219 118.640625 79.578125 118.640625 79.4375 C 118.640625 79.296875 118.6875 79.179688 118.789062 79.078125 C 118.886719 78.980469 119.007812 78.929688 119.148438 78.929688 Z M 126.734375 78.929688 L 130.527344 78.929688 C 130.667969 78.929688 130.785156 78.980469 130.886719 79.078125 C 130.984375 79.179688 131.035156 79.296875 131.035156 79.4375 C 131.035156 79.578125 130.984375 79.699219 130.886719 79.796875 C 130.785156 79.898438 130.667969 79.949219 130.527344 79.949219 L 126.734375 79.949219 C 126.59375 79.949219 126.472656 79.898438 126.375 79.796875 C 126.273438 79.699219 126.226562 79.578125 126.226562 79.4375 C 126.226562 79.296875 126.273438 79.179688 126.375 79.078125 C 126.472656 78.980469 126.59375 78.929688 126.734375 78.929688 Z M 134.320312 78.929688 L 138.113281 78.929688 C 138.25 78.929688 138.371094 78.980469 138.46875 79.078125 C 138.570312 79.179688 138.621094 79.296875 138.621094 79.4375 C 138.621094 79.578125 138.570312 79.699219 138.46875 79.796875 C 138.371094 79.898438 138.25 79.949219 138.113281 79.949219 L 134.320312 79.949219 C 134.179688 79.949219 134.058594 79.898438 133.960938 79.796875 C 133.859375 79.699219 133.808594 79.578125 133.808594 79.4375 C 133.808594 79.296875 133.859375 79.179688 133.960938 79.078125 C 134.058594 78.980469 134.179688 78.929688 134.320312 78.929688 Z M 141.902344 78.929688 L 145.695312 78.929688 C 145.835938 78.929688 145.957031 78.980469 146.054688 79.078125 C 146.15625 79.179688 146.207031 79.296875 146.203125 79.4375 C 146.207031 79.578125 146.15625 79.699219 146.054688 79.796875 C 145.957031 79.898438 145.835938 79.949219 145.695312 79.949219 L 141.902344 79.949219 C 141.765625 79.949219 141.644531 79.898438 141.546875 79.796875 C 141.445312 79.699219 141.394531 79.578125 141.394531 79.4375 C 141.394531 79.296875 141.445312 79.179688 141.546875 79.078125 C 141.644531 78.980469 141.765625 78.929688 141.902344 78.929688 Z M 149.484375 78.929688 L 153.28125 78.929688 C 153.421875 78.929688 153.542969 78.980469 153.640625 79.078125 C 153.742188 79.179688 153.789062 79.296875 153.789062 79.4375 C 153.789062 79.578125 153.742188 79.699219 153.640625 79.796875 C 153.542969 79.898438 153.421875 79.949219 153.28125 79.949219 L 149.484375 79.949219 C 149.34375 79.949219 149.226562 79.898438 149.125 79.796875 C 149.027344 79.699219 148.976562 79.578125 148.976562 79.4375 C 148.976562 79.296875 149.027344 79.179688 149.125 79.078125 C 149.226562 78.980469 149.34375 78.929688 149.484375 78.929688 Z M 157.070312 78.929688 L 160.867188 78.929688 C 161.007812 78.929688 161.128906 78.980469 161.226562 79.078125 C 161.328125 79.179688 161.375 79.296875 161.375 79.4375 C 161.375 79.578125 161.328125 79.699219 161.226562 79.796875 C 161.128906 79.898438 161.007812 79.949219 160.867188 79.949219 L 157.074219 79.949219 C 156.933594 79.949219 156.816406 79.898438 156.714844 79.796875 C 156.617188 79.699219 156.566406 79.578125 156.566406 79.4375 C 156.566406 79.296875 156.617188 79.179688 156.714844 79.078125 C 156.816406 78.980469 156.933594 78.929688 157.074219 78.929688 Z M 164.65625 78.929688 L 168.453125 78.929688 C 168.59375 78.929688 168.714844 78.980469 168.8125 79.078125 C 168.914062 79.179688 168.960938 79.296875 168.960938 79.4375 C 168.960938 79.578125 168.914062 79.699219 168.8125 79.796875 C 168.714844 79.898438 168.59375 79.949219 168.453125 79.949219 L 164.660156 79.949219 C 164.519531 79.949219 164.402344 79.898438 164.300781 79.796875 C 164.203125 79.699219 164.152344 79.578125 164.152344 79.4375 C 164.152344 79.296875 164.203125 79.179688 164.300781 79.078125 C 164.402344 78.980469 164.519531 78.929688 164.660156 78.929688 Z M 172.242188 78.929688 L 176.039062 78.929688 C 176.179688 78.929688 176.300781 78.980469 176.398438 79.078125 C 176.496094 79.179688 176.546875 79.296875 176.546875 79.4375 C 176.546875 79.578125 176.496094 79.699219 176.398438 79.796875 C 176.300781 79.898438 176.179688 79.949219 176.039062 79.949219 L 172.246094 79.949219 C 172.105469 79.949219 171.988281 79.898438 171.886719 79.796875 C 171.789062 79.699219 171.738281 79.578125 171.738281 79.4375 C 171.738281 79.296875 171.789062 79.179688 171.886719 79.078125 C 171.988281 78.980469 172.105469 78.929688 172.246094 78.929688 Z M 179.828125 78.929688 L 183.625 78.929688 C 183.765625 78.929688 183.886719 78.980469 183.984375 79.078125 C 184.082031 79.179688 184.132812 79.296875 184.132812 79.4375 C 184.132812 79.578125 184.082031 79.699219 183.984375 79.796875 C 183.886719 79.898438 183.765625 79.949219 183.625 79.949219 L 179.832031 79.949219 C 179.691406 79.949219 179.570312 79.898438 179.472656 79.796875 C 179.375 79.699219 179.324219 79.578125 179.324219 79.4375 C 179.324219 79.296875 179.375 79.179688 179.472656 79.078125 C 179.570312 78.980469 179.691406 78.929688 179.832031 78.929688 Z M 187.414062 78.929688 L 191.1875 78.929688 C 191.328125 78.929688 191.449219 78.980469 191.546875 79.078125 C 191.644531 79.179688 191.695312 79.296875 191.695312 79.4375 C 191.695312 79.578125 191.644531 79.699219 191.546875 79.796875 C 191.449219 79.898438 191.328125 79.949219 191.1875 79.949219 L 187.417969 79.949219 C 187.277344 79.949219 187.15625 79.898438 187.058594 79.796875 C 186.960938 79.699219 186.910156 79.578125 186.910156 79.4375 C 186.910156 79.296875 186.960938 79.179688 187.058594 79.078125 C 187.15625 78.980469 187.277344 78.929688 187.417969 78.929688 Z M 187.414062 78.929688 " fill-opacity="1" fill-rule="nonzero"/></g></svg>